<?xml version="1.0" encoding="UTF-8" standalone="no"?>
<!DOCTYPE svg PUBLIC "-//W3C//DTD SVG 1.1//EN" "http://www.w3.org/Graphics/SVG/1.1/DTD/svg11.dtd">
<svg width="100%" height="100%" viewBox="0 0 1920 1895" version="1.1" xmlns="http://www.w3.org/2000/svg" xmlns:xlink="http://www.w3.org/1999/xlink" xml:space="preserve" xmlns:serif="http://www.serif.com/" style="fill-rule:evenodd;clip-rule:evenodd;">
    <g id="ArtBoard1" transform="matrix(0.949076,0,0,0.939353,-277.034,-691.608)">
        <rect x="291.899" y="736.26" width="2022.25" height="2017.03" style="fill:none;"/>
        <g id="Layer-16" serif:id="Layer 16" transform="matrix(4.39024,0,0,4.43568,-95.1438,-177.483)">
            <g transform="matrix(1,0,0,1,139.333,609.996)">
                <path d="M0,-138.663L55.577,-160.064L208.499,-160.064L315.331,-176.665L326.331,-162.665L147.664,38.002L132.331,34.668L0,-138.663Z" style="fill:rgb(202,162,60);stroke:rgb(26,23,27);stroke-width:4px;"/>
            </g>
            <g transform="matrix(1,0,0,1,134.406,610.525)">
                <path d="M0,-143.052L58.667,-165.196L211.588,-165.196L323.924,-178.527L137.594,35.475L0,-143.052Z" style="fill:rgb(26,23,27);"/>
            </g>
            <g transform="matrix(1,0,0,1,133.333,612.667)">
                <path d="M0,-152.667L52.134,-171.26L202.27,-171.26L318,-180L138,27.333L0,-152.667Z" style="fill:rgb(253,232,209);"/>
            </g>
            <g transform="matrix(1,0,0,1,261.333,429.783)">
                <path d="M0,176.884L-106.336,34.881C-48.067,-0.666 -65.094,25.011 -65.094,25.011L58.329,21.512L163.664,6.215L21.333,177.55L0,176.884Z" style="fill:rgb(43,128,45);"/>
            </g>
            <g transform="matrix(1,0,0,1,254.331,585.046)">
                <path d="M0,27.618L-8.997,6.287C-8.997,6.287 -5.664,-4.379 3.003,-11.046C12.411,-18.283 29.003,-23.046 43.003,-14.379C52.622,-8.424 54.46,0.224 49.669,4.954C39.191,15.301 31.669,26.287 31.669,26.287C2.066,50.664 0,27.618 0,27.618" style="fill:rgb(253,232,209);fill-rule:nonzero;"/>
            </g>
            <g transform="matrix(1,0,0,1,263.38,616.564)">
                <path d="M0,-28.598L25.342,-31.181L21.884,-13.289L6.468,2.583L-3.95,-10.861L0,-28.598Z" style="fill:white;fill-rule:nonzero;"/>
            </g>
        </g>
        <g id="Layer-17" serif:id="Layer 17" transform="matrix(4.39024,0,0,4.43568,-95.1438,-177.483)">
            <g>
                <g transform="matrix(1,0,0,1,187.997,434.664)">
                    <path d="M0,-33.333C2,-34 95.333,-78 95.333,-78L157.333,-45.333L161.753,-16.666L239.333,0.667L39.333,44.667L-13.333,28.667L0,-33.333Z" style="fill:rgb(26,23,27);"/>
                </g>
                <g transform="matrix(1,0,0,1,334.093,271.082)">
                    <path d="M0,19.674C0,19.674 5.078,5.701 9.916,-2.123C10.907,-3.724 12.131,-6.939 13.709,-6.917C15.288,-6.897 17.901,-6.77 25.854,-7.484C27.827,-7.662 32.036,-8.906 33.11,-8.605C37.889,-7.266 56.407,7.168 52.907,27.668C52.752,28.58 47.775,17.846 47.775,17.846C47.775,17.846 40.265,7.445 25.232,8.457C7.311,9.664 7.305,24.638 6.202,25.352C5.099,26.065 0,19.674 0,19.674" style="fill:rgb(26,23,27);fill-rule:nonzero;"/>
                </g>
                <g transform="matrix(1,0,0,1,337.375,325.145)">
                    <path d="M0,-29.722C0,-29.722 5.417,-27.207 21.323,-40.17C21.904,-40.643 29.066,-38.178 33.459,-34.703C37.048,-31.694 39.599,-26.453 41.659,-22.693C44.249,-17.972 44.229,-11.269 41.654,-5.913C36.703,4.382 31.099,7.228 25.868,10.921C25.868,10.921 32.087,3.28 32.371,-1.462C32.63,-5.769 31.837,-9.258 28.832,-13.445C22.053,-22.893 11.711,-26.032 1.752,-21.338C-5.511,-17.919 0,-29.722 0,-29.722" style="fill:rgb(26,23,27);fill-rule:nonzero;"/>
                </g>
                <g transform="matrix(1,0,0,1,256.844,264.305)">
                    <path d="M0,-13.805C0,-13.805 2.742,-19.411 5.661,-23.17C9.159,-27.675 22.982,-39.722 41.086,-38.88C59.189,-38.038 94.822,-18.181 75.56,25.917L-55.854,23.638C-55.854,23.638 -68.799,7.198 -44.413,-4.295C-31.631,-10.322 -7.614,-7.826 -7.614,-7.826L0,-13.805Z" style="fill:rgb(26,23,27);fill-rule:nonzero;stroke:rgb(26,23,27);stroke-width:0.41px;"/>
                </g>
                <g transform="matrix(1,0,0,1,202.185,372.311)">
                    <path d="M0,-55.696C2.859,-52.217 3.416,-48.409 -1.117,-45.113C-3.496,-43.384 -8.571,-40.809 -11.339,-35.825C-14.107,-30.837 -14.683,-27.096 -9.111,-20.622C-6.711,-17.829 -0.266,-11.952 1.533,-11.183C1.533,-11.183 1.617,-4.804 2.695,-0.562C2.695,-0.562 -3.616,0.864 -4.862,1.996C-6.565,3.545 -10,7.621 -5.27,11.264C-3.134,12.911 2.857,13.8 8.877,14.841C14.9,15.882 23.469,17.034 26.565,20.44C29.662,23.847 36.767,28.327 43.916,26.234C51.063,24.14 54.035,21.615 55.486,20.456C57.178,19.109 62.5,16.066 65.845,14.928C69.38,13.726 111.819,-1.677 116.902,-4.611C121.984,-7.547 135.464,-15.102 121.334,-28.626C121.334,-28.626 135.619,-30.875 142.032,-38.545C147.511,-45.094 152.408,-56.958 147.682,-67.101C145.995,-70.717 139.039,-84.023 125.747,-83.575C112.454,-83.128 0.111,-74.282 0.111,-74.282C0.111,-74.282 -5.508,-62.399 0,-55.696" style="fill:rgb(26,23,27);fill-rule:nonzero;"/>
                </g>
                <g transform="matrix(1,0,0,1,328.131,221.625)">
                    <path d="M0,66.002C0,66.002 3.846,61.846 5.2,46.501C6.5,31.766 -4.334,18.765 -10.834,14.432C-15.006,11.65 -44.638,-5.07 -68.473,28.733C-83.916,50.633 -77.916,39.418 -77.916,39.418C-77.916,39.418 -95.708,37.007 -105.252,38.96C-114.797,40.913 -120.152,41.402 -124.865,49.376C-129.578,57.35 -123.999,62.297 -120.23,62.663C-117.586,62.918 -64.309,65.224 -32.732,66.578L-31.127,71.072L-16.012,71.043C-16.012,71.043 -13.351,69.121 -9.968,67.736L-9.779,67.557C-9.372,67.573 0,66.002 0,66.002" style="fill:rgb(205,7,30);fill-rule:nonzero;"/>
                </g>
                <g transform="matrix(1,0,0,1,258.733,266.659)">
                    <path d="M0,-18.51C0,-18.51 -7.161,-17.859 -12.798,-13.926C-18.113,-10.217 -21.39,-6.936 -13.451,-2.933C-7.397,0.121 -0.7,-0.876 4.6,-2.965C8.653,-4.561 12.458,-7.57 13.99,-9.888C15.436,-12.079 17.003,-18.257 2.783,-18.631L0,-18.51Z" style="fill:rgb(26,23,27);fill-rule:nonzero;stroke:rgb(26,23,27);stroke-width:0.41px;"/>
                </g>
                <g transform="matrix(1,0,0,1,265.972,254.778)">
                    <path d="M0,4.731C0,4.731 -6.856,9.807 -17.257,6.877C-27.657,3.945 -18.378,-0.974 -11.534,-2.697C-2.087,-5.076 8.451,-0.84 0,4.731" style="fill:rgb(205,7,30);fill-rule:nonzero;"/>
                </g>
                <g transform="matrix(1,0,0,1,282.379,300.116)">
                    <path d="M0,-19.862C0,-19.862 -42.332,-31.01 -89.678,-10.098C-102.995,-4.217 -102.732,0.151 -102.732,0.151C-102.732,0.151 -102.873,2.255 -101.599,4.464C-100.227,6.834 -99.093,11.148 -89.307,7.757C-79.52,4.367 -53.88,-4.266 -14.058,-5.873C8.234,-6.773 25.004,3.265 21.567,-9.502C19.988,-15.366 0,-19.862 0,-19.862Z" style="fill:rgb(26,23,27);fill-rule:nonzero;stroke:rgb(26,23,27);stroke-width:0.41px;"/>
                </g>
                <g transform="matrix(1,0,0,1,218.224,282.572)">
                    <path d="M0,15.071C0,15.071 -17.914,8.983 -18.103,20.102C-18.103,20.102 -26.644,22.323 -28.771,23.044C-30.896,23.762 -40.675,18.796 -30.858,13.463C-17.894,6.421 24.338,-8.691 61.679,1.315C77.919,5.666 78.654,9.299 77.784,10.141C77.617,10.302 76.947,12.071 67.215,10.314C66.601,10.203 63.742,7.237 63.742,7.237C63.742,7.237 58.992,0.915 49.956,4.186C42.033,7.053 42.604,8.188 37.974,10.426" style="fill:rgb(205,7,30);fill-rule:nonzero;"/>
                </g>
                <g transform="matrix(1,0,0,1,230.533,318.179)">
                    <path d="M0,-10.364C0,-10.364 -13.996,-13.791 -22.053,-9.83C-24.031,-8.856 -24.252,-4.275 -24.252,-4.275C-24.252,-4.275 -25.234,2.848 -18.993,2.805C-12.754,2.757 -11.858,3.427 -11.042,2.785C-11.042,2.785 -5.971,-2.515 1.331,-5.713C8.631,-8.91 0.4,-10.258 0,-10.364" style="fill:white;fill-rule:nonzero;"/>
                </g>
                <g transform="matrix(1,0,0,1,247.594,299.417)">
                    <path d="M0,11.253C0,11.253 -0.61,8.726 2.039,6.857C4.686,4.99 24.96,-6.546 31.237,-2.716C37.515,1.114 37.328,8.421 34.736,10.679C34.736,10.679 31.347,14.711 12.785,17.254C8.813,17.799 8.8,17.691 8.8,17.691C8.8,17.691 2.709,13.071 1.791,12.591C0.916,12.134 0.4,11.819 0,11.253" style="fill:white;fill-rule:nonzero;"/>
                </g>
                <g transform="matrix(-0.206417,-0.978464,-0.978464,0.206417,217.543,303.929)">
                    <path d="M-10.187,-10.495C-10.187,-10.495 -6.204,-11.816 -4.94,-1.99C-3.673,7.837 -10.187,4.63 -10.187,4.63C-10.187,4.63 -12.605,3.994 -14.585,-1.281C-15.046,-2.511 -14.451,-10.19 -10.187,-10.495" style="fill:rgb(26,23,27);fill-rule:nonzero;"/>
                </g>
                <g transform="matrix(0.989633,-0.14362,-0.14362,-0.989633,269.108,311.04)">
                    <path d="M-0.815,-0.429C-1.039,-0.459 -5.967,-2.105 -10.455,2.27C-10.455,2.27 -17.655,8.303 -0.815,9.883C12.13,11.095 6.385,3.85 6.385,3.85C6.385,3.85 4.078,0.188 -0.815,-0.429" style="fill:rgb(26,23,27);fill-rule:nonzero;"/>
                </g>
                <g transform="matrix(1,0,0,1,226.799,314.396)">
                    <path d="M0,-3.072C0,-3.072 -1.242,-6.349 -7.197,-4.484C-13.698,-2.445 -8.061,0.568 -8.061,0.568C-8.061,0.568 2.472,3.277 0,-3.072" style="fill:rgb(26,23,27);fill-rule:nonzero;"/>
                </g>
                <g transform="matrix(1,0,0,1,272.217,309.465)">
                    <path d="M0,-5.729C0,-5.729 0.429,-8.742 -9.924,-5.084C-14.828,-3.351 -12.014,-0.491 -12.014,-0.491C-9.861,3.013 2.587,-0.954 0,-5.729" style="fill:rgb(26,23,27);fill-rule:nonzero;"/>
                </g>
                <g transform="matrix(-0.258955,0.965889,0.965889,0.258955,263.546,302.231)">
                    <path d="M2.721,-3.547C1.741,-3.546 0.946,-2.285 0.946,-0.73C0.945,0.827 1.74,2.087 2.721,2.088C3.701,2.087 4.496,0.828 4.496,-0.728C4.497,-2.284 3.701,-3.547 2.721,-3.547" style="fill:white;fill-rule:nonzero;"/>
                </g>
                <g transform="matrix(-0.258871,0.965912,0.965912,0.258871,217.704,309.043)">
                    <path d="M1.963,-2.56C1.141,-2.56 0.474,-1.649 0.472,-0.527C0.472,0.596 1.141,1.506 1.963,1.507C2.787,1.508 3.454,0.597 3.456,-0.528C3.455,-1.649 2.787,-2.56 1.963,-2.56" style="fill:white;fill-rule:nonzero;"/>
                </g>
                <g transform="matrix(1,0,0,1,251.884,320.92)">
                    <path d="M0,-3.904C0,-3.904 -7.723,-14.535 -24.292,-2.753C-36.288,5.776 -23.971,8.072 -21.513,8.516C-19.054,8.959 -6.449,10.631 -0.511,6.555C2.91,4.205 3.353,2.291 2.78,0.42C2.208,-1.453 0,-3.904 0,-3.904" style="fill:rgb(253,232,209);fill-rule:nonzero;"/>
                </g>
                <g transform="matrix(1,0,0,1,219.707,349.2)">
                    <path d="M0,-21.018C0,-21.018 -7.127,-27.293 -15.125,-21.489C-23.124,-15.686 -34.378,-3.344 -16.12,6.275C-16.12,6.275 -16.526,-1.032 -12.592,-4.487C-12.592,-4.487 -19.297,-6.598 -21.915,-9.778C-23.049,-11.155 -23.021,-11.044 -21.23,-11.528C-17.254,-12.601 -12.298,-14.411 -8.154,-16.393C-5.662,-17.584 -2.412,-19.209 0,-21.018" style="fill:rgb(253,232,209);fill-rule:nonzero;"/>
                </g>
                <g transform="matrix(1,0,0,1,203.548,346.542)">
                    <path d="M0,-7.225C0,-7.225 7.542,-9.954 12.122,-12.111C14.965,-13.449 19.388,-16.385 19.388,-16.385C19.388,-16.385 29.667,-10.949 41.763,-13.718C53.432,-16.39 53.372,-21.777 53.372,-21.777C53.372,-21.777 55.46,-23.152 73.185,-26.777C90.91,-30.406 103.614,-37.741 103.614,-37.741C103.614,-37.741 102.78,-33.024 105.224,-31.724C105.224,-31.724 104.624,-44.902 124.047,-51.739C135.826,-55.884 139.834,-39.848 139.834,-39.848C139.834,-39.848 146.165,-21.255 130.264,-12.415C114.362,-3.572 106.971,-6.985 108.34,-10.486C108.34,-10.486 102.14,-0.976 114.036,-2.085C114.036,-2.085 123.358,8.707 113.372,16.424C104.703,23.122 75.957,33.071 58.474,36.938C53.384,38.066 51.671,40.415 51.671,40.415C51.671,40.415 46.099,48.659 38.106,48.02C30.116,47.383 25.54,41.216 25.54,41.216C25.54,41.216 24.429,39.952 22.147,39.448C18.75,38.699 1.253,35.611 0.22,35.506C-1.938,35.284 -7.458,31.301 3.296,30.173C15.138,28.931 22.263,32.604 24.827,32.649C27.394,32.693 54.336,33.681 78.694,25.603C85.533,23.335 88.424,20.858 91.628,16.61C97.291,9.108 95.007,-25.657 83.021,-28.223C83.021,-28.223 88.099,-22.853 76.866,-17.27C73.559,-15.628 36.855,3.796 0,-7.225" style="fill:rgb(253,232,209);fill-rule:nonzero;"/>
                </g>
                <g transform="matrix(1,0,0,1,290.18,377.785)">
                    <path d="M0,-50.765C0,-50.765 6.635,-31.161 3.025,-20.1C0.258,-11.619 -4.86,-9.11 -22.772,-5.319C-40.686,-1.527 -56.631,0 -80.572,-4.699C-80.572,-4.699 -86.21,-28.546 -78.256,-31.785C-78.256,-31.785 -37.693,-22.848 0,-50.765Z" style="fill:white;fill-rule:nonzero;stroke:rgb(26,23,27);stroke-width:0.41px;"/>
                </g>
                <g transform="matrix(1,0,0,1,229.406,378.37)">
                    <path d="M0,-33.483C0,-33.483 -7.133,-29.704 -5.461,-18.44C-4.092,-9.243 -1.957,0 -1.957,0L1.199,-0.013L-2.41,-18.879C-2.41,-18.879 -4.773,-26.493 3.84,-33.384L0,-33.483Z" style="fill:rgb(26,23,27);fill-rule:nonzero;"/>
                </g>
                <g transform="matrix(-0.981824,0.189796,0.189796,0.981824,255.453,374.692)">
                    <path d="M-2.602,-32.597C-2.602,-32.597 4.262,-28.208 1.236,1.219L-2.602,1.261C-2.602,1.261 2.337,-21.733 -6.186,-33.008L-2.602,-32.597Z" style="fill:rgb(26,23,27);fill-rule:nonzero;"/>
                </g>
                <g transform="matrix(-0.959268,0.282498,0.282498,0.959268,290.852,368.031)">
                    <path d="M9.054,-36.506C9.054,-36.506 3.395,-16.318 13.276,0.132L9.054,-0.711C9.054,-0.711 0.943,-13.365 5.327,-36.595L9.054,-36.506Z" style="fill:rgb(26,23,27);fill-rule:nonzero;"/>
                </g>
                <g transform="matrix(1,0,0,1,296.611,317.106)">
                    <path d="M0,0.414L-4.295,-3.798L-13.87,-1.53L-15.936,0.763L-15.678,4.212L-10.854,0.833L0,0.414Z" style="fill:rgb(253,232,209);fill-rule:nonzero;"/>
                </g>
                <g transform="matrix(1,0,0,1,301.853,309.901)">
                    <path d="M0,12.298C0,12.298 -7.002,-3.055 -23.902,11.533C-27.343,14.499 -27.881,15.353 -27.881,15.353C-27.881,15.353 -24.516,6.803 -20.236,3.654C-15.955,0.506 -10.971,0.338 -7.178,2.214C-3.384,4.089 -0.901,6.849 0,12.298" style="fill:rgb(26,23,27);fill-rule:nonzero;"/>
                </g>
                <g transform="matrix(1,0,0,1,339.431,308.158)">
                    <path d="M0,3.133C0,3.133 -8.535,-24.068 -26.059,12.474C-26.059,12.474 -8.221,4.813 -14.126,17.106C-17.203,23.512 -25.607,21.475 -25.607,21.475C-25.607,21.475 -15.217,27.201 -10.51,17.502C-4.114,4.322 -20.619,8.204 -20.619,8.204C-20.619,8.204 -11.718,-14.326 0,3.133" style="fill:rgb(26,23,27);fill-rule:nonzero;"/>
                </g>
                <g transform="matrix(1,0,0,1,273.797,259.799)">
                    <path d="M0,-5.165C0,-5.165 13.958,-9.158 25.975,0.504C25.975,0.504 9.063,-5.316 3.15,-0.885C3.15,-0.885 12.798,-0.019 15.654,3.753C15.654,3.753 0.102,-1.982 -9.662,3.993C-9.662,3.993 -0.417,-0.484 0,-5.165" style="fill:rgb(26,23,27);fill-rule:nonzero;"/>
                </g>
                <g transform="matrix(-0.66803,-0.744134,-0.744134,0.66803,220.277,315.314)">
                    <path d="M-5.405,-9.841C-5.405,-9.841 -3.396,-1.397 -3.893,0.507C-4.39,2.411 -5.405,-0.972 -5.405,-0.972L-6.391,-7.063L-5.405,-9.841Z" style="fill:rgb(26,23,27);fill-rule:nonzero;"/>
                </g>
                <g transform="matrix(1,0,0,1,237.023,326.892)">
                    <path d="M0,-12.039C0,-12.039 -8.355,-10.8 -12.464,-5.068C-13.353,-3.829 -13.187,-3.284 -12.912,-2.325C-12.247,0 -12.783,-6.013 0,-12.039" style="fill:rgb(253,232,209);fill-rule:nonzero;"/>
                </g>
                <g transform="matrix(1,0,0,1,213.141,329.454)">
                    <path d="M0,-2.679C0,-2.679 -5.488,-5.568 -12.691,2.889C-12.691,2.889 -8.521,-0.8 0,-2.679" style="fill:rgb(253,232,209);fill-rule:nonzero;"/>
                </g>
                <g transform="matrix(1,0,0,1,293.696,317.359)">
                    <path d="M0,-0.782C0,-0.782 -5.423,-4.595 -14.121,3.813C-14.121,3.813 -5.866,-2.138 0,-0.782" style="fill:rgb(253,232,209);fill-rule:nonzero;"/>
                </g>
            </g>
        </g>
        <g id="Layer-23" serif:id="Layer 23" transform="matrix(4.39024,0,0,4.43568,-95.1438,-177.483)">
            <g transform="matrix(1,0,0,1,311.995,425.798)">
                <path d="M0,-71.567C-11.58,-66.394 -10.024,-66.403 -122.84,-13.732C-122.84,-13.732 -140.747,-5.03 -141.428,-1.316C-141.438,-1.261 -142.382,3.97 -143.958,8.286C-148.291,20.153 -154.59,21.766 -163.945,7.128C-168.785,-0.444 -171.113,-6.262 -173.35,-13.072C-174.475,-16.503 -179.474,-33.435 -165.504,-29.82C-161.585,-28.806 -158.542,-27.522 -153.042,-24.676C-153.042,-24.676 -149.05,-23.506 -131.248,-31.921C-123.934,-35.377 -8.51,-89.551 -8.51,-89.551C-8.51,-89.551 -5.23,-91.101 -1.317,-93.333" style="fill:rgb(26,23,27);fill-rule:nonzero;"/>
            </g>
            <g transform="matrix(1,0,0,1,309.551,428.462)">
                <path d="M0,-76.55C-11.421,-71.448 -9.744,-71.305 -121.027,-19.346C-121.027,-19.346 -141.292,-9.099 -141.965,-5.436C-141.975,-5.383 -142.767,-0.663 -144.092,3.404C-147.125,12.704 -151.107,16.103 -160.415,0.798C-163.845,-4.841 -165.2,-8.544 -167.123,-13.797C-168.435,-17.379 -174.418,-33.276 -161.696,-28.589C-159.745,-27.869 -154.965,-25.772 -150.526,-23.551C-150.526,-23.551 -144.887,-23.161 -127.327,-31.461C-120.113,-34.871 -5.995,-88.427 -5.995,-88.427C-5.995,-88.427 -1.727,-90.451 2.135,-92.653" style="fill:rgb(202,162,60);fill-rule:nonzero;"/>
            </g>
            <g transform="matrix(1,0,0,1,310.065,429.014)">
                <path d="M0,-77.375C-11.422,-72.272 -6.785,-66.977 -118.067,-15.016C-118.067,-15.016 -141.295,-9.924 -141.967,-6.262C-141.977,-6.209 -142.768,-1.488 -144.094,2.578C-147.127,11.877 -152.228,-1.125 -151.266,-2.031C-146.459,-6.564 -150.567,-22.029 -150.255,-23.052C-150.016,-23.836 -146.481,-17.448 -146.481,-17.448C-146.481,-17.448 -140.543,-18.379 -122.887,-27.13C-115.737,-30.674 -5.999,-89.252 -5.999,-89.252C-5.999,-89.252 -1.561,-84.931 2.299,-87.131" style="fill:rgb(202,162,60);fill-rule:nonzero;"/>
            </g>
            <g transform="matrix(1,0,0,1,168.496,400.429)">
                <path d="M0,30.708C0,30.708 -4.075,13.448 -10.028,3.753C-12.333,0 -7.152,4.715 -7.152,4.715C-7.152,4.715 2.356,21.575 -0.06,28.378" style="fill:rgb(26,23,27);fill-rule:nonzero;"/>
            </g>
        </g>
        <g id="Layer-26" serif:id="Layer 26" transform="matrix(4.39024,0,0,4.43568,-95.1438,-177.483)">
            <g transform="matrix(1,0,0,1,301.096,227.509)">
                <path d="M0,120.597C0,120.597 3.102,118.976 6.788,116.674C10.192,114.548 17.538,109.176 23.844,103.249C35.098,92.672 88.651,48.039 114.931,30.462C129.472,20.737 149.575,8.892 156.735,5.047C175.115,-4.825 192.777,-12.369 201.497,-14.505C211.718,-17.011 216.542,-13.912 220.667,-11.445C224.793,-8.977 232.156,0.234 236.245,8.064C239.916,15.086 243.454,26.405 243.61,32.234C243.834,40.58 241.15,44.802 235.275,49.753C228.585,55.391 211.286,65.804 193.384,75.026C180.527,81.649 160.529,89.815 148.48,94.539C93.7,116.017 44.073,126.164 36.069,128.265C30.281,129.784 21.601,132.157 17.271,133.856C14.105,135.098 11.057,136.539 8.897,137.608" style="fill:rgb(26,23,27);fill-rule:nonzero;"/>
            </g>
            <g transform="matrix(1,0,0,1,301.309,227.151)">
                <path d="M0,124.602C0,124.602 4.039,122.487 7.676,120.216C11.033,118.12 16.955,113.863 23.338,108.084C34.729,97.771 87.897,53.414 113.819,36.075C128.163,26.481 147.994,14.795 155.057,11.001C173.188,1.264 191.496,-6.643 200.096,-8.75C210.178,-11.221 214.938,-8.163 219.007,-5.731C223.076,-3.294 227.6,2.709 231.635,10.434C235.255,17.361 237.78,24.519 237.934,30.269C238.154,38.504 235.507,42.669 229.713,47.552C223.113,53.114 205.164,63.85 187.502,72.947C174.823,79.482 155.096,87.537 143.21,92.198C89.171,113.386 39.464,124.278 31.566,126.351C25.857,127.849 18.721,130.424 14.448,132.099C11.327,133.324 8.369,134.768 6.24,135.823" style="fill:rgb(202,162,60);fill-rule:nonzero;"/>
            </g>
            <g transform="matrix(1,0,0,1,530.533,319.62)">
                <path d="M0,-89.421C0,-89.421 -5.973,-99.606 -11.205,-99.171C-11.507,-99.146 -17.861,-101.328 -29.356,-97.062C-43.074,-91.972 -63.225,-81.249 -77.585,-72.336C-86.5,-66.801 -137.362,-36.576 -185.931,1.953C-193.723,8.133 -196.3,11.907 -196.3,11.907C-196.3,11.907 -135.451,-35.658 -67.971,-74.723C-47.457,-86.598 -35.716,-91.105 -29.16,-94.068C-23.319,-96.708 -16.145,-97.694 -11.353,-96.912C-6.039,-96.043 0,-89.421 0,-89.421" style="fill:rgb(26,23,27);fill-rule:nonzero;"/>
            </g>
            <g transform="matrix(1,0,0,1,537.02,338.732)">
                <path d="M0,-100.979C0,-100.979 0.579,-101.155 -4.354,-102.446C-7.414,-103.247 -16.13,-102.087 -24.446,-99.368C-38.352,-94.819 -55.793,-84.511 -70.365,-75.948C-79.411,-70.631 -135.688,-38.732 -188.021,-5.065C-196.383,0.314 -197.688,2.268 -197.688,2.268C-197.688,2.268 -130.238,-39.452 -62.361,-77.827C-42.796,-88.888 -32.975,-93.699 -26.244,-96.243C-20.623,-98.367 -9.029,-101.135 -3.475,-100.5C1.876,-99.887 0,-100.979 0,-100.979" style="fill:rgb(26,23,27);fill-rule:nonzero;"/>
            </g>
            <g transform="matrix(1,0,0,1,533.461,329.312)">
                <path d="M0,-94.347C0,-94.347 -3.783,-99.169 -8.821,-99.959C-11.127,-100.32 -15.654,-100.964 -26.722,-97.21C-40.577,-92.512 -58.821,-82.989 -73.215,-74.132C-82.152,-68.631 -134.735,-39.107 -183.651,-4.119C-191.74,1.666 -197.806,6.617 -197.806,6.617C-197.806,6.617 -134.389,-34.885 -67.503,-74.959C-48.125,-86.569 -32.511,-93.18 -25.587,-95.137C-18.662,-97.095 -13.633,-98.091 -8.715,-97.855C-3.336,-97.596 0,-94.347 0,-94.347" style="fill:rgb(26,23,27);fill-rule:nonzero;"/>
            </g>
            <g transform="matrix(1,0,0,1,535.223,324.927)">
                <path d="M0,-84.049C-4.335,-83.931 -12.391,-81.98 -19.194,-78.775C-60.229,-59.449 -139.814,-12.029 -155.056,0C-155.056,0 -109.99,-1.802 -67.214,-20.49C-19.481,-41.341 -0.735,-55.941 4.992,-65.337C8.504,-71.1 4.002,-68.947 4.002,-68.947C3.483,-62.899 -11.202,-53.169 -16.35,-49.565C-21.698,-45.821 -37.619,-35.219 -66.631,-23.033C-109.004,-5.236 -147.56,-2.833 -147.56,-2.833C-147.56,-2.833 -121.445,-18.418 -84.345,-40.907C-70.566,-49.258 -24.075,-74.837 -13.424,-78.654C-8.284,-80.496 -2.528,-81.878 0.132,-82.053C2.791,-82.229 0,-84.049 0,-84.049" style="fill:rgb(26,23,27);fill-rule:nonzero;"/>
            </g>
            <g transform="matrix(1,0,0,1,538.296,314.436)">
                <path d="M0,-68.75C0,-68.75 -10.016,-62.612 -20.513,-56.875C-43.971,-44.054 -119.893,-3.638 -127.412,0.115C-127.412,0.115 -77.963,-4.816 -59.041,-16.753L-55.265,-17.754C-55.265,-17.754 -82.101,-9.304 -91.176,-7.619C-97.219,-6.498 -113.956,-3.528 -114.971,-3.712C-114.971,-3.712 -65.583,-29.852 -59.045,-33.289C-52.507,-36.727 -4.86,-62.667 -1.05,-65.675C1.867,-67.977 1.747,-68.865 1.747,-68.865L0,-68.75Z" style="fill:rgb(26,23,27);fill-rule:nonzero;"/>
            </g>
            <g transform="matrix(1,0,0,1,537.602,298.327)">
                <path d="M0,-45.075C0,-45.075 -8.25,-37.821 -30.54,-24.776C-43.085,-17.435 -78.767,-1.302 -85.199,2.463C-85.199,2.463 -63.076,0.771 -41.761,-8.753C-41.761,-8.753 -23.691,-17.77 -26.239,-16.54C-41.294,-9.284 -65.229,-2.445 -75.808,-0.745C-65.025,-5.318 -25.121,-22.377 -0.578,-41.533C7.075,-47.507 1.878,-47.538 1.878,-47.538L0,-45.075Z" style="fill:rgb(26,23,27);fill-rule:nonzero;"/>
            </g>
            <g transform="matrix(1,0,0,1,432.5,336.141)">
                <path d="M0,-12.391C28.615,-21.228 39.617,-27.264 38.5,-26.891C34.484,-25.552 30.943,-23.422 22,-20.641C4.778,-15.287 -20.812,-8.409 -60.082,1.682C-69.266,4.041 -110.167,13.526 -110.167,13.526C-110.167,13.525 -113.625,14.873 -103.833,13.026C-92.045,10.8 -65.212,4.935 -45,-0.391C-35.954,-2.775 -9.794,-9.366 0,-12.391" style="fill:rgb(26,23,27);fill-rule:nonzero;"/>
            </g>
            <g transform="matrix(1,0,0,1,422.067,303.094)">
                <path d="M0,-47.032C11.612,-49.615 22.318,-46.675 26.465,-38.824C31.92,-28.491 23.947,-13.569 8.655,-5.492C-6.638,2.583 -23.46,0.756 -28.917,-9.577C-31.581,-14.624 -30.425,-20.478 -28.011,-26.67C-26.666,-30.116 -16.576,-37.33 -9.827,-41.832C-6.37,-44.137 -3.671,-46.216 0,-47.032" style="fill:rgb(26,23,27);fill-rule:nonzero;"/>
            </g>
            <g transform="matrix(1,0,0,1,422.396,299.062)">
                <path d="M0,-40.398C9.805,-42.432 18.129,-40.073 21.636,-33.435C26.31,-24.585 19.479,-11.802 6.38,-4.884C-6.719,2.034 -21.127,0.467 -25.801,-8.382C-28.051,-12.64 -27.541,-17.063 -25.413,-22.221C-24.63,-24.117 -2.21,-39.94 0,-40.398" style="fill:rgb(202,162,60);fill-rule:nonzero;"/>
            </g>
        </g>
        <g id="oben-rechts" serif:id="oben rechts" transform="matrix(4.39024,0,0,4.43568,-95.1438,-177.483)">
            <g transform="matrix(1,0,0,1,168.353,417.673)">
                <path d="M0,-21.018C0,-21.018 -0.211,-13.978 1.083,-10.255C2.379,-6.534 7.897,-1.437 7.897,-1.437L4.942,0C4.942,0 -0.535,-6.297 -1.733,-9.171C-2.932,-12.049 -2.889,-19.972 -2.889,-19.972L0,-21.018Z" style="fill:rgb(26,23,27);fill-rule:nonzero;"/>
            </g>
            <g transform="matrix(1,0,0,1,176.804,414.713)">
                <path d="M0,-21.02C0,-21.02 -0.212,-13.979 1.083,-10.257C2.378,-6.537 7.897,-1.438 7.897,-1.438L4.941,0C4.941,0 -0.535,-6.298 -1.733,-9.175C-2.932,-12.051 -2.89,-19.974 -2.89,-19.974L0,-21.02Z" style="fill:rgb(26,23,27);fill-rule:nonzero;"/>
            </g>
            <g transform="matrix(1,0,0,1,184.51,411.681)">
                <path d="M0,-21.598C0,-21.598 -0.226,-14.365 1.156,-10.54C2.537,-6.717 8.425,-1.481 8.425,-1.481L5.271,0C5.271,0 -0.57,-6.473 -1.851,-9.426C-3.128,-12.382 -3.083,-20.523 -3.083,-20.523L0,-21.598Z" style="fill:rgb(26,23,27);fill-rule:nonzero;"/>
            </g>
            <g transform="matrix(1,0,0,1,192.678,408.861)">
                <path d="M0,-23.546C0,-23.546 -0.252,-15.66 1.293,-11.491C2.838,-7.321 9.429,-1.609 9.429,-1.609L5.899,0C5.899,0 -0.64,-7.054 -2.07,-10.277C-3.501,-13.499 -3.45,-22.374 -3.45,-22.374L0,-23.546Z" style="fill:rgb(26,23,27);fill-rule:nonzero;"/>
            </g>
            <g transform="matrix(1,0,0,1,201.755,405.106)">
                <path d="M0,-21.813C0,-21.813 -0.245,-14.506 1.256,-10.645C2.76,-6.782 9.166,-1.492 9.166,-1.492L5.734,0C5.734,0 -0.623,-6.534 -2.014,-9.521C-3.404,-12.504 -3.355,-20.728 -3.355,-20.728L0,-21.813Z" style="fill:rgb(26,23,27);fill-rule:nonzero;"/>
            </g>
            <g transform="matrix(1,0,0,1,210.03,402.722)">
                <path d="M0,-21.019C0,-21.019 -0.211,-13.978 1.083,-10.256C2.376,-6.535 7.896,-1.437 7.896,-1.437L4.94,0C4.94,0 -0.535,-6.298 -1.733,-9.172C-2.932,-12.05 -2.889,-19.972 -2.889,-19.972L0,-21.019Z" style="fill:rgb(26,23,27);fill-rule:nonzero;"/>
            </g>
            <g transform="matrix(-0.0905609,0.995891,0.995891,0.0905609,196.929,391.848)">
                <path d="M31.778,-21.59C31.778,-21.59 38.254,-16.93 37.309,-10.643C36.363,-4.356 35.808,3.646 31.778,7.131C31.778,7.131 28.801,22.152 25.027,23.923C21.255,25.695 21.218,29.156 13.336,23.295" style="fill:rgb(253,232,209);fill-rule:nonzero;stroke:rgb(26,23,27);stroke-width:3.47px;"/>
            </g>
            <g transform="matrix(1,0,0,1,161.716,385.968)">
                <path d="M0,9.569C-0.217,6.536 0.55,3.959 2.167,2.635C6.934,-1.265 16.035,-9.499 26.436,-12.099C26.436,-12.099 28.011,-15.468 30.248,-16.847C32.482,-18.223 37.202,-20.368 40.737,-19.33C44.27,-18.292 51.28,-3.177 53.738,9.136C53.738,9.136 43.936,12.68 40.162,19.009C35.97,26.038 20.952,29.937 13.868,29.937C13.001,29.937 7.692,23.22 6.067,21.704C4.779,20.501 0.198,12.34 0,9.569" style="fill:rgb(253,232,209);fill-rule:nonzero;"/>
            </g>
            <g transform="matrix(1,0,0,1,161.716,385.968)">
                <path d="M0,9.569C-0.217,6.536 0.55,3.959 2.167,2.635C6.934,-1.265 16.035,-9.499 26.436,-12.099C26.436,-12.099 28.011,-15.468 30.248,-16.847C32.482,-18.223 37.202,-20.368 40.737,-19.33C44.27,-18.292 51.28,-3.177 53.738,9.136C53.738,9.136 43.936,12.68 40.162,19.009C35.97,26.038 20.952,29.937 13.868,29.937C13.001,29.937 7.692,23.22 6.067,21.704C4.779,20.501 0.198,12.34 0,9.569Z" style="fill:none;fill-rule:nonzero;stroke:rgb(26,23,27);stroke-width:3.6px;"/>
            </g>
            <g transform="matrix(1,0,0,1,219,417.779)">
                <path d="M0,-23.814C0,-23.814 -14.575,-19.835 -19.213,-14.393C-23.85,-8.954 -19.709,-2.718 -17.47,-0.924C-15.236,0.872 -10.453,-3.798 -5.698,-5.018C-0.943,-6.237 7.392,-5.246 7.423,-8.431C7.476,-13.455 2.856,-24.686 0,-23.814Z" style="fill:rgb(253,232,209);fill-rule:nonzero;stroke:rgb(26,23,27);stroke-width:3.04px;"/>
            </g>
            <g transform="matrix(1,0,0,1,313.267,485.013)">
                <path d="M0,-136.946C0,-136.946 11.212,-136.577 31.4,-127.013C44.066,-121.013 65.119,-92.282 70.483,-68.013C75.85,-43.744 67.951,-36.404 67.951,-36.404L-56.33,0C-56.33,0 -94.776,-58.939 -75.106,-97.076C-55.436,-135.213 0,-136.946 0,-136.946Z" style="fill:rgb(0,74,153);stroke:rgb(26,23,27);stroke-width:5.2px;"/>
            </g>
            <g transform="matrix(-0.999082,0.0428305,0.0428305,0.999082,290.174,459.992)">
                <path d="M41.286,-73.224C41.286,-73.224 5.225,-84.691 -10.126,-38.052C-27.637,15.15 41.286,-12.496 41.286,-12.496L73.85,-9.163C73.85,-9.163 63.751,-55.1 41.286,-73.224Z" style="fill:rgb(0,74,153);stroke:rgb(26,23,27);stroke-width:5.2px;"/>
            </g>
        </g>
        <g transform="matrix(-3.73547,2.33048,2.3066,3.77414,1291.44,1683.87)">
            <g id="Layer-22" serif:id="Layer 22">
                <path d="M21.297,-51.795C21.297,-51.795 4.573,-31.772 10.762,-0.336L21.297,1.974C21.297,1.974 10.957,-1.925 12.766,-18.027C14.576,-34.13 21.297,-51.795 21.297,-51.795" style="fill:rgb(26,23,27);"/>
            </g>
        </g>
        <g transform="matrix(4.39024,0,0,4.43568,1668.81,2238.16)">
            <g id="Layer-18" serif:id="Layer 18">
                <path d="M0,-135.261C0,-135.261 -0.924,-131.269 -1.227,-126.665C-1.5,-122.511 -2.75,-120.511 -2.75,-120.511C-2.75,-120.511 -3.503,-124.143 -6.791,-127.094C-9.755,-129.755 -13.432,-130.781 -17.5,-131.761C-26.084,-133.827 -33.375,-129.386 -33.375,-129.386C-33.375,-129.386 -28.25,-138.386 -27.625,-145.136C-27.253,-149.152 -26.616,-154.025 -28.75,-158.636C-30.796,-163.053 -34.714,-165.666 -39.625,-166.761C-58.661,-171 -66.901,-151.464 -69.575,-145.116C-72.248,-138.769 -75.485,-129.616 -77.535,-122.202C-79.584,-114.785 -80.598,-110.797 -80.75,-110.886C-83.75,-112.636 -88.117,-110.325 -88,-110.386C-91.625,-114.136 -96.766,-114.079 -99.5,-113.761C-107,-112.886 -112,-110.511 -116.75,-107.011C-119.197,-105.208 -122.375,-101.886 -126.25,-96.886C-126.25,-96.886 -129.025,-101.182 -133.75,-102.511C-138.473,-103.84 -143.875,-103.136 -143.875,-103.136C-143.875,-103.136 -144.25,-105.595 -145.875,-107.886C-147.25,-109.823 -150.875,-111.948 -153.875,-112.448C-155.971,-112.798 -160,-112.761 -159.375,-112.511C-158.726,-112.251 -159.813,-114.261 -161.063,-115.511C-162.751,-117.199 -166.583,-118.302 -168.188,-118.698C-170.879,-119.365 -173.631,-119.36 -175.981,-119.212C-178.329,-119.064 -184.5,-118.136 -184.5,-118.136C-191.5,-123.886 -198.375,-126.053 -204.125,-125.178C-210.715,-124.175 -217.27,-122.775 -222.042,-121.261C-227.288,-119.598 -233.071,-117.189 -238.792,-114.844C-245.396,-112.142 -254.9,-107.922 -262.125,-104.011C-275.102,-96.986 -290.608,-88.657 -298.625,-79.261C-305.229,-71.526 -301.55,-64.703 -300.791,-60.094C-300.035,-55.483 -298.301,-55.578 -295.791,-51.594C-293.282,-47.61 -293.375,-43.511 -293.375,-43.511C-293.375,-43.511 -297.017,-42.864 -300.375,-40.261C-303.402,-37.917 -303.897,-32.826 -303.875,-31.261C-303.772,-23.951 -298.625,-17.261 -295.875,-13.761C-293.125,-10.261 -284.625,-4.261 -271.048,-3.525C-270.564,-3.498 -278.125,-1.011 -287.625,4.489C-294.204,8.298 -297.488,10.83 -300.364,15.039C-305.625,22.739 -303.254,28.423 -296.809,31.76C-289.125,35.739 -281.193,31.307 -263.125,27.739C-248.562,24.863 -229.117,25.269 -221.125,25.739C-204.583,26.713 -190.994,18.438 -158.625,2.739C-142.719,-4.976 -118.912,-15.656 -99.625,-22.761C-61.625,-36.761 -49.125,-43.261 23.875,-59.261C32.024,-61.047 72.708,-69.261 83.375,-71.261C96.582,-73.738 102.524,-82.312 103.375,-88.261C104.042,-92.927 101.542,-100.761 91.542,-103.427C80.273,-106.431 74.542,-105.761 74.542,-105.761C74.542,-105.761 75.563,-110.635 74.209,-114.427" style="fill:rgb(26,23,27);fill-rule:nonzero;"/>
            </g>
        </g>
        <g id="Layer-24" serif:id="Layer 24" transform="matrix(4.39024,0,0,4.43568,-95.1438,-177.483)">
            <g transform="matrix(0.367492,0.930027,0.930027,-0.367492,507.112,449.278)">
                <path d="M-10.671,-2.893L0.44,-2.893L5.693,-12.047L-6.082,-15.996L-10.671,-2.893Z" style="fill:rgb(26,23,27);fill-rule:nonzero;"/>
            </g>
            <g transform="matrix(0.514484,0.8575,0.8575,-0.514484,99.324,556.072)">
                <path d="M2.072,-7.744L14.221,-7.744L13.32,3.875L3.716,7.305L2.072,-7.744Z" style="fill:rgb(26,23,27);fill-rule:nonzero;"/>
            </g>
            <g transform="matrix(0.523695,0.851906,0.851906,-0.523695,104.423,511.061)">
                <path d="M0.456,-9.483L12.39,-9.483L21.575,-2.021L2.345,3.931L0.456,-9.483Z" style="fill:rgb(26,23,27);fill-rule:nonzero;"/>
            </g>
            <g transform="matrix(1,0,0,1,366.917,394.917)">
                <path d="M0,-19.25L5.916,-9.417L0.583,0L0,-19.25Z" style="fill:rgb(26,23,27);fill-rule:nonzero;"/>
            </g>
        </g>
        <g id="Layer-10" serif:id="Layer 10" transform="matrix(4.39024,0,0,4.43568,-95.1438,-177.483)">
            <g transform="matrix(1,0,0,1,489.667,503.427)">
                <path d="M0,-71.593C-11.269,-74.597 -19,-73.927 -19,-73.927C-19,-73.927 -17.979,-78.801 -19.333,-82.593C-21,-87.26 -24.063,-87.719 -26.667,-93.26C-29.719,-99.756 -28.783,-107.185 -29.667,-108.854C-34.574,-118.133 -39.623,-116.161 -48.045,-116.161C-57.284,-116.161 -58.075,-104.189 -57.844,-103.393C-57.844,-103.393 -63.259,-105.276 -67.308,-104.242C-71.354,-103.208 -74.769,-100.441 -74.769,-100.441C-74.769,-100.441 -77.845,-105.157 -79.384,-105.311C-82.011,-105.572 -83.845,-105.896 -86.67,-105.755C-89.845,-105.599 -93.542,-103.427 -93.542,-103.427C-93.542,-103.427 -94.466,-99.435 -94.769,-94.831C-95.042,-90.677 -96.292,-88.677 -96.292,-88.677C-96.292,-88.677 -97.045,-92.309 -100.333,-95.26C-103.297,-97.921 -106.974,-98.947 -111.042,-99.927C-119.626,-101.993 -126.917,-97.552 -126.917,-97.552C-126.917,-97.552 -121.792,-106.552 -121.167,-113.302C-120.795,-117.318 -120.158,-122.191 -122.292,-126.802C-124.338,-131.219 -128.256,-133.832 -133.167,-134.927C-152.203,-139.166 -160.443,-119.63 -163.117,-113.282C-165.79,-106.935 -169.027,-97.782 -171.077,-90.368C-173.126,-82.951 -174.14,-78.963 -174.292,-79.052C-177.292,-80.802 -181.659,-78.491 -181.542,-78.552C-185.167,-82.302 -190.308,-82.245 -193.042,-81.927C-200.542,-81.052 -205.542,-78.677 -210.292,-75.177C-212.739,-73.374 -215.917,-70.052 -219.792,-65.052C-219.792,-65.052 -222.567,-69.348 -227.292,-70.677C-232.015,-72.006 -237.417,-71.302 -237.417,-71.302C-237.417,-71.302 -237.792,-73.761 -239.417,-76.052C-240.792,-77.989 -244.417,-80.114 -247.417,-80.614C-249.513,-80.964 -253.542,-80.927 -252.917,-80.677C-252.268,-80.417 -253.354,-82.427 -254.604,-83.677C-256.293,-85.365 -260.125,-86.468 -261.729,-86.864C-264.421,-87.53 -267.173,-87.526 -269.523,-87.378C-271.871,-87.23 -278.042,-86.302 -278.042,-86.302C-285.042,-92.052 -291.917,-94.218 -297.667,-93.343C-304.257,-92.341 -310.812,-90.941 -315.583,-89.427C-320.83,-87.764 -326.613,-85.354 -332.333,-83.01C-338.938,-80.308 -348.442,-76.088 -355.667,-72.177C-368.644,-65.152 -384.15,-56.823 -392.167,-47.427C-398.771,-39.692 -398.676,-31.536 -397.917,-26.927C-397.161,-22.316 -395.927,-21.161 -393.417,-17.177C-390.908,-13.193 -386.917,-11.677 -386.917,-11.677C-386.917,-11.677 -390.559,-11.03 -393.917,-8.427C-396.944,-6.083 -397.439,-0.992 -397.417,0.573C-397.314,7.883 -392.167,14.573 -389.417,18.073C-386.667,21.573 -378.167,27.573 -364.59,28.309C-364.106,28.336 -371.667,30.823 -381.167,36.323C-387.746,40.132 -391.03,42.664 -393.906,46.873C-399.167,54.573 -396.796,60.257 -390.351,63.595C-382.667,67.573 -374.735,63.141 -356.667,59.573C-342.104,56.697 -322.659,57.103 -314.667,57.573C-298.125,58.547 -284.536,50.272 -252.167,34.573C-236.261,26.858 -212.454,16.178 -193.167,9.073C-155.167,-4.927 -142.667,-11.427 -69.667,-27.427C-61.518,-29.213 -20.834,-37.427 -10.167,-39.427C3.04,-41.904 10.982,-50.478 11.833,-56.427C12.5,-61.093 10,-68.927 0,-71.593" style="fill:rgb(26,23,27);fill-rule:nonzero;"/>
            </g>
            <g transform="matrix(1,0,0,1,166.853,473.869)">
                <path d="M0,-29.125C0,-29.125 -31.875,-13 -34,-10.375C-36.125,-7.75 -42.625,-4.375 -39.625,-1.375C-36.625,1.625 -32.25,0 -30.125,-0.375C-28,-0.75 -9.75,-7.125 -7.125,-7.75C-4.5,-8.375 1.375,-10.25 2.25,-10.125C2.25,-10.125 -5.25,-17.125 -1.875,-21.875C1.5,-26.625 5.125,-30.75 3,-30.25C0.875,-29.75 0,-29.125 0,-29.125Z" style="fill:white;fill-rule:nonzero;stroke:rgb(182,186,190);stroke-width:0.5px;"/>
            </g>
            <g transform="matrix(1,0,0,1,415.782,483.032)">
                <path d="M0,-31.731C1.477,-32.497 3.084,-33.486 4.833,-34.769C11.284,-39.505 12.114,-41.051 14.063,-41.707C15.774,-42.281 16.886,-38.17 27.577,-37.396C31.778,-37.091 35.497,-37.08 38.478,-37.175C28.267,-36.243 15.089,-34.43 0,-31.731M-219.316,19.108C-216.135,16.183 -213.996,11.554 -212.189,9.218C-208.978,12.374 -207.713,16.643 -199.09,16.937C-198.771,16.948 -198.463,16.935 -198.151,16.931C-209.783,20.71 -221.635,24.808 -233.567,29.248C-228.196,26.222 -223.989,23.393 -219.316,19.108M-179.759,7.077C-178.366,7.71 -178.962,8.585 -173.975,9.416C-178.31,10.707 -182.691,12.04 -187.112,13.418C-184.268,11.582 -181.84,9.273 -179.759,7.077M-143.423,-3.396C-143.423,-3.396 -141.213,-1.502 -137.048,-0.881C-140.37,-0.012 -143.736,0.88 -147.152,1.805C-144.856,-0.502 -143.72,-2.764 -143.423,-3.396M-113.423,-10.396C-113.423,-10.396 -104.825,-8.406 -100.089,-10.73C-95.351,-13.054 -89.63,-21.708 -89.63,-21.708C-89.63,-21.708 -88.663,-17.752 -84.757,-16.396C-82.582,-15.64 -80.515,-15.055 -78.495,-14.857C-90.498,-12.216 -104.404,-9.063 -119.688,-5.292C-115.775,-8.027 -113.423,-10.396 -113.423,-10.396M-59.95,-26.65C-59.95,-26.65 -55.708,-21.174 -49.757,-21.396C-49.211,-21.417 -48.619,-21.458 -48.007,-21.511C-54.091,-20.136 -61.798,-18.495 -70.847,-16.529C-65.152,-19.776 -59.95,-26.65 -59.95,-26.65M-26.952,-31.227C-20.394,-38.828 -19.704,-38.606 -19.704,-38.606C-19.704,-38.606 -17.601,-31.078 -12.175,-29.826C-11.926,-29.768 -11.62,-29.692 -11.259,-29.617C-19.577,-27.985 -28.344,-26.111 -37.412,-23.995C-33.66,-25.497 -29.924,-27.784 -26.952,-31.227M79.118,-43.98C77.417,-46.674 72.948,-48.261 69.868,-49.105C63.688,-50.796 52.692,-50.972 48.868,-51.23C50.685,-53.237 51.159,-53.629 51.243,-57.105C51.315,-60.053 51.433,-61.974 47.868,-66.105C47.263,-66.808 43.862,-70.2 42.743,-75.23C41.692,-79.944 41.175,-86.767 40.243,-88.48C38.319,-92.019 33.999,-93.516 30.907,-93.516C25.21,-93.516 24.462,-92.729 21.999,-89.974C20.071,-87.813 18.669,-81.319 17.868,-79.23C15.763,-79.733 13.849,-81.23 10.118,-81.23C6.368,-81.23 4.433,-80.285 3.132,-79.79C2.46,-79.534 -1.786,-77.088 -2.296,-76.836C-2.995,-77.566 -4.292,-80.481 -5.21,-81.117C-9.526,-84.536 -16.384,-80.526 -16.384,-80.526C-16.384,-80.526 -17.124,-74.79 -18.882,-68.605C-20.571,-62.652 -24.353,-55.002 -26.132,-53.23C-23.257,-62.48 -24.132,-67.48 -28.507,-71.855C-31.448,-74.796 -35.413,-76.468 -40.354,-76.985C-45.292,-77.502 -49.651,-76.431 -53.474,-73.738C-57.294,-71.044 -60.759,-66.209 -60.759,-66.209C-60.759,-66.209 -52.382,-82.855 -51.257,-90.355C-50.452,-95.714 -47.507,-107.605 -59.14,-110.638C-66.235,-112.489 -75.997,-111.017 -84.601,-93.629C-91.591,-79.504 -98.335,-48.791 -98.335,-48.791C-98.335,-48.791 -98.478,-52.951 -100.007,-53.98C-101.593,-55.047 -102.429,-55.857 -104.257,-55.23C-106.085,-54.605 -108.257,-52.98 -108.257,-52.98C-108.257,-52.98 -109.644,-55.271 -111.507,-56.23C-113.37,-57.191 -117.85,-58.677 -127,-54.99C-136.152,-51.303 -141.773,-43.759 -146.007,-37.48C-149.569,-44.121 -149.948,-44.959 -155.132,-46.73C-160.313,-48.502 -166.845,-46.28 -166.845,-46.28C-166.845,-46.28 -167.179,-49.369 -168.138,-51.152C-169.257,-53.23 -171.515,-56.287 -174.757,-56.73C-177.995,-57.173 -180.166,-56.911 -182.257,-55.73C-181.507,-60.98 -185.498,-61.768 -187.736,-62.37C-191.729,-63.45 -197.318,-63.348 -200.423,-62.73C-202.916,-62.233 -205.712,-60.748 -205.712,-60.748C-206.466,-61.335 -210.883,-69.23 -220.507,-69.23C-225.315,-69.23 -228.476,-69.021 -233.507,-67.48C-238.06,-66.085 -246.378,-63.601 -252.257,-60.98C-258.17,-58.335 -269.591,-53.376 -277.459,-49.382C-295.91,-40.025 -310.294,-30.75 -314.87,-24.992C-319.445,-19.234 -319.449,-13.732 -319.486,-11.448C-319.591,-5.213 -318.482,-2.921 -316.085,0.657C-315.224,1.941 -313.662,3.505 -312.015,4.985C-309.702,6.345 -306.61,7.915 -305.282,8.468C-299.282,10.968 -289.782,14.468 -262.532,5.718C-253.047,2.673 -245.657,-1.157 -242.532,-0.782C-239.407,-0.407 -240.532,2.468 -241.532,3.718C-243.594,6.296 -258.782,14.468 -268.782,17.968C-277.146,20.896 -286.032,23.468 -290.782,22.968C-295.124,22.511 -300.032,20.468 -304.032,17.718C-306.381,16.104 -308.674,12.383 -311.521,11.606C-313.658,12.391 -315.907,13.46 -317.302,14.828C-319.346,16.828 -318.853,21.364 -318.272,23.096C-312.586,40.004 -300.757,43.27 -289.923,44.52C-281.942,45.192 -271.002,42.957 -260.981,40.031C-266.032,42.131 -271.079,44.293 -276.11,46.526C-292.086,52.897 -306.464,60.614 -313.11,66.026C-316.849,69.07 -317.673,72.434 -317.673,73.61C-317.673,76.858 -315.097,78.516 -314.062,79.165C-311.917,80.502 -308.893,80.758 -304.539,79.971L-298.051,78.379C-292.993,77.047 -286.069,75.223 -278.917,73.971C-265.132,71.555 -249.313,71.372 -241.757,72.27C-231.232,73.524 -215.994,66.643 -193.09,55.604C-177.174,47.934 -157.808,37.061 -134.843,28.39C-82.847,8.762 -50.423,-2.063 21.243,-15.73C21.243,-15.73 53.577,-21.73 64.794,-24.084C67.675,-24.689 73.419,-27.236 76.368,-30.355C79.038,-33.175 80.243,-34.105 80.868,-37.105C81.351,-39.419 80.618,-41.605 79.118,-43.98" style="fill:white;fill-rule:nonzero;"/>
            </g>
            <g transform="matrix(1,0,0,1,490.579,489.175)">
                <path d="M0,-47.643C-2.824,-52.756 -14.478,-53.553 -25.766,-54.11L-34.957,-54.415L-32.154,-56.902C-31.492,-57.592 -29.874,-59.073 -29.366,-60.867C-28.508,-63.915 -29.476,-67.431 -30.819,-68.808C-32.936,-70.977 -37.749,-81.885 -37.685,-85.441C-37.604,-90.084 -37.303,-94.45 -44.554,-94.45C-51.804,-94.45 -52.344,-81.281 -52.95,-79.202C-57.869,-62.259 -69.107,-51.089 -72.352,-48.274C-74.708,-46.226 -82.431,-44.533 -79.658,-52.175C-77.817,-57.243 -61.766,-74.13 -60.579,-78.511C-59.778,-80.268 -60.949,-83.598 -66.665,-82.651C-70.426,-82.027 -77.266,-74.853 -82.713,-77.124C-82.253,-79.894 -79.38,-83.195 -82.717,-84.748C-84.57,-85.613 -87.289,-84.748 -87.289,-84.748C-87.289,-63.332 -109.655,-34.838 -120.07,-36.991C-125.507,-38.112 -125.791,-44.517 -125.791,-44.517C-125.791,-44.517 -115.875,-37.552 -107.393,-56.931C-100.705,-72.197 -106.719,-75.705 -113.076,-78.304C-127.354,-84.139 -138.83,-60.111 -136.289,-44.229C-140.194,-38.496 -145.191,-29.501 -151.868,-31.236C-157.7,-32.748 -160.27,-40.552 -158.101,-44.431C-156.681,-46.97 -153.476,-51.056 -153.476,-51.056C-153.476,-51.056 -116.059,-106.931 -134.991,-113.03C-147.3,-116.995 -155.498,-99.851 -161.393,-82.931C-165.803,-70.273 -166.726,-58.931 -166.976,-44.306C-167.329,-41.331 -176.169,-21.506 -183.346,-24.013C-187.48,-25.457 -187.798,-27.48 -187.262,-29.303C-185.264,-36.073 -181.304,-49.59 -179.625,-55.691C-181.238,-57.547 -184.83,-54.333 -184.83,-54.333C-184.83,-54.333 -184.104,-56.108 -186.114,-57.112C-188.854,-58.477 -192.564,-59.861 -198.293,-57.801C-215.144,-51.738 -220.232,-28.632 -220.232,-22.859C-220.232,-18.518 -231.996,-6.691 -237.18,-6.317C-244.031,-5.824 -245.033,-14.774 -245.033,-14.774C-245.033,-14.774 -237.092,-8.041 -228.607,-27.421C-221.923,-42.689 -226.689,-45.408 -233.904,-48.558C-242.792,-51.826 -259.659,-30.37 -257.116,-14.485C-256.169,-8.574 -263.585,-3.564 -268.152,-2.274C-272.72,-0.98 -272.696,-10.556 -272.696,-11.597C-272.696,-19.845 -267.214,-36.643 -266.974,-37.586C-265.598,-42.968 -249.56,-52.171 -246.983,-53.918C-244.4,-55.664 -251.926,-58.56 -253.655,-57.72C-255.383,-56.876 -261.467,-52.988 -264.144,-51.397C-263.361,-56.877 -262.048,-60.628 -262.048,-61.185C-262.048,-63.75 -267.008,-65.205 -272.735,-63.955C-270.829,-57.166 -273.927,-47.832 -274.804,-45.974C-279.574,-42.729 -285.157,-38.002 -292.291,-35.147C-293.484,-31.178 -287.788,-32.147 -286.331,-32.617C-278.193,-35.261 -278.205,-37.146 -275.166,-38.2C-275.166,-38.2 -282.237,-17.949 -282.655,-5.74C-282.882,0.913 -278.912,6.737 -272.735,6.737C-264.872,6.737 -257.54,-2.392 -255.327,-8.075C-255.327,-8.075 -252.094,-1.655 -246.784,-0.886C-231.044,1.398 -222.868,-11.329 -217.784,-16.133C-214.508,-10.152 -208.924,-10.662 -205.74,-10.902C-196.435,-11.597 -190.025,-21.415 -190.025,-21.415C-190.025,-21.415 -187.53,-19.687 -183.445,-19.599C-173.808,-19.395 -164.633,-35.967 -164.586,-36.74C-164.541,-37.509 -162.739,-26.94 -152.853,-26.265C-142.967,-25.589 -137.746,-34.984 -134.378,-40.187C-130.564,-30.078 -119.785,-31.44 -119.785,-31.44C-112.965,-32.92 -106.851,-37.294 -102.151,-42.9C-91.936,-55.09 -86.674,-68.773 -83.01,-70.042C-81.727,-70.489 -80.257,-71.16 -79.658,-68.808C-79.059,-66.456 -87.917,-55.464 -88.803,-52.163C-92.073,-39.884 -82.937,-38.775 -79.658,-39.699C-68.92,-42.729 -66.688,-52.175 -60.579,-52.175C-55.086,-52.175 -53.205,-49.047 -47.607,-48.015C-41.782,-46.941 -32.255,-47.823 -27.936,-47.661C-23.619,-47.499 -10.969,-47.146 -11.857,-45.094C-12.248,-44.203 -12.301,-41.856 -23.785,-40.653C-35.276,-39.458 -72.705,-36.076 -112.662,-26.455C-152.615,-16.833 -248.925,6.644 -308.454,30.983C-367.979,55.329 -387.682,61.483 -386.827,65.92C-386.375,68.276 -384.152,69.352 -378.507,68.331C-374.906,67.678 -364.167,64.301 -352.865,62.325C-338.494,59.807 -322.779,58.749 -314.965,59.678C-298.396,61.655 -263.326,37.27 -209.447,16.923C-155.565,-3.416 -113.161,-16.259 -43.001,-28.684C-28.115,-31.319 -16.458,-33.314 -9.688,-35.592C-2.752,-37.93 2.055,-43.904 0,-47.643" style="fill:rgb(205,7,30);fill-rule:nonzero;"/>
            </g>
            <g transform="matrix(1,0,0,1,490.579,489.175)">
                <path d="M0,-47.643C-2.824,-52.756 -14.478,-53.553 -25.766,-54.11L-34.957,-54.415L-32.154,-56.902C-31.492,-57.592 -29.874,-59.073 -29.366,-60.867C-28.508,-63.915 -29.476,-67.431 -30.819,-68.808C-32.936,-70.977 -37.749,-81.885 -37.685,-85.441C-37.604,-90.084 -37.303,-94.45 -44.554,-94.45C-51.804,-94.45 -52.344,-81.281 -52.95,-79.202C-57.869,-62.259 -69.107,-51.089 -72.352,-48.274C-74.708,-46.226 -82.431,-44.533 -79.658,-52.175C-77.817,-57.243 -61.766,-74.13 -60.579,-78.511C-59.778,-80.268 -60.949,-83.598 -66.665,-82.651C-70.426,-82.027 -77.266,-74.853 -82.713,-77.124C-82.253,-79.894 -79.38,-83.195 -82.717,-84.748C-84.57,-85.613 -87.289,-84.748 -87.289,-84.748C-87.289,-63.332 -109.655,-34.838 -120.07,-36.991C-125.507,-38.112 -125.791,-44.517 -125.791,-44.517C-125.791,-44.517 -115.875,-37.552 -107.393,-56.931C-100.705,-72.197 -106.719,-75.705 -113.076,-78.304C-127.354,-84.139 -138.83,-60.111 -136.289,-44.229C-140.194,-38.496 -145.191,-29.501 -151.868,-31.236C-157.7,-32.748 -160.27,-40.552 -158.101,-44.431C-156.681,-46.97 -153.476,-51.056 -153.476,-51.056C-153.476,-51.056 -116.059,-106.931 -134.991,-113.03C-147.3,-116.995 -155.498,-99.851 -161.393,-82.931C-165.803,-70.273 -166.726,-58.931 -166.976,-44.306C-167.329,-41.331 -176.169,-21.506 -183.346,-24.013C-187.48,-25.457 -187.798,-27.48 -187.262,-29.303C-185.264,-36.073 -181.304,-49.59 -179.625,-55.691C-181.238,-57.547 -184.83,-54.333 -184.83,-54.333C-184.83,-54.333 -184.104,-56.108 -186.114,-57.112C-188.854,-58.477 -192.564,-59.861 -198.293,-57.801C-215.144,-51.738 -220.232,-28.632 -220.232,-22.859C-220.232,-18.518 -231.996,-6.691 -237.18,-6.317C-244.031,-5.824 -245.033,-14.774 -245.033,-14.774C-245.033,-14.774 -237.092,-8.041 -228.607,-27.421C-221.923,-42.689 -226.689,-45.408 -233.904,-48.558C-242.792,-51.826 -259.659,-30.37 -257.116,-14.485C-256.169,-8.574 -263.585,-3.564 -268.152,-2.274C-272.72,-0.98 -272.696,-10.556 -272.696,-11.597C-272.696,-19.845 -267.214,-36.643 -266.974,-37.586C-265.598,-42.968 -249.56,-52.171 -246.983,-53.918C-244.4,-55.664 -251.926,-58.56 -253.655,-57.72C-255.383,-56.876 -261.467,-52.988 -264.144,-51.397C-263.361,-56.877 -262.048,-60.628 -262.048,-61.185C-262.048,-63.75 -267.008,-65.205 -272.735,-63.955C-270.829,-57.166 -273.927,-47.832 -274.804,-45.974C-279.574,-42.729 -285.157,-38.002 -292.291,-35.147C-293.484,-31.178 -287.788,-32.147 -286.331,-32.617C-278.193,-35.261 -278.205,-37.146 -275.166,-38.2C-275.166,-38.2 -282.237,-17.949 -282.655,-5.74C-282.882,0.913 -278.912,6.737 -272.735,6.737C-264.872,6.737 -257.54,-2.392 -255.327,-8.075C-255.327,-8.075 -252.094,-1.655 -246.784,-0.886C-231.044,1.398 -222.868,-11.329 -217.784,-16.133C-214.508,-10.152 -208.924,-10.662 -205.74,-10.902C-196.435,-11.597 -190.025,-21.415 -190.025,-21.415C-190.025,-21.415 -187.53,-19.687 -183.445,-19.599C-173.808,-19.395 -164.633,-35.967 -164.586,-36.74C-164.541,-37.509 -162.739,-26.94 -152.853,-26.265C-142.967,-25.589 -137.746,-34.984 -134.378,-40.187C-130.564,-30.078 -119.785,-31.44 -119.785,-31.44C-112.965,-32.92 -106.851,-37.294 -102.151,-42.9C-91.936,-55.09 -86.674,-68.773 -83.01,-70.042C-81.727,-70.489 -80.257,-71.16 -79.658,-68.808C-79.059,-66.456 -87.917,-55.464 -88.803,-52.163C-92.073,-39.884 -82.937,-38.775 -79.658,-39.699C-68.92,-42.729 -66.688,-52.175 -60.579,-52.175C-55.086,-52.175 -53.205,-49.047 -47.607,-48.015C-41.782,-46.941 -32.255,-47.823 -27.936,-47.661C-23.619,-47.499 -10.969,-47.146 -11.857,-45.094C-12.248,-44.203 -12.301,-41.856 -23.785,-40.653C-35.276,-39.458 -72.705,-36.076 -112.662,-26.455C-152.615,-16.833 -248.925,6.644 -308.454,30.983C-367.979,55.329 -387.682,61.483 -386.827,65.92C-386.375,68.276 -384.152,69.352 -378.507,68.331C-374.906,67.678 -364.167,64.301 -352.865,62.325C-338.494,59.807 -322.779,58.749 -314.965,59.678C-298.396,61.655 -263.326,37.27 -209.447,16.923C-155.565,-3.416 -113.161,-16.259 -43.001,-28.684C-28.115,-31.319 -16.458,-33.314 -9.688,-35.592C-2.752,-37.93 2.055,-43.904 0,-47.643Z" style="fill:none;fill-rule:nonzero;stroke:rgb(205,7,30);stroke-width:1px;"/>
            </g>
            <g transform="matrix(1,0,0,1,190.374,522.883)">
                <path d="M0,-103.207C9.625,-103.492 19.031,-98.36 17.55,-92.121C16.072,-85.879 -14.55,-61.524 -15.264,-61.624C-15.976,-61.724 -18.718,-65.249 -18.718,-68.855C-18.718,-74.815 -5.574,-83.552 -4.316,-88.481C-2.803,-94.401 -11.031,-90.099 -12.974,-89.349C-12.974,-89.349 -28.897,-83.904 -44.671,-74.181C-71.379,-57.721 -72.016,-53.679 -71.061,-49.637C-70.054,-45.362 -67.878,-43.195 -61.315,-44.113C-53.262,-45.237 -20.348,-55.283 -10.685,-55.388C-0.036,-55.5 9.157,-48.457 9.157,-37.366C9.157,-28.286 -3.108,-19.185 -15.099,-12.963C-30.68,-4.875 -56.14,0.285 -65.615,-0.995C-75.097,-2.268 -82.19,-5.167 -87.761,-17.265C-88.469,-20.106 -87.304,-21.161 -85.889,-20.488C-84.474,-19.809 -77.215,-12.6 -70.527,-11.188C-63.844,-9.775 -59.211,-10.741 -48.841,-13.715C-42.875,-14.797 -24.665,-22.597 -21.457,-25.091C-20.466,-25.853 -6.868,-34.457 -6.868,-40.139C-6.868,-45.128 -11.369,-46.633 -15.264,-46.377C-19.156,-46.119 -52.435,-33.311 -67.921,-34.594C-82.19,-35.774 -86.597,-40.698 -86.838,-48.945C-87.104,-57.967 -78.782,-68.536 -49.438,-83.425C-43.62,-86.376 -11.061,-102.886 0,-103.207" style="fill:rgb(205,7,30);"/>
            </g>
            <g transform="matrix(-0.94034,-0.340237,-0.340237,0.94034,270.336,466.033)">
                <path d="M-16.051,-38.575C-17.326,-38.782 -19.106,-38.024 -19.382,-36.096C-19.662,-34.168 -23.939,-1.875 -16.051,0.991C-4.318,3.946 -5.809,-18.417 -6.274,-20.922C-6.688,-23.15 -8.446,-37.361 -16.051,-38.575" style="fill:white;"/>
            </g>
            <g transform="matrix(1,0,0,1,354.216,426.365)">
                <path d="M0,-43.888C2.402,-38.33 -13.826,-4.482 -23.237,11.505C-24.406,-8.679 -4.968,-55.393 0,-43.888" style="fill:white;"/>
            </g>
            <g transform="matrix(-0.239968,0.970781,0.970781,0.239968,375.306,422.557)">
                <path d="M5.578,-7.199C-1.416,-6.622 -5.791,-4.324 -6.959,-1.8C-8.015,3.109 -2.789,4.59 5.578,4.261C14.073,3.927 18.353,-1.759 18.289,-3.928C18.23,-6.097 12.573,-7.775 5.578,-7.199" style="fill:white;"/>
            </g>
            <g transform="matrix(-0.999232,0.0391846,0.0391846,0.999232,445.012,434.867)">
                <path d="M2.041,-19.446C-3.851,-17.828 -7.349,-11.409 -7.353,-5.897C-7.357,-2.572 -4.517,0.232 2.041,-0.025C4.175,-0.109 10.36,-2.015 10.262,-4.51C10.116,-8.25 6.577,-10.614 2.041,-19.446" style="fill:white;"/>
            </g>
            <g transform="matrix(-0.284487,0.95868,0.95868,0.284487,255.307,453.215)">
                <path d="M6.218,-7.114C-0.793,-6.857 -6.156,-4.808 -6.198,-2.634C-6.512,3.593 -1.421,4.278 6.218,3.312C13.861,2.345 18.813,-1.468 18.847,-3.645C18.887,-5.814 13.235,-7.37 6.218,-7.114" style="fill:white;"/>
            </g>
            <g transform="matrix(1,0,0,1,253.417,464.272)">
                <path d="M0,-12.521C0,-12.521 2.309,-13.125 0.75,-8.896C-0.125,-6.521 -2.794,-1.837 -4.25,0.104C-4.625,0.604 -4.541,-1.49 -4.25,-2.771C-3.625,-5.521 -3.18,-6.935 -2.375,-8.646C-1.793,-9.881 -0.764,-12.302 0,-12.521" style="fill:rgb(26,23,27);"/>
            </g>
            <g transform="matrix(1,0,0,1,295.667,466.341)">
                <path d="M0,-26.841C0,-26.841 -1.521,-26.887 -4.167,-23.673C-5.917,-21.548 -8.512,-15.978 -9.667,-13.007C-10.542,-10.757 -12.458,-6.882 -11.833,-3.007C-11.341,0.046 -9.917,0.034 -8.667,-1.216C-6.527,-3.355 -5.333,-7.466 -4.333,-9.841C-3.733,-11.265 -0.022,-21.107 0.208,-22.216C0.833,-25.216 1.5,-26.716 0,-26.841" style="fill:rgb(26,23,27);"/>
            </g>
            <g transform="matrix(1,0,0,1,350.958,423.666)">
                <path d="M0,-37.874C-0.75,-39.124 -4.085,-31.134 -6.5,-25.499C-9.304,-18.957 -11.023,-14.259 -12.5,-10.124C-13.75,-6.624 -15.75,1.25 -15.75,1.25C-15.75,1.25 -12.875,-5.249 -11.125,-8.999C-9.359,-12.784 -6.312,-21.121 -3.875,-26.499C-1.308,-32.166 0.231,-37.488 0,-37.874" style="fill:rgb(26,23,27);"/>
            </g>
            <g transform="matrix(1,0,0,1,374.249,433.879)">
                <path d="M0,-12.794C-2.125,-11.169 -2.438,-9.978 -3,-8.669C-3.75,-6.919 -4.25,-5.169 -4.5,-3.794C-4.634,-3.056 -4.875,-1.544 -4.5,-0.294C-4.238,0.578 -2.318,-1.834 -1.25,-3.544C0,-5.544 0.288,-6.621 0.75,-9.544C0.991,-11.071 0.756,-13.372 0,-12.794" style="fill:rgb(26,23,27);"/>
            </g>
            <g transform="matrix(1,0,0,1,444,430.5)">
                <path d="M0,-9.75C0,-9.75 -2.905,-5.937 -3.5,-4.75C-4,-3.75 -4.75,-2.125 -4,-1.75C-2.945,-1.223 0.125,0 2,-0.75C3.875,-1.5 4,-3.375 3.5,-5.25C2.937,-7.362 2,-8.375 0,-9.75" style="fill:rgb(26,23,27);"/>
            </g>
            <g transform="matrix(1,0,0,1,165.667,453.167)">
                <path d="M0,9C0,9 -4.75,3.5 -2.75,-1.5C-0.629,-6.803 2.75,-9.5 0.25,-8.75C-2.156,-8.027 -13.049,-2.944 -24,4.75C-33.25,11.25 -38.79,14.78 -36.75,17.5C-36,18.5 -28.852,16.783 -24.75,15C-19,12.5 -3.25,8.5 0,9" style="fill:rgb(26,23,27);fill-rule:nonzero;"/>
            </g>
            <g transform="matrix(-0.815733,0.578429,0.578429,0.815733,202.498,469.209)">
                <path d="M2.378,-14.508C2.378,-14.508 2.553,-6.05 -5.445,-4.363C-5.445,-4.363 -0.803,-2.138 2.378,2.348C2.378,2.348 1.711,-6.373 8.541,-14.893C8.541,-14.893 3.075,-14.389 2.378,-14.508" style="fill:rgb(26,23,27);fill-rule:nonzero;"/>
            </g>
            <g transform="matrix(-0.98792,-0.154968,-0.154968,0.98792,310.127,457.92)">
                <path d="M-3.4,-20.528C-3.4,-20.528 -0.562,-3.128 -0.262,-1.816C-0.262,-1.816 -0.635,0.416 -3.4,-7.622C-4.964,-12.169 -5.264,-13.482 -5.356,-14.508C-5.356,-14.508 -4.034,-18.097 -3.4,-20.528" style="fill:rgb(26,23,27);"/>
            </g>
            <g transform="matrix(-0.952788,-0.303636,-0.303636,0.952788,334.444,450.536)">
                <path d="M-7.639,-26.438C-7.639,-26.438 -3.349,-6.966 -2.7,-5.709C-2.7,-5.709 -4.111,1.188 -7.639,-2.561C-11.168,-6.309 -11.068,-10.738 -11.068,-10.738C-11.068,-10.738 -7.231,-19.486 -7.639,-26.438" style="fill:rgb(26,23,27);fill-rule:nonzero;"/>
            </g>
            <g transform="matrix(1,0,0,1,230,475.166)">
                <path d="M0,-22.916C0,-22.916 -3.987,-10.843 -5.25,-4.208C-5.417,-3.333 -5.811,0.364 -5.808,0.834C-5.805,1.54 -5.808,1.955 -5.792,2.209C-5.708,3.5 -4.292,2.251 -3.667,1.792C-3.149,1.412 -2.792,0.69 -2.688,-0.04C-2.589,-0.732 -2.958,-2.333 -2.953,-4.213C-2.944,-7.446 -2.688,-14.353 4.5,-26.416L0,-22.916Z" style="fill:rgb(26,23,27);fill-rule:nonzero;"/>
            </g>
        </g>
    </g>
    <g id="Layer-12" serif:id="Layer 12">
    </g>
</svg>
