<?xml version="1.0" encoding="UTF-8" standalone="no"?>
<!DOCTYPE svg PUBLIC "-//W3C//DTD SVG 1.1//EN" "http://www.w3.org/Graphics/SVG/1.1/DTD/svg11.dtd">
<svg width="100%" height="100%" viewBox="0 0 2138 1263" version="1.1" xmlns="http://www.w3.org/2000/svg" xmlns:xlink="http://www.w3.org/1999/xlink" xml:space="preserve" xmlns:serif="http://www.serif.com/" style="fill-rule:evenodd;clip-rule:evenodd;stroke-linejoin:round;stroke-miterlimit:2;">
    <g transform="matrix(4.16667,0,0,4.16667,0,0)">
        <path d="M505.259,33.311L505.131,33.151C499.116,25.947 492.911,22.293 486.688,22.293C481.105,22.293 477.499,25.286 476.234,26.539L432.768,62.385C427.897,55.383 422.374,48.758 416.215,42.6C389.093,15.479 353.033,0.543 314.681,0.543C276.326,0.543 240.268,15.48 213.147,42.602C207.89,47.858 203.097,53.455 198.776,59.334C197.924,57.215 196.387,55.116 194.188,53.166L192.83,52.047C191.983,51.394 191.057,50.76 190.066,50.149C188.624,49.32 155.23,27.873 102.767,24.282L107.725,27.356C94.905,24.793 84.871,24.126 77.023,24.126C73.341,24.126 52.164,24.024 49.625,24.282L57.656,27.699C53.041,27.529 54.948,27.576 48.615,27.576C46.543,27.576 44.391,27.633 42.041,27.759L0,29.969L41.152,38.879C41.413,38.936 67.699,44.771 103.167,64.603C116.073,71.819 135.195,74.185 160.006,71.543C163.322,73.706 171.427,79.041 182.909,86.917C176.923,100.69 173.142,115.402 171.727,130.614C154.999,133.948 138.354,137.849 121.833,142.367L121.833,216.99L148.87,220.408C161.707,216.895 174.631,213.822 187.617,211.143C193.577,222.41 201.085,232.926 210.027,242.432C199.561,250.068 190.781,256.361 186.684,259.168C185.452,258.774 184.179,258.574 182.875,258.574C173.899,258.574 167.842,267.943 166.561,270.111C163.607,274.836 165.885,281.826 173.334,290.898C177.407,296.453 183.456,302.998 189.337,303L189.339,303C190.182,303 191.007,302.875 191.793,302.625C193.818,302.037 202.599,299.135 206.044,292.272C207.069,290.231 207.517,288.057 207.385,285.846C211.731,282.039 222.231,273.256 234.432,263.242C257.949,279.156 285.655,287.717 314.681,287.717C343.39,287.717 370.813,279.346 394.164,263.764C403.082,273.686 411.413,283.65 418.938,293.564C419.188,294.072 419.472,294.533 419.785,294.943C421.713,297.51 424.817,298.922 428.525,298.922C432.791,298.922 437.744,297.041 442.114,293.76C445.598,291.143 448.378,287.873 449.929,284.563C452.014,280.148 451.843,275.803 449.463,272.643C448.084,270.797 446.096,269.553 443.707,268.998L441.98,267.227C439.399,264.57 430.508,256.289 417.396,244.449C427.171,234.449 435.319,223.273 441.697,211.236C449.495,212.857 457.271,214.615 465.018,216.539C469.98,217.781 474.932,219.086 479.871,220.453L506.906,216.496L506.906,142.397C494.937,139.113 482.902,136.139 470.819,133.477C466.517,133.469 462.204,133.516 457.888,133.589C457.095,122.622 455.075,111.898 451.889,101.58L504.543,63.165C506.242,62.211 510.382,59.368 511.775,53.698C513.263,47.65 511.069,40.791 505.259,33.311Z" style="fill:rgb(245,241,161);fill-rule:nonzero;"/>
        <path d="M500.67,36.875C488.143,21.634 480.175,30.821 480.175,30.821L429.626,72.508C426.78,68.035 423.67,63.692 420.275,59.514C397.349,31.288 364.799,13.682 328.626,9.939C323.939,9.454 319.185,9.209 314.493,9.209C280.981,9.209 248.742,21.564 223.713,44C213.878,52.816 205.481,62.915 198.682,73.95C189.965,68.428 182.271,64.095 175.972,61.317C175.972,61.317 181.839,61.987 191.237,65.769C195.827,64.959 194.551,59.487 187.25,55.023C187.25,55.023 152.949,35.215 116.49,31.409C116.49,31.409 168.556,47.533 168.604,53.258C168.604,53.258 166.454,55.816 156.856,51.916C99.012,28.427 80.859,28.964 68.286,30.251C68.286,30.251 104.474,32.557 134.084,52.177C137.021,54.123 148.857,54.88 148.857,54.88C148.857,54.88 134.164,57.28 117.724,51.306C74.676,35.646 62.2,32.333 42.336,33.38C42.336,33.38 69.156,39.139 105.913,59.694C121.807,68.578 145.53,67.562 161.38,65.729C161.38,65.729 173.114,73.25 191.947,86.27C185.507,99.65 181.249,114.103 179.447,129.122C181.841,128.673 184.236,128.234 186.633,127.808C186.806,127.777 186.979,127.748 187.152,127.717C189.365,127.326 191.579,126.941 193.794,126.57C194.542,126.444 195.29,126.325 196.038,126.202C197.748,125.921 199.459,125.638 201.171,125.37C203.734,124.966 206.3,124.576 208.867,124.203C211.106,124.359 213.347,124.529 215.589,124.71C217.774,124.885 219.959,125.071 222.146,125.264C223.224,120.274 224.705,115.455 226.52,110.816C230.721,113.877 235.063,117.073 239.509,120.377C246.35,119.679 253.197,119.066 260.049,118.561C260.168,118.578 260.284,118.596 260.4,118.613C250.923,111.204 241.685,104.151 232.887,97.661C249.468,69.274 280.225,50.713 314.493,50.713C317.748,50.713 321.044,50.881 324.354,51.224C356.202,54.52 382.711,73.25 397.237,99.218L373.335,118.93C383.081,119.729 392.816,120.701 402.533,121.883L402.533,121.849C403.727,121.995 404.917,122.158 406.109,122.311C406.616,122.375 407.123,122.426 407.629,122.492L407.629,122.506C409.237,122.715 410.844,122.939 412.451,123.158C412.462,123.159 412.472,123.16 412.482,123.162C414.576,123.447 416.668,123.741 418.761,124.044C419.117,124.096 419.474,124.148 419.831,124.2C421.673,124.47 423.514,124.743 425.354,125.026C426.252,125.165 427.151,125.309 428.05,125.451C429.439,125.67 430.828,125.886 432.216,126.114C434.61,126.506 437.004,126.908 439.395,127.327C442.958,128.726 446.516,130.165 450.069,131.62C450.076,131.623 450.082,131.625 450.088,131.627C449.037,121.037 446.729,110.669 443.258,100.683L501.447,58.23C501.447,58.23 513.117,52.832 500.67,36.875Z" style="fill:rgb(3,4,4);fill-rule:nonzero;"/>
        <path d="M430.522,278.332C428.873,279.572 427.475,280.957 426.358,282.361C431.167,272.883 437.95,271.147 437.95,271.147C434.621,267.723 423.906,257.761 408.512,243.912C421.218,231.816 431.355,217.514 438.509,201.801C433.961,201.018 429.407,200.285 424.849,199.584C423.45,199.371 422.052,199.152 420.653,198.945C419.025,198.705 417.398,198.473 415.771,198.244C412.219,197.746 408.666,197.258 405.108,196.813C401.673,196.383 398.234,195.994 394.796,195.611C389.956,203.32 384.045,210.248 377.298,216.217C367.856,207.939 357.709,199.135 347.146,190.08C345.451,190.518 343.757,190.939 342.06,191.393C338.039,191.24 334.017,191.119 329.992,191.033L329.992,154.672L328.873,155.596L328.873,186.635C327.273,187.08 325.673,187.543 324.072,188C337.987,200.072 351.78,212.617 364.988,225.439C350.315,234.688 333.023,239.986 314.73,239.986C311.471,239.986 308.172,239.818 304.859,239.475C291.767,238.121 279.58,234.15 268.758,228.147C269.803,227.326 270.832,226.523 271.82,225.756L323.252,188.232C320.252,189.094 317.249,189.969 314.247,190.867C310.273,190.867 306.299,190.9 302.326,190.965L302.326,177.488L301.211,178.406L301.211,190.986C295.926,191.082 290.643,191.264 285.359,191.481L260.883,211.666C258.542,213.481 256.009,215.426 253.34,217.459C245.949,211.162 239.563,203.766 234.414,195.553C231.187,195.91 227.96,196.272 224.737,196.67C221.116,197.117 217.5,197.611 213.885,198.111C212.209,198.348 210.534,198.584 208.86,198.83C207.46,199.033 206.061,199.252 204.662,199.465C199.983,200.18 195.309,200.93 190.641,201.731C195.405,212.16 201.521,222.053 208.94,231.188C212.25,235.262 215.765,239.106 219.457,242.727C202.362,255.266 187.855,265.625 187.073,265.803C179.077,260.168 171.519,273.143 171.519,273.143C169.169,276.717 177.926,287.332 177.926,287.332C177.926,287.332 186.038,298.455 190.09,297.07C190.09,297.07 204.532,292.967 201.055,283.818C201.443,283.064 216.855,270.115 234.626,255.574C253.793,269.529 276.377,278.256 300.589,280.76C305.271,281.244 310.032,281.492 314.73,281.492C343.479,281.492 371.285,272.391 394.411,255.639C405.064,267.273 414.978,279 423.808,290.674C423.931,290.99 424.079,291.293 424.288,291.564C426.557,294.582 433.024,293.551 438.732,289.258C444.446,284.967 447.237,279.039 444.972,276.023C442.703,273.01 436.238,274.039 430.522,278.332Z" style="fill:rgb(3,4,4);fill-rule:nonzero;"/>
        <path d="M408.737,155.098C414.121,103.11 376.344,56.603 324.354,51.224C272.367,45.841 225.863,83.62 220.478,135.603C215.095,187.59 252.874,234.098 304.859,239.475C356.848,244.863 403.35,207.082 408.737,155.098Z" style="fill:rgb(245,241,161);fill-rule:nonzero;"/>
        <path d="M222.146,125.264C231.515,81.893 270.065,50.713 314.493,50.713C317.748,50.713 321.044,50.881 324.354,51.224C365.045,55.435 397.025,84.84 406.425,122.348C406.826,122.396 407.229,122.44 407.629,122.492L407.629,122.506C409.577,122.759 411.525,123.028 413.473,123.296C410.111,108.155 403.278,93.884 393.216,81.496C376.159,60.5 351.947,47.402 325.038,44.619C321.538,44.256 317.991,44.072 314.493,44.072C289.583,44.072 265.608,53.266 246.985,69.96C230.809,84.461 219.854,103.619 215.475,124.701C217.697,124.878 219.921,125.068 222.146,125.264Z" style="fill:rgb(1,108,92);fill-rule:nonzero;"/>
        <path d="M336.068,237.508C349.263,230.26 362.385,223.627 375.43,217.811C364.16,227.266 350.709,234.096 336.068,237.508ZM394.796,195.611C393.829,197.154 392.801,198.652 391.749,200.129C359.373,205.725 326.101,219.975 292.506,237.348C296.308,238.254 300.202,238.955 304.188,239.389C332.921,223.951 361.397,210.951 389.305,203.406C387.848,205.273 386.339,207.094 384.753,208.844C362.704,216.742 340.359,227.523 317.854,239.904C316.814,239.939 315.776,239.986 314.73,239.986C311.471,239.986 308.172,239.818 304.859,239.475C296.86,238.647 289.202,236.836 281.983,234.189C312.827,219.098 343.433,206.426 373.261,201.141C375.396,200.764 377.527,200.416 379.646,200.115C382.406,199.723 385.165,199.412 387.917,199.164C382.9,198.992 377.847,199.106 372.771,199.467C370.047,199.664 367.305,199.928 364.556,200.264C361.723,200.606 358.891,201.022 356.052,201.512C353.104,202.014 350.149,202.598 347.191,203.246C322.606,208.609 297.532,218.59 272.32,230.018C266.041,226.877 260.181,223.068 254.824,218.689C257.518,220.889 260.34,222.941 263.276,224.842C289.555,214.152 315.697,204.766 341.264,200.981C344.072,200.557 346.893,200.209 349.694,199.936C352.377,199.672 355.055,199.479 357.728,199.356C352.832,198.85 347.906,198.637 342.956,198.695C340.338,198.729 337.725,198.832 335.096,199.006C308.794,200.723 281.798,209.16 254.695,218.582C251.817,216.223 249.086,213.695 246.512,211.022C274.209,203.518 301.867,196.447 328.693,197.385C299.508,190.949 269.068,196.682 238.689,201.797C237.184,199.773 235.755,197.691 234.414,195.553C231.984,195.822 229.554,196.102 227.126,196.395C229.734,200.842 232.688,205.127 236.001,209.205C253.058,230.201 277.27,243.297 304.177,246.08C307.678,246.443 311.229,246.627 314.73,246.627C339.638,246.627 363.611,237.434 382.232,220.738C390.137,213.652 396.78,205.445 402.036,196.455C399.625,196.164 397.211,195.879 394.796,195.611Z" style="fill:rgb(1,108,92);fill-rule:nonzero;"/>
        <path d="M495.399,40.963C495.277,40.861 494.888,40.535 493.927,39.747C493.633,39.502 447.923,72.739 447.648,72.535C447.063,72.093 490.205,36.457 489.717,36.17C487.871,35.085 486.705,34.951 486.24,34.951C485.72,34.951 484.4,35.945 484.4,35.945L433.081,78.266C435.219,82.023 437.177,85.862 438.937,89.78C472.277,63.467 499.795,44.641 495.399,40.963Z" style="fill:rgb(245,241,161);fill-rule:nonzero;"/>
        <path d="M224.398,247.34C222.604,248.658 220.802,249.979 218.992,251.303C191.054,271.717 190.106,271.926 188.529,272.283C188.529,272.283 191.77,278.607 223.029,253.674C224.555,252.457 226.074,251.268 227.588,250.094C226.511,249.195 225.45,248.275 224.398,247.34Z" style="fill:rgb(245,241,161);fill-rule:nonzero;"/>
        <path d="M214.386,207.803L216.439,210.947C216.751,211.424 217.039,211.711 217.301,211.809C217.602,211.916 217.918,211.859 218.255,211.641C218.602,211.416 218.781,211.154 218.796,210.857C218.812,210.563 218.663,210.176 218.353,209.699L216.296,206.553L214.386,207.803ZM210.794,210.147L212.781,213.191C213.15,213.756 213.495,214.111 213.813,214.258C214.18,214.424 214.569,214.375 214.978,214.109C215.382,213.844 215.583,213.51 215.583,213.104C215.58,212.756 215.392,212.299 215.02,211.731L213.031,208.688L210.794,210.147ZM217.096,213.359C217.349,214.51 217.005,215.391 216.063,216.008C215.313,216.498 214.551,216.611 213.774,216.352C213.384,216.219 213.024,216.004 212.696,215.705C212.367,215.408 212.029,214.994 211.684,214.465L208.019,208.854L208.211,208.729C208.346,208.846 208.463,208.912 208.564,208.928C208.665,208.941 208.779,208.908 208.901,208.826L215.849,204.289C215.973,204.209 216.049,204.119 216.077,204.02C216.105,203.924 216.092,203.789 216.037,203.617L216.229,203.492L219.859,209.051C220.207,209.582 220.447,210.039 220.579,210.416C220.711,210.793 220.76,211.166 220.727,211.537C220.663,212.272 220.272,212.871 219.555,213.34C218.753,213.865 217.933,213.871 217.096,213.359Z" style="fill:rgb(1,108,92);fill-rule:nonzero;"/>
        <path d="M223.699,223.879L225.347,220.412L221.633,221.426L223.699,223.879ZM223.07,225.215L220.196,221.807L218.718,222.189C218.512,222.244 218.368,222.307 218.283,222.377C218.123,222.514 218.113,222.729 218.258,223.027L218.081,223.176L215.992,220.695L216.167,220.547C216.321,220.668 216.465,220.738 216.603,220.752C216.742,220.768 216.959,220.734 217.254,220.654L225.34,218.557C225.597,218.492 225.781,218.412 225.891,218.318C226.06,218.178 226.091,217.969 225.986,217.695L226.162,217.547L228.402,220.207L228.226,220.356C227.982,220.189 227.782,220.174 227.629,220.303C227.522,220.393 227.431,220.529 227.354,220.713L223.981,228.439C223.837,228.766 223.759,229.014 223.748,229.182C223.735,229.348 223.778,229.52 223.879,229.699L223.703,229.848L221.376,227.088L221.553,226.939C221.798,227.147 222.014,227.172 222.2,227.016C222.277,226.951 222.36,226.818 222.448,226.619L223.07,225.215Z" style="fill:rgb(1,108,92);fill-rule:nonzero;"/>
        <path d="M239.593,232.643L237.16,233.529L237.092,233.309C237.129,233.275 237.155,233.25 237.175,233.229C237.287,233.111 237.305,232.887 237.229,232.561C237.012,231.545 236.484,230.645 235.644,229.859C235.272,229.512 234.904,229.254 234.535,229.08C234.264,228.955 233.999,228.904 233.74,228.924C233.481,228.945 233.275,229.037 233.122,229.203C232.871,229.471 232.862,229.807 233.095,230.207C233.218,230.414 233.528,230.805 234.031,231.375L234.775,232.231C235.217,232.74 235.545,233.182 235.763,233.557C235.981,233.93 236.13,234.309 236.21,234.693C236.289,235.086 236.265,235.486 236.143,235.897C236.019,236.305 235.81,236.668 235.511,236.986C235.041,237.49 234.46,237.785 233.769,237.873C233.143,237.955 232.438,237.791 231.66,237.385C231.076,237.082 230.521,236.684 229.993,236.189C229.044,235.303 228.32,234.201 227.822,232.883C227.712,232.609 227.636,232.455 227.599,232.418C227.553,232.375 227.445,232.346 227.276,232.332L227.197,232.111L229.617,231.08L229.699,231.295C229.671,231.326 229.65,231.35 229.637,231.363C229.489,231.522 229.428,231.736 229.455,232.01C229.493,232.426 229.681,232.93 230.02,233.522C230.357,234.113 230.74,234.607 231.167,235.006C231.633,235.441 232.102,235.734 232.579,235.885C232.841,235.967 233.096,235.986 233.34,235.943C233.584,235.9 233.779,235.801 233.926,235.643C234.148,235.406 234.178,235.115 234.018,234.775C233.906,234.539 233.604,234.139 233.118,233.572L232.387,232.732C231.897,232.17 231.565,231.758 231.389,231.498C231.213,231.238 231.064,230.947 230.945,230.627C230.774,230.172 230.744,229.701 230.857,229.217C230.958,228.779 231.181,228.375 231.524,228.008C232.09,227.402 232.766,227.096 233.553,227.09C234.585,227.078 235.648,227.582 236.74,228.604C237.198,229.031 237.581,229.477 237.891,229.939C238.199,230.402 238.531,231.035 238.89,231.838C239.016,232.107 239.103,232.264 239.149,232.307C239.221,232.375 239.346,232.414 239.519,232.426L239.593,232.643Z" style="fill:rgb(1,108,92);fill-rule:nonzero;"/>
        <path d="M241.962,240.481L240.368,242.643L245.443,246.387C245.559,246.473 245.667,246.512 245.769,246.502C245.87,246.494 245.991,246.436 246.132,246.324L246.316,246.461L244.812,248.502L244.626,248.365C244.69,248.199 244.712,248.064 244.689,247.965C244.667,247.867 244.6,247.773 244.483,247.688L237.315,242.4L237.453,242.215C237.62,242.279 237.751,242.299 237.852,242.277C237.952,242.256 238.045,242.186 238.134,242.066L243.058,235.389C243.146,235.27 243.188,235.158 243.178,235.057C243.17,234.957 243.11,234.834 243,234.693L243.138,234.508L250.167,239.695C250.282,239.781 250.391,239.818 250.493,239.809C250.595,239.799 250.715,239.74 250.855,239.633L251.041,239.768L249.535,241.809L249.35,241.672C249.413,241.506 249.432,241.373 249.413,241.273C249.391,241.174 249.322,241.08 249.207,240.996L244.27,237.354L242.888,239.227L246.091,241.59C246.206,241.674 246.315,241.713 246.416,241.705C246.518,241.695 246.638,241.637 246.78,241.527L246.965,241.662L245.493,243.656L245.308,243.52C245.369,243.357 245.39,243.225 245.369,243.123C245.348,243.022 245.281,242.93 245.165,242.844L241.962,240.481Z" style="fill:rgb(1,108,92);fill-rule:nonzero;"/>
        <path d="M254.51,247.033L257.782,248.879C258.278,249.158 258.667,249.281 258.943,249.246C259.26,249.203 259.517,249.008 259.713,248.656C259.915,248.299 259.956,247.984 259.833,247.713C259.711,247.443 259.4,247.168 258.906,246.889L255.632,245.043L254.51,247.033ZM252.403,250.768L255.568,252.553C256.156,252.885 256.626,253.043 256.976,253.025C257.379,253.006 257.699,252.783 257.939,252.357C258.177,251.936 258.202,251.545 258.015,251.188C257.853,250.881 257.474,250.561 256.881,250.227L253.716,248.439L252.403,250.768ZM259.475,250.717C260.23,251.621 260.329,252.563 259.777,253.543C259.337,254.322 258.713,254.777 257.905,254.902C257.496,254.965 257.078,254.939 256.65,254.824C256.22,254.713 255.731,254.502 255.181,254.191L249.344,250.897L249.457,250.697C249.63,250.74 249.766,250.744 249.861,250.711C249.958,250.678 250.042,250.596 250.114,250.467L254.191,243.24C254.266,243.111 254.292,242.996 254.27,242.897C254.249,242.797 254.175,242.684 254.049,242.559L254.162,242.357L259.941,245.619C260.497,245.932 260.92,246.225 261.211,246.5C261.502,246.773 261.719,247.082 261.859,247.426C262.14,248.107 262.071,248.82 261.65,249.568C261.18,250.402 260.454,250.785 259.475,250.717Z" style="fill:rgb(1,108,92);fill-rule:nonzero;"/>
        <path d="M270.195,257.004L270.055,253.168L267.23,255.783L270.195,257.004ZM270.254,258.481L266.133,256.783L264.998,257.809C264.84,257.951 264.741,258.074 264.699,258.175C264.618,258.369 264.711,258.567 264.977,258.765L264.889,258.975L261.89,257.742L261.978,257.529C262.169,257.567 262.328,257.561 262.457,257.511C262.588,257.459 262.766,257.33 262.99,257.123L269.192,251.527C269.391,251.348 269.518,251.193 269.572,251.061C269.656,250.857 269.587,250.658 269.367,250.463L269.455,250.252L272.668,251.574L272.582,251.787C272.289,251.754 272.105,251.832 272.029,252.018C271.976,252.147 271.957,252.309 271.975,252.508L272.553,260.918C272.576,261.275 272.621,261.529 272.688,261.684C272.754,261.839 272.873,261.972 273.044,262.084L272.957,262.296L269.619,260.922L269.707,260.711C270.019,260.781 270.222,260.705 270.315,260.479C270.354,260.387 270.365,260.231 270.352,260.012L270.254,258.481Z" style="fill:rgb(1,108,92);fill-rule:nonzero;"/>
        <path d="M280.061,262.756L285.868,264.369C286.012,264.41 286.129,264.408 286.22,264.363C286.313,264.32 286.404,264.221 286.496,264.068L286.717,264.129L286.039,266.572L285.816,266.51C285.816,266.332 285.79,266.199 285.734,266.115C285.678,266.029 285.578,265.967 285.435,265.928L277.123,263.617L277.185,263.397C277.363,263.397 277.496,263.369 277.58,263.313C277.666,263.258 277.729,263.156 277.768,263.014L279.987,255.02C280.028,254.877 280.026,254.76 279.983,254.668C279.938,254.576 279.839,254.484 279.686,254.391L279.748,254.17L282.696,254.99L282.635,255.211C282.457,255.205 282.326,255.234 282.239,255.291C282.154,255.35 282.092,255.449 282.052,255.592L280.061,262.756Z" style="fill:rgb(1,108,92);fill-rule:nonzero;"/>
        <path d="M293.435,265.871L299.384,266.826C299.53,266.85 299.646,266.834 299.733,266.779C299.82,266.727 299.9,266.617 299.976,266.455L300.202,266.492L299.801,268.996L299.574,268.959C299.554,268.781 299.513,268.654 299.445,268.574C299.381,268.496 299.274,268.445 299.128,268.422L290.609,267.055L290.646,266.828C290.823,266.809 290.953,266.766 291.029,266.701C291.109,266.637 291.16,266.529 291.184,266.383L292.497,258.192C292.522,258.046 292.506,257.93 292.45,257.843C292.397,257.757 292.29,257.676 292.127,257.602L292.163,257.373L295.185,257.86L295.148,258.086C294.97,258.102 294.843,258.143 294.763,258.209C294.687,258.278 294.633,258.386 294.61,258.531L293.435,265.871Z" style="fill:rgb(1,108,92);fill-rule:nonzero;"/>
        <path d="M315.116,260.809C314.753,260.813 314.435,260.904 314.164,261.086C313.816,261.313 313.646,261.64 313.65,262.063C313.652,262.418 313.796,262.709 314.078,262.939C314.36,263.17 314.715,263.283 315.141,263.279C315.51,263.275 315.831,263.184 316.102,263.004C316.448,262.77 316.62,262.449 316.616,262.047C316.613,261.676 316.474,261.378 316.198,261.15C315.922,260.925 315.563,260.809 315.116,260.809ZM314.645,264.506C314.107,264.51 313.644,264.67 313.256,264.986C312.87,265.301 312.681,265.693 312.685,266.164C312.688,266.656 312.883,267.059 313.268,267.371C313.652,267.684 314.14,267.836 314.734,267.83C315.348,267.826 315.867,267.666 316.296,267.356C316.724,267.049 316.936,266.688 316.932,266.272C316.929,266.076 316.86,265.859 316.727,265.623C316.594,265.389 316.426,265.191 316.223,265.035C315.777,264.682 315.252,264.504 314.645,264.506ZM321.219,262.515L321.246,265.236L321.016,265.24C320.985,265 320.911,264.881 320.797,264.883C320.691,264.883 320.534,264.953 320.324,265.096C320.115,265.236 319.934,265.397 319.777,265.576C319.497,265.889 319.303,266.229 319.197,266.594C319.497,266.893 319.756,267.104 319.977,267.229C320.195,267.354 320.421,267.416 320.649,267.414C320.86,267.41 320.987,267.295 321.034,267.064L321.263,267.061L321.286,269.324C321.152,269.297 320.729,269.266 320.022,269.229C319.747,269.213 319.408,269.09 319.002,268.859C318.595,268.629 318.242,268.359 317.948,268.049C316.984,269.008 315.835,269.494 314.5,269.506C313.456,269.518 312.587,269.277 311.891,268.785C311.105,268.232 310.708,267.498 310.699,266.578C310.686,265.346 311.405,264.367 312.854,263.639C312.201,263.082 311.873,262.468 311.865,261.797C311.856,261.016 312.226,260.391 312.968,259.925C313.571,259.55 314.269,259.357 315.052,259.35C315.933,259.343 316.705,259.555 317.371,259.988C318.022,260.412 318.352,261.008 318.359,261.775C318.365,262.201 318.272,262.563 318.086,262.861C317.899,263.162 317.564,263.484 317.079,263.834C317.583,264.15 317.973,264.602 318.254,265.188C318.704,264.389 319.148,263.791 319.583,263.397C320.021,263.002 320.564,262.707 321.219,262.515Z" style="fill:rgb(1,108,92);fill-rule:nonzero;"/>
        <path d="M340.206,257.589L339.475,260.071L339.255,259.994C339.25,259.947 339.245,259.908 339.24,259.882C339.211,259.722 339.044,259.574 338.736,259.442C337.789,259.012 336.751,258.9 335.622,259.111C335.123,259.203 334.692,259.347 334.336,259.539C334.074,259.686 333.875,259.867 333.739,260.089C333.603,260.307 333.554,260.528 333.596,260.748C333.661,261.111 333.925,261.317 334.388,261.367C334.627,261.393 335.123,261.371 335.882,261.309L337.012,261.219C337.686,261.168 338.235,261.164 338.666,261.214C339.095,261.258 339.488,261.363 339.846,261.525C340.208,261.699 340.516,261.955 340.773,262.297C341.03,262.64 341.196,263.023 341.275,263.451C341.4,264.131 341.294,264.772 340.952,265.381C340.646,265.934 340.097,266.402 339.306,266.787C338.718,267.076 338.066,267.287 337.354,267.418C336.079,267.654 334.762,267.58 333.405,267.197C333.121,267.125 332.952,267.092 332.898,267.102C332.837,267.113 332.751,267.184 332.639,267.311L332.414,267.242L333.021,264.684L333.243,264.744C333.253,264.787 333.258,264.816 333.262,264.836C333.3,265.047 333.438,265.225 333.674,265.367C334.03,265.582 334.547,265.731 335.225,265.811C335.9,265.889 336.528,265.877 337.101,265.77C337.727,265.654 338.243,265.449 338.646,265.156C338.87,264.994 339.037,264.801 339.146,264.578C339.256,264.357 339.292,264.141 339.252,263.928C339.192,263.609 338.979,263.412 338.61,263.34C338.354,263.289 337.851,263.293 337.106,263.35L335.998,263.438C335.255,263.496 334.725,263.52 334.412,263.508C334.097,263.494 333.775,263.441 333.446,263.346C332.978,263.213 332.582,262.957 332.26,262.578C331.967,262.238 331.775,261.821 331.685,261.324C331.534,260.508 331.69,259.783 332.151,259.147C332.755,258.311 333.792,257.754 335.263,257.482C335.88,257.369 336.464,257.324 337.021,257.352C337.575,257.379 338.282,257.486 339.142,257.675C339.433,257.735 339.611,257.757 339.671,257.744C339.771,257.727 339.875,257.65 339.988,257.518L340.206,257.589Z" style="fill:rgb(1,108,92);fill-rule:nonzero;"/>
        <path d="M349.384,255.684C348.492,255.967 347.833,256.465 347.404,257.182C346.897,258.029 346.805,258.959 347.124,259.973C347.443,260.986 348.055,261.693 348.956,262.094C349.718,262.438 350.549,262.465 351.45,262.18C352.35,261.897 353.013,261.397 353.434,260.68C353.687,260.257 353.834,259.785 353.879,259.268C353.914,258.811 353.863,258.365 353.728,257.932C353.394,256.873 352.777,256.152 351.882,255.768C351.118,255.436 350.286,255.408 349.384,255.684ZM348.873,254.098C350.505,253.582 351.937,253.615 353.17,254.193C354.471,254.797 355.355,255.83 355.814,257.291C356.098,258.186 356.12,259.098 355.881,260.028C355.413,261.844 354.102,263.09 351.944,263.772C350.328,264.283 348.902,264.25 347.668,263.67C347.008,263.359 346.441,262.918 345.97,262.347C345.553,261.839 345.242,261.266 345.041,260.628C344.745,259.692 344.715,258.761 344.95,257.83C345.398,256.057 346.708,254.813 348.873,254.098Z" style="fill:rgb(1,108,92);fill-rule:nonzero;"/>
        <path d="M362.617,255.014L364.087,258.229C364.148,258.363 364.229,258.451 364.324,258.494C364.42,258.537 364.554,258.543 364.723,258.512L364.819,258.723L362.037,259.996L361.942,259.787C362.078,259.671 362.161,259.564 362.19,259.468C362.219,259.369 362.203,259.254 362.142,259.119L358.688,251.574C358.627,251.439 358.548,251.352 358.457,251.309C358.363,251.266 358.229,251.26 358.052,251.289L357.957,251.078L365.848,247.469C365.977,247.408 366.063,247.332 366.105,247.24C366.148,247.148 366.154,247.014 366.125,246.834L366.333,246.738L367.39,249.045L367.182,249.141C367.063,249 366.958,248.918 366.86,248.889C366.764,248.861 366.649,248.877 366.52,248.938L360.993,251.467L361.968,253.596L365.58,251.941C365.716,251.881 365.804,251.803 365.845,251.709C365.886,251.615 365.893,251.481 365.866,251.307L366.074,251.211L367.106,253.465L366.897,253.561C366.782,253.424 366.676,253.342 366.577,253.313C366.48,253.283 366.362,253.299 366.229,253.359L362.617,255.014Z" style="fill:rgb(1,108,92);fill-rule:nonzero;"/>
        <path d="M374.998,244.141L378.823,250.516C378.898,250.643 378.986,250.723 379.084,250.752C379.18,250.785 379.313,250.775 379.487,250.729L379.605,250.926L376.98,252.5L376.862,252.303C376.985,252.172 377.056,252.059 377.074,251.959C377.093,251.857 377.063,251.744 376.987,251.617L373.163,245.24L370.551,246.807C370.428,246.881 370.35,246.967 370.316,247.063C370.285,247.158 370.295,247.293 370.344,247.469L370.147,247.586L368.843,245.412L369.039,245.293C369.175,245.416 369.291,245.486 369.388,245.504C369.486,245.523 369.595,245.494 369.72,245.42L376.774,241.191C376.899,241.115 376.98,241.027 377.013,240.932C377.043,240.836 377.035,240.699 376.986,240.527L377.185,240.408L378.487,242.584L378.291,242.701C378.159,242.574 378.044,242.504 377.946,242.486C377.846,242.471 377.733,242.5 377.605,242.578L374.998,244.141Z" style="fill:rgb(1,108,92);fill-rule:nonzero;"/>
        <path d="M387.273,243.813L390.153,241.596C390.688,241.184 391.017,240.814 391.137,240.484C391.275,240.106 391.197,239.723 390.898,239.336C390.603,238.953 390.255,238.777 389.85,238.811C389.505,238.84 389.063,239.063 388.524,239.477L385.644,241.693L387.273,243.813ZM384.658,240.414L387.635,238.121C388.086,237.775 388.351,237.465 388.427,237.195C388.511,236.889 388.43,236.576 388.186,236.258C387.934,235.932 387.659,235.772 387.364,235.779C387.066,235.787 386.694,235.965 386.241,236.313L383.264,238.604L384.658,240.414ZM389.989,237.281C391.115,236.939 392.022,237.215 392.709,238.106C393.255,238.816 393.429,239.568 393.229,240.361C393.125,240.762 392.94,241.137 392.668,241.486C392.396,241.838 392.01,242.205 391.51,242.592L386.198,246.68L386.059,246.498C386.165,246.354 386.223,246.231 386.229,246.129C386.235,246.029 386.193,245.918 386.103,245.801L381.043,239.227C380.951,239.107 380.856,239.039 380.756,239.02C380.657,238.998 380.522,239.023 380.357,239.09L380.218,238.908L385.478,234.859C385.982,234.471 386.419,234.197 386.783,234.037C387.15,233.875 387.52,233.797 387.89,233.801C388.628,233.809 389.256,234.152 389.778,234.83C390.364,235.59 390.432,236.406 389.989,237.281Z" style="fill:rgb(1,108,92);fill-rule:nonzero;"/>
        <path d="M399.979,229.869L396.396,228.496L397.694,232.119L399.979,229.869ZM401.36,230.395L398.185,233.522L398.683,234.969C398.752,235.168 398.826,235.307 398.902,235.387C399.051,235.535 399.267,235.527 399.552,235.361L399.713,235.525L397.402,237.801L397.24,237.637C397.351,237.475 397.408,237.324 397.412,237.186C397.416,237.047 397.369,236.834 397.266,236.545L394.548,228.647C394.463,228.393 394.368,228.217 394.268,228.115C394.113,227.957 393.903,227.941 393.639,228.068L393.477,227.904L395.954,225.465L396.115,225.629C395.971,225.887 395.97,226.086 396.11,226.229C396.208,226.328 396.352,226.408 396.539,226.471L404.504,229.234C404.842,229.354 405.094,229.412 405.262,229.412C405.43,229.41 405.599,229.354 405.77,229.24L405.931,229.404L403.357,231.936L403.196,231.773C403.386,231.512 403.396,231.295 403.223,231.121C403.153,231.049 403.015,230.979 402.808,230.904L401.36,230.395Z" style="fill:rgb(1,108,92);fill-rule:nonzero;"/>
        <path d="M409.149,223.047L412.914,218.342C413.008,218.227 413.052,218.117 413.047,218.016C413.043,217.914 412.988,217.789 412.883,217.645L413.027,217.465L415.007,219.049L414.864,219.229C414.698,219.158 414.565,219.133 414.467,219.15C414.366,219.168 414.27,219.236 414.177,219.352L408.786,226.088L408.607,225.945C408.679,225.779 408.704,225.647 408.687,225.547C408.668,225.447 408.604,225.352 408.485,225.258L402.007,220.074C401.891,219.982 401.782,219.938 401.68,219.941C401.578,219.945 401.455,220.002 401.31,220.106L401.13,219.963L403.043,217.572L403.223,217.717C403.147,217.877 403.121,218.01 403.141,218.111C403.16,218.213 403.229,218.311 403.345,218.402L409.149,223.047Z" style="fill:rgb(1,108,92);fill-rule:nonzero;"/>
        <path d="M417.26,211.986L420.473,206.889C420.553,206.764 420.584,206.65 420.568,206.551C420.553,206.449 420.484,206.332 420.363,206.201L420.486,206.006L422.632,207.357L422.508,207.553C422.337,207.502 422.204,207.49 422.104,207.52C422.008,207.547 421.919,207.625 421.841,207.75L417.239,215.049L417.045,214.928C417.097,214.756 417.108,214.621 417.079,214.523C417.051,214.426 416.973,214.336 416.847,214.258L409.827,209.834C409.702,209.754 409.589,209.723 409.489,209.738C409.388,209.754 409.272,209.822 409.139,209.941L408.944,209.82L410.576,207.232L410.771,207.354C410.715,207.523 410.703,207.656 410.733,207.756C410.766,207.854 410.844,207.943 410.97,208.022L417.26,211.986Z" style="fill:rgb(1,108,92);fill-rule:nonzero;"/>
        <path d="M215.583,89.363C215.595,90.224 215.23,91.365 214.5,92.753L212.312,96.916L201.942,91.464L204.132,87.301C204.688,86.24 205.244,85.439 205.785,84.922C206.297,84.432 206.908,84.095 207.602,83.921C208.882,83.603 210.384,83.892 212.069,84.777C214.408,86.006 215.558,87.506 215.583,89.363ZM214.502,80.146C212.792,79.247 211.106,78.767 209.494,78.717L209.166,78.711C207.221,78.711 205.466,79.331 203.949,80.554C202.854,81.448 201.739,82.967 200.633,85.07L195.474,94.885L196.651,95.504L196.913,95.226C197.153,94.971 197.285,94.929 197.343,94.919C197.383,94.919 197.474,94.932 197.625,95.012L211.838,102.482C212.032,102.585 212.082,102.668 212.091,102.691C212.104,102.724 212.138,102.856 212.065,103.191L211.984,103.565L213.161,104.183L218.321,94.368C219.156,92.778 219.71,91.375 219.968,90.195C220.234,88.981 220.236,87.782 219.975,86.633C219.361,83.914 217.52,81.732 214.502,80.146Z" style="fill:rgb(245,241,161);fill-rule:nonzero;"/>
        <path d="M246.644,55.304C245.292,56.325 243.865,56.784 242.384,56.661C240.612,56.52 239.188,55.706 238.031,54.171C236.872,52.638 236.478,51.046 236.827,49.303C237.121,47.83 237.921,46.617 239.272,45.597C240.513,44.68 241.817,44.215 243.147,44.215C243.282,44.215 243.417,44.219 243.555,44.229C245.299,44.341 246.738,45.178 247.953,46.784C248.441,47.432 248.795,48.161 249.006,48.951C249.24,49.837 249.273,50.725 249.104,51.588C248.817,53.056 248.013,54.271 246.644,55.304ZM252.146,43.659C250.28,41.186 247.865,39.794 244.968,39.523C242.225,39.256 239.45,40.162 236.711,42.23C233.094,45.033 231.434,48.327 231.775,52.022C231.957,53.953 232.655,55.734 233.851,57.318C234.669,58.401 235.66,59.297 236.796,59.981C238.087,60.757 239.49,61.223 240.962,61.366C241.284,61.397 241.604,61.413 241.925,61.413C244.346,61.413 246.787,60.497 249.182,58.688C252.808,55.951 254.474,52.647 254.136,48.867C253.965,46.932 253.295,45.18 252.146,43.659Z" style="fill:rgb(245,241,161);fill-rule:nonzero;"/>
        <path d="M302.661,35.108C302.322,35.085 302.202,35.014 302.18,34.998C302.125,34.956 302.076,34.849 302.046,34.708L298.791,18.958C298.763,18.814 298.765,18.696 298.797,18.639C298.809,18.618 298.885,18.503 299.197,18.343L299.538,18.169L299.269,16.867L292.484,18.269L292.756,19.581L293.147,19.597C293.484,19.61 293.593,19.683 293.612,19.698C293.672,19.744 293.722,19.851 293.751,19.996L294.887,25.495L285.156,27.506L284.02,22.008C283.988,21.861 283.992,21.743 284.026,21.678C284.038,21.658 284.108,21.549 284.415,21.401L284.769,21.231L284.496,19.919L277.713,21.321L277.982,22.624L278.363,22.649C278.713,22.672 278.828,22.747 278.848,22.762C278.902,22.803 278.948,22.905 278.979,23.05L282.233,38.803C282.262,38.944 282.261,39.06 282.227,39.118C282.215,39.139 282.14,39.253 281.827,39.414L281.487,39.588L281.757,40.89L288.539,39.488L288.271,38.179L287.882,38.161C287.568,38.145 287.448,38.08 287.414,38.054C287.354,38.009 287.304,37.903 287.273,37.76L285.993,31.554L295.725,29.542L297.006,35.75C297.026,35.85 297.042,35.989 296.99,36.077C296.975,36.106 296.899,36.213 296.607,36.358L296.261,36.528L296.525,37.838L303.312,36.436L303.042,35.134L302.661,35.108Z" style="fill:rgb(245,241,161);fill-rule:nonzero;"/>
        <path d="M345.976,28.545C345.611,28.512 344.973,28.389 344.078,28.178L338.343,26.824L339.255,22.958L344.99,24.312C345.905,24.528 346.535,24.701 346.863,24.829C347.158,24.941 347.425,25.106 347.662,25.323C347.952,25.581 348.309,26.043 348.063,27.078C347.818,28.114 347.295,28.367 346.922,28.468C346.622,28.549 346.301,28.575 345.976,28.545ZM351.872,22.933C351.312,22.336 350.601,21.839 349.757,21.456C348.939,21.086 347.8,20.729 346.373,20.392L334.328,17.548L334.023,18.843L334.358,19.027C334.658,19.192 334.736,19.305 334.748,19.328C334.78,19.391 334.779,19.513 334.742,19.664L331.054,35.303C331.02,35.445 330.969,35.549 330.91,35.59C330.891,35.604 330.777,35.674 330.426,35.688L330.044,35.704L329.739,36.997L336.482,38.588L336.786,37.286L336.442,37.105C336.167,36.961 336.085,36.849 336.065,36.813C336.02,36.727 336.038,36.588 336.063,36.487L337.394,30.847L341.577,31.834L343.938,37.907C344.15,38.464 344.227,38.744 344.254,38.877C344.223,38.881 344.184,38.884 344.132,38.884L343.569,38.846L343.254,40.187L350.905,41.992L351.23,40.611L350.779,40.474C350.468,40.379 350.235,40.219 350.067,39.982C349.861,39.695 349.551,39.039 349.144,38.035L347.053,32.812L347.14,32.812C350.356,32.812 352.346,31.289 353.056,28.284C353.277,27.333 353.309,26.388 353.146,25.47C352.967,24.491 352.538,23.637 351.872,22.933Z" style="fill:rgb(245,241,161);fill-rule:nonzero;"/>
        <path d="M400.326,48.007C400.052,48.21 399.914,48.234 399.872,48.237C399.803,48.237 399.704,48.191 399.596,48.105L385.827,37.452L385.015,38.503L385.243,38.809C385.447,39.083 385.471,39.217 385.473,39.252C385.475,39.276 385.469,39.37 385.331,39.548L375.503,52.249C375.367,52.425 375.276,52.454 375.206,52.463C375.146,52.463 375.01,52.448 374.767,52.348L374.414,52.204L373.597,53.253L387.63,64.113C387.745,64.202 387.817,64.292 387.832,64.355C387.836,64.379 387.853,64.517 387.72,64.844L387.578,65.195L388.624,66.011L392.244,61.333L391.193,60.519L390.887,60.748C390.605,60.958 390.472,60.976 390.439,60.978C390.369,60.978 390.271,60.93 390.159,60.844L380.904,53.681L383.471,50.364L389.165,54.771C389.245,54.833 389.343,54.924 389.359,55.011C389.366,55.048 389.378,55.19 389.252,55.502L389.11,55.855L390.16,56.665L393.711,52.078L392.66,51.265L392.354,51.493C392.071,51.704 391.938,51.721 391.903,51.723C391.863,51.723 391.774,51.706 391.627,51.589L385.932,47.183L388.074,44.415L397.064,51.375C397.18,51.463 397.251,51.55 397.264,51.622C397.271,51.655 397.281,51.788 397.154,52.105L397.013,52.457L398.062,53.271L401.682,48.595L400.632,47.782L400.326,48.007Z" style="fill:rgb(245,241,161);fill-rule:nonzero;"/>
        <path d="M431.068,89.869L429.89,90.483L429.971,90.858C430.041,91.191 430.007,91.321 429.994,91.355C429.97,91.418 429.883,91.492 429.754,91.559L420.876,96.194L425.284,83.058C425.396,82.727 425.501,82.664 425.563,82.641C425.581,82.641 425.646,82.666 425.751,82.781L426.012,83.071L427.196,82.453L423.746,75.844L422.568,76.458L422.647,76.832C422.72,77.177 422.681,77.307 422.673,77.328C422.647,77.392 422.56,77.467 422.431,77.534L408.186,84.973C408.032,85.052 407.931,85.061 407.868,85.06C407.844,85.054 407.712,85.012 407.473,84.756L407.211,84.477L406.034,85.093L409.079,90.924L410.258,90.309L410.177,89.935C410.103,89.591 410.144,89.463 410.152,89.44C410.177,89.376 410.27,89.299 410.407,89.228L419.535,84.462L415.11,97.798C414.906,98.429 414.779,98.576 414.778,98.576C414.771,98.578 414.737,98.576 414.628,98.446L414.369,98.133L413.169,98.759L416.401,104.949L417.583,104.334L417.501,103.959C417.427,103.617 417.467,103.487 417.475,103.464C417.488,103.434 417.535,103.353 417.729,103.252L431.975,95.814C432.108,95.744 432.188,95.727 432.28,95.733C432.314,95.741 432.44,95.787 432.673,96.037L432.934,96.316L434.115,95.702L431.068,89.869Z" style="fill:rgb(245,241,161);fill-rule:nonzero;"/>
        <path d="M287.287,76.527L287.287,109.014C282.854,109.178 278.423,109.383 273.993,109.629C275.077,109.113 276.16,108.599 277.244,108.087L277.244,78.665C275.422,78.204 273.599,77.75 271.775,77.303C270.874,77.344 269.973,77.387 269.072,77.432L269.072,109.918C264.645,110.194 260.221,110.509 255.798,110.866C256.88,110.322 257.962,109.781 259.045,109.243L259.045,78.125C256.323,78.332 253.603,78.554 250.883,78.792L250.883,118.397C257.19,117.847 263.504,117.378 269.82,116.991C270.932,116.702 272.045,116.415 273.158,116.13C274.224,116.285 275.289,116.443 276.354,116.603C280.272,116.405 284.192,116.238 288.113,116.103C290.564,115.481 293.016,114.87 295.467,114.272L295.467,77.965C293.643,77.458 291.817,76.958 289.993,76.466C289.092,76.485 288.189,76.505 287.287,76.527Z" style="fill:rgb(205,31,65);fill-rule:nonzero;"/>
        <path d="M302.788,115.722C305.535,115.678 308.285,115.65 311.033,115.638L311.033,76.032C308.285,76.045 305.535,76.073 302.788,76.117L302.788,115.722Z" style="fill:rgb(205,31,65);fill-rule:nonzero;"/>
        <path d="M344.829,103.579C344.001,103.544 343.172,103.511 342.343,103.479C340.443,103.911 338.544,104.35 336.644,104.797L336.644,108.851C332.214,108.716 327.783,108.621 323.352,108.566C324.437,108.155 325.521,107.747 326.607,107.34L326.607,76.127C323.879,76.082 321.149,76.051 318.42,76.036L318.42,115.641C327.226,115.69 336.03,115.898 344.829,116.266L344.829,103.579Z" style="fill:rgb(205,31,65);fill-rule:nonzero;"/>
        <path d="M369.716,85.239L369.716,110.613C366.352,110.357 362.986,110.125 359.619,109.916L359.619,85.941C358.535,85.407 357.451,84.875 356.366,84.346C360.817,84.603 365.269,84.901 369.716,85.239ZM377.88,116.796L377.88,80.39C375.46,79.652 373.04,78.926 370.62,78.212C363.148,77.629 355.67,77.161 348.189,76.809C349.274,79.282 350.361,81.757 351.448,84.235L351.448,116.573C357.816,116.897 364.181,117.304 370.541,117.795C372.988,117.45 375.435,117.117 377.88,116.796Z" style="fill:rgb(205,31,65);fill-rule:nonzero;"/>
        <path d="M437.249,144.981L437.249,156.461C432.222,159.869 427.189,163.33 422.15,166.846L422.15,144.543C420.516,143.639 418.88,142.74 417.245,141.848C423.924,142.799 430.592,143.844 437.249,144.981ZM409.82,130.04L409.82,190.137C413.934,190.68 418.045,191.258 422.15,191.871L422.15,181.279C427.189,177.768 432.222,174.305 437.249,170.897L437.249,194.289C441.345,194.988 445.437,195.723 449.523,196.492L449.523,170.141C448.004,168.598 446.483,167.057 444.961,165.522C446.483,164.568 448.004,163.617 449.523,162.67L449.523,138.81C445.89,137.33 442.253,135.876 438.611,134.452C429.037,132.788 419.438,131.318 409.82,130.04Z" style="fill:rgb(205,31,65);fill-rule:nonzero;"/>
        <path d="M257.889,136.749L257.889,148.231C252.821,152.891 247.756,157.604 242.696,162.369L242.696,139.92C241.05,139.472 239.405,139.029 237.76,138.593C244.462,137.885 251.173,137.271 257.889,136.749ZM230.325,128.626L230.325,188.723C234.446,188.246 238.569,187.803 242.696,187.395L242.696,176.805C247.756,172.039 252.821,167.326 257.889,162.664L257.889,186.057C262.021,185.736 266.157,185.449 270.294,185.199L270.294,158.848C268.756,157.684 267.217,156.523 265.68,155.367C267.217,154.033 268.756,152.701 270.294,151.377L270.294,127.516C266.615,126.943 262.938,126.398 259.26,125.881C249.603,126.604 239.956,127.518 230.325,128.626Z" style="fill:rgb(205,31,65);fill-rule:nonzero;"/>
        <path d="M360.379,185.318C373.723,186.162 387.049,187.373 400.342,188.949L400.342,169.699C399.093,169.553 397.84,169.406 396.589,169.266C393.719,169.705 390.848,170.162 387.976,170.637L387.976,176.801C382.915,176.289 377.853,175.83 372.784,175.422L372.784,161.514C376.557,161.818 380.328,162.15 384.096,162.512C388.457,159.332 392.813,156.193 397.169,153.096C389.052,152.166 380.923,151.377 372.784,150.725L372.784,138.882C371.139,138.09 369.49,137.303 367.844,136.522C374.56,137.015 381.272,137.602 387.976,138.282L387.976,142.059C390.741,143.15 393.505,144.256 396.268,145.379C397.627,145.549 398.984,145.723 400.342,145.9L400.342,128.852C387.049,127.274 373.723,126.064 360.379,125.222L360.379,185.318Z" style="fill:rgb(205,31,65);fill-rule:nonzero;"/>
        <path d="M141.107,180.041C144.483,179.217 147.863,178.416 151.247,177.641C155.738,173.014 160.236,168.43 164.741,163.889C156.842,165.543 148.962,167.332 141.107,169.252L141.107,157.402C139.493,157.139 137.88,156.881 136.269,156.629C142.845,154.973 149.44,153.41 156.05,151.941L156.05,155.723C158.845,155.912 161.643,156.117 164.442,156.342C165.752,156.082 167.062,155.824 168.373,155.572C168.335,149.897 168.297,144.223 168.26,138.548C155.103,141.237 142.001,144.293 128.97,147.717L128.97,207.814C133.009,206.754 137.055,205.727 141.107,204.736L141.107,180.041Z" style="fill:rgb(205,31,65);fill-rule:nonzero;"/>
        <path d="M206.73,142.543L206.73,156.365C201.69,157.115 196.657,157.922 191.63,158.779L191.63,147.236C190,146.756 188.37,146.279 186.74,145.809C193.392,144.627 200.056,143.539 206.73,142.543ZM191.63,169.57C196.657,168.711 201.69,167.908 206.73,167.154L206.73,191.85C210.875,191.232 215.024,190.65 219.176,190.104L219.176,132.419C215.477,132.109 211.78,131.828 208.086,131.575C202.218,132.431 196.356,133.359 190.505,134.36C186.785,135.001 183.068,135.67 179.355,136.369L179.355,196.467C183.442,195.697 187.534,194.963 191.63,194.264L191.63,169.57Z" style="fill:rgb(205,31,65);fill-rule:nonzero;"/>
        <path d="M495.771,163.678C497.105,164.037 498.438,164.398 499.771,164.764L499.771,147.744C496.181,146.801 492.585,145.887 488.983,144.998C483.194,143.563 477.394,142.199 471.58,140.907C467.881,140.895 464.178,140.913 460.468,140.96L460.468,167.551C469.55,172.682 478.605,177.99 487.629,183.473L487.629,193.949C482.658,192.734 477.678,191.57 472.688,190.463L472.688,186.514C469.964,185.098 467.237,183.695 464.508,182.311C463.161,182.014 461.815,181.719 460.468,181.428L460.468,198.615C464.097,199.356 467.719,200.125 471.338,200.924C477.191,202.223 483.033,203.594 488.861,205.039C492.504,205.127 496.14,205.246 499.771,205.393L499.771,178.727C490.774,173.086 481.745,167.619 472.688,162.328L472.688,154.061C471.069,152.996 469.449,151.934 467.827,150.877C474.443,152.301 481.045,153.818 487.629,155.428L487.629,159.205C490.347,160.68 493.061,162.17 495.771,163.678Z" style="fill:rgb(205,31,65);fill-rule:nonzero;"/>
        <path d="M320.506,124.075C318.87,124.388 317.233,124.707 315.597,125.03C313.906,124.694 312.215,124.363 310.523,124.038C301.013,124.088 291.502,124.325 281.996,124.747L281.996,184.322C285.958,184.147 289.922,184.004 293.886,183.893L293.886,136.968C292.235,136.22 290.586,135.478 288.937,134.742C295.839,134.501 302.746,134.358 309.653,134.314L309.653,183.621C310.825,183.611 311.998,183.607 313.17,183.606C315.964,182.766 318.756,181.939 321.55,181.133L321.55,136.427C319.9,135.712 318.252,135.005 316.604,134.302C323.508,134.323 330.413,134.442 337.314,134.66L337.314,183.965C338.532,184.004 339.749,184.045 340.965,184.09C343.713,183.354 346.459,182.633 349.205,181.928L349.205,127.226C345.565,126.263 341.925,125.328 338.283,124.42C332.359,124.233 326.434,124.118 320.506,124.075Z" style="fill:rgb(205,31,65);fill-rule:nonzero;"/>
        <path d="M334.383,56.228L336.756,65.567L348.266,60.938L340.113,68.922L362.802,71.296L340.113,73.671L349.212,88.008L336.756,77.024L334.383,103.443L331.793,74.12L328.651,73.671L273.939,71.296L328.651,68.922L307.554,55.525L332.008,65.567L334.383,56.228Z" style="fill:white;fill-rule:nonzero;"/>
    </g>
</svg>
