<svg viewBox="0 0 2491 1320" xmlns="http://www.w3.org/2000/svg" xml:space="preserve" style="fill-rule: evenodd; clip-rule: evenodd; stroke-linejoin: round; stroke-miterlimit: 2;"><path d="M589.287 194.865c-.407-.134-.814-.267-1.22-.404a753.016 753.016 0 0 0-49.824-14.546c.011-.005-4.198 3.515-5.249 4.376-.201.655-22.885-6.266-56.81-11.746-33.928-5.727-79.089-10.012-124.253-9.854-45.165-.092-90.326 4.257-124.253 10.037-33.926 5.528-56.61 12.485-56.826 11.835a843.238 843.238 0 0 1-5.036-4.42 750.899 750.899 0 0 0-51.035 15.017c-7.348 7.085-14.804 14.28-22.363 21.588h519.23c-7.561-7.404-15.018-14.699-22.361-21.883Z" style="fill: rgb(26, 67, 131); fill-rule: nonzero;" transform="translate(-220.475 -51.946) scale(4.16667)"></path><path d="m165.333 13.392-.195 8.876 2.676 2.676c.082.082 3.594 3.608 8.313 8.704l-1.608 9.186c-.017.109-.543 3.081-.543 6.873 0 3.812.524 7.125 1.556 9.848.533 1.405 1.403 2.992 2.465 4.675l-7.034 3.723 8.324 4.857-7.865 10.471 12.751.11c.094.042.241.14.448.272l-3.338 1.257 2.951 6.55c.648 1.439 1.577 2.856 2.748 4.245l-4.395 2.186 7.637 6.438-10.259 1.825 9.574 5.715 1.047 5.479c.439 2.283 1.982 4.424 4.38 6.441l-4.932-.571 12.251 13.338c.727.795 7.384 7.901 15.203 10.584 1.314.451 2.74.809 4.188 1.14l-5.368 4.378 16.223 1.628c2.39.245 9.554 1.298 13.948 3.221 3.623 1.584 5.901 3.128 6.948 3.909-9.672 1.309-19.138 2.738-28.043 4.376-23.027 4.055-40.804 8.766-50.355 11.298l-3.988 1.017-5.18-4.912-3.211.754a724.224 724.224 0 0 0-52.061 16.542l-1.324.48-24.89 25.965-31.461 95.986 3.386 2.582c.003.004 15.358 11.416 15.358 11.416l2.558 1.861 2.985-1.07a830.228 830.228 0 0 1 58.195-18.422l1.42-.396s7.613-7.106 9.059-8.453l.918-.168 6.354-1.639c10.872-2.875 30.971-8.184 56.819-12.715 43.63-7.998 95.661-12.484 142.784-12.312 47.185-.116 99.212 4.427 142.761 12.463 25.971 4.586 46.047 9.918 56.832 12.781l6.306 1.637.993.185 9.026 8.436 1.392.406a831.013 831.013 0 0 1 58.24 18.51l2.977 1.07 2.562-1.861 14.441-10.694 2.376-1.789v-2.984c0-.955 0-.955-9.52-30.029l-3.067-9.374c.036.016.4.155.4.155l-2.738-8.383-14.987-45.721-26.254-27.765-2.58-.922a725.496 725.496 0 0 0-50.669-15.987l-3.167-.868-5.51 4.965-4.088-1.035c-9.556-2.515-27.346-7.198-50.379-11.216-13.749-2.509-28.424-4.625-43.599-6.306a41.027 41.027 0 0 1 3.575-1.771c4.403-1.928 11.562-2.979 13.949-3.223l16.23-1.632-5.369-4.374c1.454-.332 2.879-.692 4.19-1.143 7.776-2.67 14.462-9.776 15.199-10.578l12.267-13.341-4.956.573c2.408-2.025 3.953-4.175 4.384-6.461 0 0 .794-4.196 1.033-5.45l9.588-5.726c.001 0-8.862-1.576-10.253-1.825l7.649-6.44-4.404-2.187c1.165-1.384 2.091-2.797 2.742-4.234l2.96-6.56-3.345-1.256c.207-.131.354-.23.445-.271l12.536-.115-7.654-10.466 8.098-4.728-6.849-3.788c1.081-1.707 1.971-3.315 2.511-4.735.949-2.507 1.61-7.018 1.61-10.976 0-5.696-1.291-9.043-4.062-10.531l-1.359-.725a340.727 340.727 0 0 1 5.587-5.789l2.676-2.677-.058-8.485-7.908-1.309-3.161 2.058c-.064.043-4.763 3.144-11.889 8.98l1.603-2.133-.089-9.294-9.143.651-2.86 2.521c-.876.772-8.851 7.902-19.091 20.308-3.33 4.037-6.962 9.434-10.337 14.686l-3.22-2.394-2.565 2.829c-.905 1-5.73 6.454-11.747 15.641-3.218 4.914-6.672 12.128-10.328 19.767-2.392 5.001-4.559 9.479-6.749 13.665-8.933 8.34-17.718 11.895-23.02 9.245-2.197-1.101-5.884-1.912-10.946.501-5.559 2.655-12.248 9.243-14.044 16.356a151.618 151.618 0 0 1-1.12-3.903c-2.489-8.985-5.898-21.293-22.263-21.293-17.552 0-20.799 12.664-23.17 21.912-.961 3.746-1.92 7.366-3.569 10.607-.254-2.568-.586-4.881-1.017-6.841-1.605-7.302-8.514-14.126-14.201-16.838-5.053-2.412-8.742-1.602-10.946-.5-5.039 2.516-13.115-.529-21.67-8.062-2.929-5.298-5.924-11.541-8.579-17.095-3.645-7.626-7.088-14.829-10.295-19.73-6.386-9.757-11.565-15.436-11.783-15.673l-2.559-2.791-3.862 2.877c-3.315-5.097-6.367-9.521-9.213-12.966-10.319-12.507-18.234-19.556-19.101-20.319l-2.854-2.506s-5.259-.929-7.389 1.059c-2.108 1.966-1.086 6.847-1.402 7.141-9.636-8.354-16.33-12.782-16.654-12.994l-3.164-2.072-7.78.925Z" style="fill: rgb(255, 255, 255);" transform="translate(-220.475 -51.946) scale(4.16667)"></path><path d="M351.764 158.962c-41.477-.091-87.262 3.906-125.62 10.965-22.831 4.02-40.534 8.707-50.041 11.227-2.75.726-5.168 1.364-6.272 1.595l-5.214-4.944-1.01.237a721.075 721.075 0 0 0-51.598 16.406l-.393.142-23.554 24.57-30.234 92.245 1.015.775a869.627 869.627 0 0 0 15.282 11.358l.765.556.895-.32a834.023 834.023 0 0 1 58.494-18.518l.425-.119 9.192-8.58c.602-.062 1.244-.193 1.92-.355l6.283-1.621c10.86-2.87 31.078-8.215 57.144-12.784 43.831-8.035 96.135-12.549 143.521-12.377 47.399-.115 99.701 4.452 143.509 12.536 26.077 4.601 46.288 9.966 57.146 12.851l6.284 1.629c.676.162 1.318.291 1.921.357.874.819 9.178 8.579 9.178 8.579l.435.126a834.504 834.504 0 0 1 58.479 18.588l.893.321.768-.559a861.717 861.717 0 0 0 14.372-10.642l.713-.538v-.892c0-.287 0-.287-9.312-28.725 0 0-4.179-12.773-5.812-17.756.084.03.408.155.408.155l-14.695-44.827-24.919-26.352-1.633-.583a720.993 720.993 0 0 0-50.372-15.895l-.95-.26-5.466 4.926c-1.096-.224-3.531-.862-6.301-1.591-9.507-2.502-27.202-7.158-50.033-11.14-38.351-6.996-84.137-10.922-125.613-10.766Z" style="fill: rgb(187, 189, 192); fill-rule: nonzero;" transform="translate(-220.475 -51.946) scale(4.16667)"></path><path d="M589.893 195.376a717.916 717.916 0 0 0-50.243-15.852 797.27 797.27 0 0 1-5.296 4.768c-.199.717-23.074-6.825-57.287-12.795-34.211-6.242-79.755-10.911-125.302-10.739-45.543-.101-91.086 4.638-125.297 10.935-34.212 6.024-57.091 13.605-57.306 12.897-1.042-.974-5.088-4.82-5.077-4.816a715.517 715.517 0 0 0-51.465 16.363c-7.548 7.865-15.21 15.854-22.977 23.969-9.903 30.219-19.808 60.432-29.712 90.642a866.939 866.939 0 0 0 15.248 11.338 831.798 831.798 0 0 1 58.619-18.56c.012-.012 7.512-7.014 9.358-8.735.24.819 26.506-7.876 65.777-14.763 39.273-7.201 91.557-12.59 143.837-12.403 52.28-.127 104.56 5.321 143.826 12.563 39.27 6.932 65.527 15.656 65.768 14.838 1.846 1.722 9.344 8.732 9.354 8.742a834.569 834.569 0 0 1 58.605 18.627 863.414 863.414 0 0 0 14.344-10.619l-16.218-49.533.406.158c-4.462-13.61-8.922-27.226-13.383-40.837-8.243-8.724-16.36-17.304-24.347-25.747-.411-.147-.823-.293-1.232-.441Z" style="fill: rgb(26, 67, 131); fill-rule: nonzero;" transform="translate(-220.475 -51.946) scale(4.16667)"></path><path d="M587.802 197.149a757.566 757.566 0 0 0-47.58-13.891c.012-.003-4.209 3.503-5.263 4.361-.193.667-23.121-6.378-57.414-11.955-34.294-5.832-79.954-10.191-125.616-10.031-45.658-.095-91.318 4.335-125.612 10.219-34.294 5.629-57.226 12.712-57.431 12.047a876.292 876.292 0 0 1-5.049-4.404 755.192 755.192 0 0 0-48.795 14.359c-6.73 6.468-13.546 13.025-20.451 19.679-5.306 15.14-10.615 30.288-15.923 45.426-.003 0 1.398 1.063 1.791 1.358-.816.283-2.586.912-2.586.912-3.851 10.977-7.699 21.955-11.549 32.93a881.077 881.077 0 0 0 13.708 9.476 868.88 868.88 0 0 1 55.085-16.14c.009-.008 7.431-6.444 9.261-8.026.225.76 26.354-7.303 65.43-13.687 39.08-6.676 91.106-11.676 143.131-11.502 52.023-.121 104.047 4.931 143.12 11.648 39.072 6.428 65.196 14.518 65.423 13.758l9.258 8.033a871.19 871.19 0 0 1 55.07 16.199c4.393-2.97 8.662-5.91 12.804-8.818l-15.965-45.594-2.134-2.047c.932.331 2.017.711 2.017.711-3.894-11.105-7.788-22.218-11.682-33.328-7.376-7.203-14.651-14.297-21.821-21.289l-1.227-.404Z" style="fill: rgb(187, 189, 192); fill-rule: nonzero;" transform="translate(-220.475 -51.946) scale(4.16667)"></path><path d="M587.515 199.612a756.414 756.414 0 0 0-45.318-13.232c.012-.003-4.22 3.49-5.279 4.345.084.771-22.954-6.401-57.574-12.094-34.621-5.949-80.817-10.423-127.051-10.278-46.229-.119-92.493 4.383-127.242 10.38-34.747 5.736-57.981 12.963-58.157 12.284a846.621 846.621 0 0 1-5.06-4.39 757.374 757.374 0 0 0-46.54 13.696 23002.72 23002.72 0 0 0-18.106 17.371l-14.891 42.92c-.004 0 2.86 2.174 5.097 3.838a863.457 863.457 0 0 0-7.305 2.525l-9.992 28.791a883.483 883.483 0 0 0 12.287 8.541 866.232 866.232 0 0 1 52.059-15.254c.01-.01 7.418-6.453 9.242-8.033.188.775 26.434-7.385 65.697-13.842 39.266-6.752 91.543-11.797 143.799-11.611 52.257-.108 104.489 5.023 143.665 11.822 39.176 6.504 65.294 14.678 65.325 13.848l9.239 8.043a869.83 869.83 0 0 1 52.046 15.306 846.727 846.727 0 0 0 11.382-7.877c-4.982-14.377-9.963-28.754-14.946-43.129-.001-.001-4.635-4.431-8.011-7.65 1.411.473 6.489 2.236 6.487 2.238-3.375-9.728-6.753-19.464-10.132-29.194a41262.936 41262.936 0 0 0-19.491-18.963l-1.23-.401Z" style="fill: rgb(0, 174, 239); fill-rule: nonzero;" transform="translate(-220.475 -51.946) scale(4.16667)"></path><path d="M605.614 219.12a39193.403 39193.403 0 0 0-17.162-16.648l-2.476-.802a760.211 760.211 0 0 0-41.797-12.162 900.42 900.42 0 0 1-5.292 4.329 765.966 765.966 0 0 0-60.471-12.57c-2.08-.348-4.16-.685-6.237-1.014-.153-.024-.307-.046-.461-.072a769.636 769.636 0 0 0-44.16-5.633 761.931 761.931 0 0 0-37.534-2.759c-.06-.005-.12-.008-.178-.011a764.892 764.892 0 0 0-42.669-.891 767.917 767.917 0 0 0-125.184 11.152 767.446 767.446 0 0 0-57.097 12.098 754.913 754.913 0 0 1-5.078-4.373c-.834.219-1.671.438-2.505.66a761.982 761.982 0 0 0-41.756 12.366c-5.2 4.97-10.454 9.994-15.758 15.074-4.627 13.471-9.252 26.949-13.88 40.422-.05-.012 8.163 6.15 8.493 6.369-2.292.73-12.082 4.058-12.077 4.074l-8.473 24.67a885.9 885.9 0 0 0 10.866 7.588 864.177 864.177 0 0 1 49.053-14.373c3.093-2.696 6.166-5.377 9.223-8.039a856.74 856.74 0 0 1 70.472-14.618 862.292 862.292 0 0 1 53.498-7.056c2.132-.211 4.265-.416 6.399-.613a858.143 858.143 0 0 1 73.172-3.631 859.223 859.223 0 0 1 93.327 4.435 851.405 851.405 0 0 1 36.505 4.526 857.815 857.815 0 0 1 86.121 17.086c-.028-.094-.052-.19-.077-.286 3.197 2.789 6.413 5.598 9.65 8.424a865.743 865.743 0 0 1 49.041 14.424 896.113 896.113 0 0 0 9.957-6.928c-4.651-13.556-9.298-27.111-13.948-40.668-.032-.035-13.536-12.89-13.835-13.173 1.708.543 10.942 3.681 10.936 3.697-2.869-8.362-5.739-16.717-8.608-25.074Z" style="fill: rgb(26, 67, 131); fill-rule: nonzero;" transform="translate(-220.475 -51.946) scale(4.16667)"></path><path d="m134.634 304.231-1.789-.129.994-13.697 1.792.131-.997 13.695Zm9.247-8.65-1.788-.129.971-13.405 1.793.131-.976 13.403Zm418.399.314-1.792-.129.981-13.514 1.792.131-.981 13.512Zm8.89 7.434-1.792-.131.96-13.215 1.791.131-.959 13.215Zm60.315 18.517-1.683.627-5.668-15.203 1.685-.625 5.666 15.201Zm14.267-10.521-1.574.863-7.826-14.211 1.574-.865 7.826 14.213Z" style="fill: rgb(187, 189, 192); fill-rule: nonzero;" transform="translate(-220.475 -51.946) scale(4.16667)"></path><path d="m171.306 19.014-.526 2.965c.193.193 19.572 19.622 29.241 34.162v-.002s2.959 4.456 5.77 8.681c-7.944-6.034-15.528-13.513-22.64-22.416l-3.525-4.417-.974 5.57c-.035.193-.482 2.826-.482 6.15 0 2.644.284 5.724 1.283 8.359.994 2.624 3.093 5.604 4.689 7.659l-4.55 2.407 6.65 3.881c-2.045 1.329-3.257 2.859-3.448 3.112l-3.03 4.034s4.796.041 5.008.044c.03 0 2.759.251 6.212 5.057.318.443.592.999.84 1.573-1.271.119-2.15.409-2.342.481l-2.539.957 1.115 2.477c1.268 2.814 3.858 5.282 6.165 7.047-.128.067-4.05 2.016-4.05 2.016l2.967 2.501c.192.161 3.654 3.047 8.146 5.067a15.44 15.44 0 0 1-2.798.749l-6.721 1.196s6.853 4.092 7.824 4.67c-.552.291-1.336.521-2.451.549l-2.998.081.564 2.946c.644 3.351 5.672 6.206 8.929 7.729.222 1.308.859 2.798 2.309 3.928a64.63 64.63 0 0 0 1.683 1.253c-.028-.002-.055-.002-.084-.005l-6.799-.786 4.63 5.039c.264.29 6.555 7.081 13.475 9.455 1.99.683 4.406 1.183 6.744 1.669 1.664.345 3.911.814 5.36 1.287-.964.784-4.133 3.369-4.133 3.369l6.129.615c.092.009 9.285.957 15.213 3.552 5.843 2.555 8.723 5.127 8.751 5.153l.606.55.822.099 4.187.477.817-.502c.047-.029 1.129-.672 3.281-.537 1.872.118 8.189.403 10.817-.907l.75-.377a7.802 7.802 0 0 0 4.754-.583l.476-.217c1.954-.902 7.147-3.294 9.68-3.144 2.573.15 5.258 1.072 7.122 2.326l-1.085.303 2.178 3.003c.299.393 29.951 39.484 40.957 60.922l2.737 5.331 1.94-5.671c7.241-21.177 40.391-60.076 40.725-60.468l2.698-3.151-4.033-.981c-.162-.039-.323-.094-.485-.135 1.68-.796 3.662-1.367 5.593-1.476 2.526-.153 7.71 2.231 9.663 3.129l.5.229a7.97 7.97 0 0 0 4.752.583l.742.37c2.623 1.315 8.952 1.032 10.828.914 2.147-.135 3.231.508 3.276.537l.745.455.939-.054 4.139-.47.615-.557c.028-.027 2.899-2.596 8.743-5.151 5.931-2.595 15.122-3.543 15.215-3.552l6.131-.616-4.135-3.368c1.448-.473 3.696-.942 5.361-1.287 2.336-.486 4.753-.986 6.745-1.671 6.911-2.372 13.212-9.163 13.475-9.45l4.637-5.042-6.806.786c-.03.003-.056.003-.087.005a59.725 59.725 0 0 0 1.679-1.251c1.454-1.13 2.09-2.621 2.313-3.927 3.257-1.526 8.293-4.381 8.926-7.739l.556-2.939-2.99-.081c-1.115-.028-1.897-.258-2.447-.547.968-.58 7.824-4.672 7.824-4.672l-6.723-1.196a15.618 15.618 0 0 1-2.796-.747c4.492-2.02 7.959-4.908 8.148-5.069l2.972-2.502-4.055-2.015c2.307-1.762 4.892-4.23 6.167-7.046l1.118-2.478-2.545-.957c-.191-.072-1.07-.362-2.342-.482.248-.573.521-1.126.838-1.569 3.455-4.809 6.182-5.06 6.21-5.06h-.112l5.041-.047-2.948-4.03c-.189-.251-1.403-1.784-3.449-3.113.909-.529 6.563-3.832 6.563-3.832l-3.959-2.191s-.372-.195-.501-.265c1.591-2.055 3.691-5.033 4.688-7.656.724-1.913 1.337-5.905 1.337-9.486 0-3.221-.496-6.107-1.853-6.835l-1.87-1-1.325 1.659c-9.151 11.469-18.105 19.283-25.655 24.624l2.853-4.298c9.672-14.547 29.05-33.967 29.244-34.161l-.361-3.419-2.837-.513c-.368.24-9.171 6.051-21.187 17.093-5.778 5.306-12.879 13.816-20.406 22.868 7.887-15.565 23.256-35.941 23.415-36.153l-.323-3.613-3.384.155c-.332.292-8.255 7.259-18.637 19.839-3.738 4.531-7.966 10.94-12.459 18.069-.247-.183.43-2.593-.446-3.246-.892-.662-3.335.434-3.335.434-.207.229-5.15 5.656-11.356 15.131-3.058 4.669-6.457 11.768-10.054 19.281-2.322 4.855-4.723 9.856-7.141 14.443-10.58 10.083-21.131 13.981-28.284 10.408-1.366-.685-3.738-1.147-7.267.534-4.748 2.269-10.651 8.251-11.902 13.958-.837 3.795-1.207 8.418-1.369 12.663-4.391-4.939-6.112-10.955-7.741-16.833-2.48-8.958-5.049-18.218-18.22-18.218-14.295 0-16.743 9.534-19.108 18.758-1.883 7.344-3.832 14.9-11.281 20.161-.062-5.453-.397-11.696-1.463-16.532-1.254-5.711-7.16-11.691-11.91-13.957-3.525-1.681-5.896-1.219-7.264-.534-6.853 3.421-16.623.101-26.844-9.091-3.067-5.471-6.116-11.836-9.066-18.008-3.585-7.501-6.973-14.586-10.02-19.243-6.205-9.479-11.157-14.907-11.365-15.134l-3.277-.048-.787 3.076c.043.073 2.03 3.419 4.56 8.097-5.914-9.511-11.49-18.378-16.273-24.169-10.379-12.58-18.303-19.547-18.636-19.839l-3.067-.004-.641 3.462c.164.217 16.385 21.725 24.051 37.424a1449.078 1449.078 0 0 1-6.161-7.366c-7.683-9.236-14.937-17.96-20.822-23.367-12.019-11.039-20.82-16.85-21.189-17.092l-2.672.967Z" style="fill: rgb(187, 189, 192);" transform="translate(-220.475 -51.946) scale(4.16667)"></path><path d="m73.628 321.934 1.682.627 5.668-15.203-1.684-.623-5.666 15.199Zm-14.267-10.521 1.574.863 7.826-14.211-1.574-.863-7.826 14.211Z" style="fill: rgb(187, 189, 192); fill-rule: nonzero;" transform="translate(-220.475 -51.946) scale(4.16667)"></path><path d="M87.906 273.252a817.298 817.298 0 0 1 19.551-6.314c-1.105 3.519-2.209 7.041-3.316 10.562a852.365 852.365 0 0 1 23.189-6.812c1.996-6.943 3.987-13.889 5.98-20.832a822.274 822.274 0 0 0-32.578 9.799 730.46 730.46 0 0 1-6.582-4.977c3.969-11.816 7.939-23.635 11.91-35.447 3.712-3.529 7.395-7.034 11.057-10.511a766.399 766.399 0 0 1 39.646-11.669 782.224 782.224 0 0 0 7.342 6.225l-4.331 16.469a794.78 794.78 0 0 0-19.285 5.107c.945-3.294 1.891-6.587 2.838-9.88a781.087 781.087 0 0 0-21.55 6.33c-2.049 6.526-4.094 13.05-6.143 19.577a802.237 802.237 0 0 1 32.233-9.246 864.64 864.64 0 0 0 6.948 5.512l-9.208 34.959c-4.012 3.516-8.051 7.059-12.12 10.633a857.765 857.765 0 0 0-43.1 12.627 868.522 868.522 0 0 1-8.011-5.653c1.842-5.486 3.686-10.974 5.53-16.459Zm120.627-12.632a850.589 850.589 0 0 0-58.62 12.244c1.094-4.254 2.188-8.502 3.286-12.752 2.076-.51 4.155-1.014 6.236-1.506 3.951-15.789 7.901-31.585 11.851-47.375a853.599 853.599 0 0 0-6.265 1.517c1.113-4.329 2.233-8.658 3.35-12.986a773.789 773.789 0 0 1 53.594-11.21c-1.284 6.881-2.566 13.765-3.847 20.645a814.111 814.111 0 0 0-16.058 2.938c.547-2.629 1.094-5.259 1.639-7.891a787.16 787.16 0 0 0-16.234 3.321c-1.29 5.627-2.577 11.255-3.868 16.883a806.982 806.982 0 0 1 12.781-2.647c-.904 4.243-1.804 8.489-2.707 12.733a821.34 821.34 0 0 0-13.002 2.693c-1.333 5.826-2.67 11.648-4.002 17.473a828.724 828.724 0 0 1 17.291-3.537c.665-3.2 1.327-6.395 1.992-9.592a861.549 861.549 0 0 1 16.7-3.059c-1.369 7.371-2.746 14.738-4.117 22.108Zm27.943-4.344a850.916 850.916 0 0 0-23.545 3.596l2.249-12.422c1.065-.18 2.13-.356 3.197-.532a2173.563 2173.563 0 0 0 20.822-48.71c-1.211.178-2.42.357-3.633.542l2-12.723a774.8 774.8 0 0 1 24.5-3.316c-.553 4.229-1.104 8.454-1.654 12.682-.939.111-1.876.223-2.815.34a1164.77 1164.77 0 0 0 8.51 44.801c1.073-.114 2.145-.223 3.219-.332l-1.369 12.306a863.506 863.506 0 0 0-24.301 2.803c.584-4.115 1.17-8.234 1.756-12.35a610.65 610.65 0 0 1 4.04-.515 732.99 732.99 0 0 1-.654-3.888 864.636 864.636 0 0 0-12.392 1.661c-.648 1.412-1.298 2.826-1.949 4.237 1.295-.186 2.593-.368 3.89-.547l-1.871 12.367Zm10.731-26.922c-.588-3.549-1.161-7.098-1.719-10.647-1.676 3.846-3.367 7.7-5.077 11.558 2.264-.313 4.53-.617 6.796-.911Zm54.886-8.816-1.183 16.966c2.125-.133 4.252-.259 6.378-.377-.253 4.129-.506 8.252-.757 12.375a859.563 859.563 0 0 0-30.916 2.272l1.402-12.424c2.121-.194 4.245-.381 6.366-.559l4.283-46.162c-1.996.168-3.987.342-5.979.524l1.279-12.639a775.983 775.983 0 0 1 27.915-2.047c-.256 4.201-.512 8.404-.772 12.606-1.998.109-3.992.224-5.988.35-.371 5.349-.744 10.7-1.118 16.048a797.155 797.155 0 0 1 15.452-.821c.26-5.345.517-10.685.776-16.028-2.043.089-4.085.184-6.126.289.24-4.2.477-8.4.719-12.6a783.26 783.26 0 0 1 27.961-.931c-.071 4.197-.142 8.392-.211 12.587-1.953.03-3.907.065-5.86.108-.244 9.634-.485 19.269-.726 28.904l-.428 17.088c2.078-.047 4.157-.086 6.238-.117-.07 4.125-.138 8.24-.21 12.357-10.274.156-20.549.5-30.817 1.024.236-4.122.472-8.247.705-12.374 2.177-.113 4.352-.213 6.527-.31.274-5.647.546-11.296.821-16.945-5.246.228-10.491.507-15.731.836Zm69.746 27.871a850.73 850.73 0 0 0-23.749-.182c.031-4.078.06-8.158.088-12.242 1.077-.008 2.152-.013 3.228-.014a1492.37 1492.37 0 0 0 12.795-46.021 560.896 560.896 0 0 0-3.666-.042l-.224-12.585a777.16 777.16 0 0 1 24.663.612c.192 4.198.381 8.396.57 12.593-.941-.038-1.882-.074-2.824-.11a1555.806 1555.806 0 0 0 16.729 46.811c1.074.059 2.15.12 3.224.183l.8 12.264a864.791 864.791 0 0 0-24.405-1.084l-.41-12.247c1.354.042 2.71.085 4.062.132-.459-1.35-.915-2.699-1.367-4.049a850.634 850.634 0 0 0-12.473-.32c-.414 1.326-.835 2.652-1.252 3.978 1.306.024 2.612.046 3.92.076l.291 12.247Zm6.225-25.569a1496.109 1496.109 0 0 1-3.682-11.08 1310.203 1310.203 0 0 1-3.159 10.903c2.282.048 4.56.107 6.841.177Zm56.688 29.25a880.657 880.657 0 0 0-16.153-1.39 2399.31 2399.31 0 0 1-15.191-59.129 853.581 853.581 0 0 0-5.122-.308c-.266-4.239-.534-8.479-.804-12.718a770.591 770.591 0 0 1 25.34 1.861c.422 4.251.844 8.502 1.268 12.751a1024.83 1024.83 0 0 0-4.177-.363 3367.624 3367.624 0 0 0 7.302 33.857 1175.78 1175.78 0 0 0 5.773-27.238c3.628.361 7.256.75 10.879 1.161a1788.623 1788.623 0 0 0 13.202 28.757c.014-10.837-.041-21.68-.167-32.528a752.018 752.018 0 0 0-5.402-.695c-.586-4.269-1.173-8.538-1.761-12.805a765.2 765.2 0 0 1 24.383 3.45l2.206 12.869c-1.626-.257-3.251-.507-4.878-.756-.048 19.152-.37 38.285-.967 57.406a842.373 842.373 0 0 0-16.102-2.072 1917.8 1917.8 0 0 1-13.614-33.295 1244.909 1244.909 0 0 1-6.015 31.185Zm78.423-45.864c-.948-4.291-1.894-8.583-2.843-12.874a771.184 771.184 0 0 1 26.155 5.89l3.315 12.977c-1.432-.347-2.867-.693-4.301-1.034a609.134 609.134 0 0 1-13.085 16.663 3075.01 3075.01 0 0 0 24.482 30.602c1.674.396 3.348.798 5.022 1.207l3.257 12.742a844.468 844.468 0 0 0-28.827-6.488c-.93-4.213-1.858-8.426-2.789-12.639 1.618.334 3.233.674 4.851 1.019a2478.78 2478.78 0 0 1-12.986-17.321 714.944 714.944 0 0 1-3.187 4.087c.721 3.457 1.448 6.918 2.172 10.373 2.099.41 4.196.83 6.292 1.254l2.746 12.633a844.344 844.344 0 0 0-30.476-5.625c-.789-4.184-1.575-8.371-2.363-12.555 2.157.356 4.31.723 6.462 1.094l-8.769-46.738c-2.021-.35-4.042-.694-6.067-1.03-.763-4.256-1.526-8.512-2.293-12.769a777.046 777.046 0 0 1 27.755 5.118c.931 4.288 1.864 8.575 2.796 12.862-1.97-.398-3.94-.792-5.91-1.176 1.01 4.825 2.021 9.649 3.03 14.477a687.194 687.194 0 0 0 9.906-11.837 988.709 988.709 0 0 0-4.345-.912Zm43.265 48.636a819.644 819.644 0 0 1 19.785 5.234c.999 3.492 2.001 6.983 3.001 10.475a832.78 832.78 0 0 1 23.192 6.801c-2.195-7.004-4.391-14.008-6.583-21.01a821.562 821.562 0 0 0-32.676-9.358c-3.859-3.453-7.689-6.881-11.489-10.287-3.034-11.539-6.069-23.078-9.101-34.617a832.85 832.85 0 0 0 6.606-5.326 769.318 769.318 0 0 1 39.655 11.612c4.132 3.983 8.297 7.997 12.496 12.048 1.889 5.622 3.779 11.242 5.667 16.865a789.674 789.674 0 0 0-19.058-6.154c-1.043-3.32-2.082-6.641-3.122-9.964a788.62 788.62 0 0 0-21.552-6.319l5.56 19.401a810.55 810.55 0 0 1 32.143 9.657c3.83 3.625 7.692 7.278 11.577 10.953 4.001 11.928 8.002 23.852 12.006 35.778a958.096 958.096 0 0 1-7.098 4.988 858.687 858.687 0 0 0-43.09-12.672c-4.602-4.049-9.166-8.056-13.693-12.029l-4.226-16.076Z" style="fill: rgb(255, 255, 255); fill-rule: nonzero;" transform="translate(-220.475 -51.946) scale(4.16667)"></path><path d="m117.853 209.976-10.561 10.04-11.474 34.147 5.187 3.921a827.81 827.81 0 0 1 31.925-9.593l2.442-.68-6.899 24.03-.763.212a852.835 852.835 0 0 0-23.15 6.802l-2.58.797 3.31-10.543a816.481 816.481 0 0 0-16.267 5.267l-4.968 14.786 6.581 4.643a863.952 863.952 0 0 1 42.159-12.347l11.552-10.134 8.862-33.644-5.66-4.489a802.74 802.74 0 0 0-31.496 9.042l-2.579.799 7.173-22.865.711-.219a785.779 785.779 0 0 1 21.589-6.341l2.442-.679-2.844 9.897a787.486 787.486 0 0 1 16.07-4.244l3.892-14.802-6.087-5.16a767.987 767.987 0 0 0-38.567 11.357Zm51.676-9.032-2.546 9.871 6.251-1.515-.573 2.275-12.059 48.208-6.243 1.507-2.488 9.655a855.862 855.862 0 0 1 55.447-11.545c.288-1.546 3.028-16.255 3.561-19.123l-13.735 2.516-1.989 9.572-20.347 4.162.477-2.144 4.206-18.359s11.401-2.361 12.987-2.691c.237-1.12 1.555-7.316 2.063-9.704l-12.807 2.652.482-2.151 4.072-17.771 19.251-3.939-.453 2.111-1.21 5.831 13.027-2.384 3.292-17.664a776.197 776.197 0 0 0-50.666 10.63Zm69.274-13.663-1.537 9.783 4.201-.627-.958 2.312a2182.322 2182.322 0 0 1-20.836 48.742l-.309.7-2.967.493-1.715 9.473a857.671 857.671 0 0 1 20.55-3.132l1.429-9.448-4.573.642 1.082-2.358 2.273-4.942 14.536-1.949.218 1.357.896 5.334-1.466.191-2.964.379-1.344 9.448a874.766 874.766 0 0 1 21.355-2.458l1.049-9.43-2.737.283-.266-1.248a1172.154 1172.154 0 0 1-8.52-44.856l-.249-1.466 3.197-.386 1.275-9.769a778.357 778.357 0 0 0-21.62 2.932Zm.312 42.41 7.005-15.946.768 4.742 1.949 12.072-1.448.2-9.285 1.245 1.011-2.313Zm76.051-50.018-.557 9.747 6.117-.288-.08 1.558-.838 17.308-18.316.973.097-1.598 1.204-17.291 5.978-.351.598-9.746a772.738 772.738 0 0 0-25.112 1.845l-.988 9.761 5.969-.522-.161 1.691-4.392 47.34-6.39.561c-.2 1.777-1.01 8.957-1.079 9.558a863.63 863.63 0 0 1 27.977-2.051c.117-1.935.576-9.439.582-9.532-1.79.107-6.386.378-6.386.378l.107-1.608 1.271-18.217 18.562-.986-.089 1.567-.883 18.231-6.539.312-.543 9.536a869.4 869.4 0 0 1 27.92-.926l.162-9.529-6.246.117.032-1.479 1.189-47.35 5.847-.106.164-9.743c-8.361.145-16.81.425-25.177.84Zm46.761 8.833 4.107.047-.462 1.754a1497.952 1497.952 0 0 1-12.807 46.066l-.299 1.011-2.881.012-.067 9.409c6.95-.031 13.949.033 20.869.171l-.223-9.424-4.457-.083 2.141-6.803 1.059.025 13.482.346.308.941 2.019 5.979-2.045-.064-2.546-.082.316 9.424c7.153.227 14.37.55 21.515.955-.135-2.074-.539-8.272-.616-9.435l-2.89-.163-.328-.865a1564.068 1564.068 0 0 1-16.744-46.854l-.662-1.951 3.343.13-.441-9.743a776.56 776.56 0 0 0-21.864-.544l.173 9.741Zm16.093 35.751-8.663-.225.507-1.77 4.424-15.269 1.441 4.326 4.315 12.985-2.024-.047Zm21.602-34.334 4.921.296.242 1.017a2412.116 2412.116 0 0 0 14.93 58.137l13.896 1.197a1257.695 1257.695 0 0 0 5.762-29.916l.877-4.883 1.834 4.609a1909.897 1909.897 0 0 0 13.293 32.519l13.727 1.766c.563-18.514.882-37.275.929-55.803l.004-1.65s3.153.49 4.561.707l-1.7-9.916a768.407 768.407 0 0 0-21.502-3.049c.336 2.438 1.15 8.367 1.36 9.886l5.553.715.01 1.232c.112 9.674.169 19.529.169 29.342 0 1.069 0 2.136-.002 3.203l-2.7.601a1798.908 1798.908 0 0 1-12.875-28.036l-8.794-.939c-1.749 8.712-3.6 17.454-5.519 26.003l-2.766-.004-7.711-35.748 1.911.173 2.479.215-.982-9.875a770.489 770.489 0 0 0-22.53-1.657c.137 2.179.511 8.11.623 9.858Zm83.833 9.31 6.064 1.028.177.97 9.143 48.736-6.46-1.093 1.805 9.591a852.781 852.781 0 0 1 27.423 5.051c-.58-2.67-1.814-8.34-2.092-9.624l-6.294-1.254-.198-.917-2.307-11.018 4.73-6.063 1.118 1.485 15.235 20.323-3.683-.771-2.698-.566 2.121 9.606a853.373 853.373 0 0 1 25.686 5.769c-.354-1.389-2.13-8.334-2.467-9.651l-4.654-1.119-.308-.374a3089.022 3089.022 0 0 1-24.493-30.616l-.704-.891.717-.881a610.655 610.655 0 0 0 13.055-16.624l.559-.74 2.917.701-2.52-9.866a775.358 775.358 0 0 0-23.135-5.221l2.17 9.823 5.765 1.21-1.509 1.799-11.803 14.101-.589-2.872-3.469-16.575 5.892 1.172-2.138-9.836a776.692 776.692 0 0 0-24.814-4.586l1.758 9.793Zm60.718 3.394 8.76 33.318 10.923 9.781a827.916 827.916 0 0 1 32.396 9.281l.712.22 7.613 24.295-2.577-.796a840.418 840.418 0 0 0-23.153-6.79l-.764-.212-3-10.47a832.077 832.077 0 0 0-16.659-4.417l3.502 13.322 13.126 11.531a862.37 862.37 0 0 1 42.151 12.391l5.665-3.982-11.559-34.439-11.08-10.485a815.659 815.659 0 0 0-31.788-9.547l-.764-.212-6.475-22.597 2.438.678a791.594 791.594 0 0 1 21.591 6.33l.712.219 3.125 9.976a795.135 795.135 0 0 1 15.686 5.065l-4.662-13.873-12.003-11.573a771.115 771.115 0 0 0-38.591-11.307l-5.325 4.293Z" style="fill: rgb(167, 169, 172); fill-rule: nonzero;" transform="translate(-220.475 -51.946) scale(4.16667)"></path><path d="m193.634 250.845-21.57 4.413.667-2.998 4.289-18.718 12.98-2.689 1.806-8.492-12.817 2.653.674-3.008 4.153-18.13 20.458-4.185-.633 2.959-1.039 5.002 11.816-2.161 3.067-16.463-1.21.216a775.73 775.73 0 0 0-47.789 10.056l-.494.121-2.224 8.62 6.246-1.513-.804 3.185-12.142 48.54-6.245 1.507-2.172 8.428 1.375-.33a857.462 857.462 0 0 1 52.224-10.839l.582-.102 3.339-17.934-12.55 2.3-1.987 9.562Zm276.171-64.43a772.74 772.74 0 0 0-18.641-2.652l-1.104-.143 1.198 8.712 5.614.724.013 1.726.169 29.352-.002 3.655-3.587.796-.193-.411a1820.954 1820.954 0 0 1-12.542-27.302l-.2-.446-7.966-.849-.153.759a1175.223 1175.223 0 0 1-5.26 24.749l-.1.444-3.677-.007-7.97-36.946 2.68.242 1.795.154-.867-8.719-.703-.061c-6.45-.56-13.093-1.05-19.742-1.455l-.961-.059.061.96.488 7.749 4.842.291.339 1.427a2415.49 2415.49 0 0 0 14.674 57.164l.156.574 12.984 1.118.151-.742a1254.492 1254.492 0 0 0 5.514-28.666l1.228-6.836 2.568 6.453a1910.882 1910.882 0 0 0 12.976 31.756l.19.453 12.769 1.643.028-.938c.548-18.482.847-36.725.892-54.224l.005-2.309 4.436.688-1.498-8.732-.604-.092Zm-324.791 45.511a806.82 806.82 0 0 0-30.793 8.848l-3.612 1.119 7.587-24.179.995-.308a784.706 784.706 0 0 1 21.603-6.345l3.419-.95-2.847 9.91 14.784-3.904 3.718-14.136-5.579-4.732-.431.116a768.91 768.91 0 0 0-37.531 11.057l-.184.06-10.359 9.849-11.298 33.626 4.633 3.502.421-.134a827.32 827.32 0 0 1 31.238-9.38l3.418-.951-7.265 25.308-1.07.297a852.531 852.531 0 0 0-23.134 6.798l-3.611 1.115 3.304-10.526-14.95 4.842-4.743 14.113 6.014 4.244.404-.129a863.525 863.525 0 0 1 41.176-12.054l.193-.051 11.329-9.94 8.723-33.117-5.14-4.077-.412.109Zm117.151 7.018a1175.495 1175.495 0 0 1-8.524-44.879l-.348-2.052 3.351-.406 1.121-8.596-1.09.135c-6.461.8-12.773 1.657-18.759 2.549l-.619.092-1.352 8.602 4.429-.661-1.341 3.238a2179.493 2179.493 0 0 1-20.842 48.753l-.432.981-2.876.478-1.499 8.285 19.342-2.941.103-.621 1.158-7.657-4.846.68 1.514-3.3 2.404-5.225 15.392-2.064.305 1.902.994 5.909-2.049.269c.11-.008-.676.085-.676.085l-1.862.238-1.178 8.282 20.166-2.316.085-.675.846-7.602-2.544.263-.373-1.746Zm-16.699-9.623-10.285 1.379.404-.922 1.011-2.317 7.777-17.702 1.074 6.637 2.042 12.645-2.023.28Zm363.35 24.653-10.878-10.294-.184-.059a814.39 814.39 0 0 0-31.465-9.447l-1.069-.297-6.842-23.876 3.415.95a789.133 789.133 0 0 1 22.602 6.641l3.127 9.982 14.337 4.629-4.26-12.676-11.802-11.38-.188-.061a771.283 771.283 0 0 0-37.57-11.012l-.417-.111-.335.271-4.471 3.604 8.622 32.797 10.7 9.582.197.053a830.1 830.1 0 0 1 32.084 9.195l.998.308 8.024 25.609c-1.516-.467-3.608-1.114-3.608-1.114a842.555 842.555 0 0 0-23.137-6.786l-1.07-.297-2.999-10.465-15.408-4.085 3.211 12.211 12.904 11.337.193.051a862.906 862.906 0 0 1 41.169 12.098l.402.129 5.098-3.583-11.38-33.904Zm-294.35-75.787-.763.037-.493 8.6 6.115-.287-.113 2.182-.863 17.818-19.462 1.035.136-2.235 1.24-17.793 5.973-.35.527-8.595-.958.057c-7.53.446-15.043.999-22.331 1.643l-.7.062-.872 8.605 5.965-.521-.226 2.369-4.434 47.809-6.401.562-.949 8.419 1.035-.091a870.338 870.338 0 0 1 25.012-1.829l.753-.044.512-8.399-6.388.377.149-2.249 1.306-18.719 19.695-1.047-.126 2.2-.907 18.74-6.543.311-.478 8.409.942-.045a866.982 866.982 0 0 1 24.997-.827l.82-.016.144-8.404-6.248.117.044-2.068 1.203-47.896 5.844-.106.143-8.597-.882.016a786.65 786.65 0 0 0-22.418.75Zm84.341 59.106-2.757-.156-.459-1.209a1561.874 1561.874 0 0 1-16.749-46.873l-.927-2.731 3.55.137-.389-8.597-.783-.03a774.88 774.88 0 0 0-19.084-.476l-.876-.011.014.877.137 7.722 4.283.049-.647 2.457a1499.28 1499.28 0 0 1-12.811 46.081l-.419 1.417-2.742.01-.059 8.268 19.708.166-.011-.878-.176-7.408-4.672-.086 2.497-7.932 1.484.034 13.884.356.433 1.322 2.279 6.745-4.802-.149.277 8.285 20.349.901-.052-.946-.48-7.345Zm-22.805-14.469-9.391-.244.708-2.474 4.931-17.021 2.017 6.054 4.569 13.751c-.386-.01-2.834-.066-2.834-.066Zm167.785 35.399-.429-.52a3116.26 3116.26 0 0 1-24.499-30.625l-.986-1.249 1.003-1.233a607.386 607.386 0 0 0 13.042-16.608l.784-1.035 2.362.567-2.2-8.617-.498-.12a774.437 774.437 0 0 0-20.136-4.556l-1.292-.275 1.898 8.595 6.332 1.329-2.116 2.524-12.556 15.002-.826-4.024-3.643-17.412 5.885 1.171-1.874-8.621-.546-.11a773.402 773.402 0 0 0-21.898-4.055l-1.194-.204.214 1.192 1.328 7.402 6.064 1.028.247 1.36 9.293 49.533-6.46-1.093 1.584 8.41.584.099a858.84 858.84 0 0 1 24.347 4.474l1.272.253-1.832-8.429-6.296-1.254-.277-1.281-2.361-11.28c.398-.51 4.311-5.523 5.348-6.854l1.562 2.078 16.138 21.525-6.992-1.463 1.852 8.397.538.112a857.868 857.868 0 0 1 22.525 5.048l1.368.325-2.153-8.422-4.506-1.084Z" style="fill: rgb(255, 255, 255); fill-rule: nonzero;" transform="translate(-220.475 -51.946) scale(4.16667)"></path><path d="M467.1 75.424c.895-1.342 3.231-4.856 9.369-14.099 9.929-14.935 29.567-34.556 29.567-34.556s-8.862 5.813-20.863 16.84c-8.812 8.091-21.008 24.089-32.926 37.713l-.127.031 7.772-16.16c7.777-16.149 24.537-38.284 24.537-38.284s-7.982 6.979-18.348 19.541c-8.822 10.686-20.671 32.468-32.12 48.805.498-1.433 1.113-3.167 1.86-5.31 4.12-11.673 13.933-28.139 13.933-28.139s-4.937 5.398-11.104 14.807c-4.959 7.569-11.027 22.122-17.267 33.899-10.133 9.764-22.249 15.728-31.481 11.115-4.34-2.171-14.083 6.101-15.545 12.76-1.147 5.209-1.432 12.208-1.432 17.768-18.041-12.996-7.75-38.155-28.384-38.155-23.862 0-8.95 29.018-32.923 40.831.078-5.821-.076-14.359-1.417-20.444-1.464-6.659-11.204-14.931-15.546-12.76-8.783 4.387-20.183-.813-30.001-9.744-6.916-12.242-13.735-29.132-19.202-37.482-6.161-9.413-11.109-14.804-11.109-14.804s9.817 16.459 13.93 28.135c1.443 4.096 2.372 6.731 2.979 8.458-11.647-16.424-23.779-38.846-32.775-49.74-10.364-12.562-18.346-19.541-18.346-19.541s16.751 22.135 24.531 38.284l7.78 16.16s-.095-.021-.13-.031c-13.678-14.636-28.578-34.854-38.867-44.306-12.008-11.026-20.863-16.84-20.863-16.84s19.634 19.626 29.564 34.553l9.92 14.934 3.285 4.586c-9.389-5.343-21.629-14.525-34.189-30.253 0 0-1.365 7.8.673 13.169 1.528 4.031 6.249 9.355 6.249 9.355l-3.252 1.722s1.978 1.057 3.366 1.97c1.249.821 2.648 2.54 2.648 2.54-3.718.844-6.014 3.903-6.014 3.903s3.766-.081 8.222 6.119c1.526 2.121 2.266 5.546 2.266 5.546h-2.457c-1.473 0-2.483.38-2.483.38 2.004 4.443 8.356 8.202 8.955 8.399l-4.55 2.264s5.724 4.823 11.728 6.114c0 0-1.121 3.011-7.578 4.159l4.383 2.615s-.8 3.697-6.108 3.841c.577 3.009 8.911 6.531 8.911 6.531s-.407 2.195 1.389 3.593c1.8 1.393 3.988 2.993 5.381 3.191 0 0-1.915 3.03-5.639 2.599 0 0 6.039 6.576 12.423 8.765 6.379 2.19 18.694 2.606 13.53 6.818 0 0 9.597.96 15.978 3.751 6.385 2.792 9.447 5.604 9.447 5.604l3.319.378s1.643-1.152 4.834-.95c3.19.202 7.927.151 9.523-.645l1.597-.802s1.793.802 3.989-.197c2.19-1 7.975-3.787 11.365-3.584 3.385.196 7.578 1.592 9.975 3.988.432.432.845.8 1.243 1.124l-2.033-.01c.285.511 28.62 51.409 39.138 79.323l2.616 6.945 1.851-7.388c6.919-27.573 41.495-78.462 41.495-78.462l-5.683-.028a46.856 46.856 0 0 1-1.582-.574c.348-.297.683-.564 1.052-.93 2.397-2.396 6.581-3.792 9.975-3.988 3.384-.203 9.169 2.584 11.365 3.584 2.191.999 3.989.197 3.989.197l1.594.802c1.589.796 6.33.847 9.523.645 3.188-.202 4.833.95 4.833.95l3.323-.378s3.053-2.812 9.44-5.604c6.382-2.791 15.98-3.751 15.98-3.751-5.166-4.212 7.151-4.628 13.531-6.818 6.379-2.189 12.426-8.765 12.426-8.765-3.727.431-5.647-2.599-5.647-2.599 1.398-.198 3.585-1.798 5.386-3.191 1.794-1.398 1.391-3.593 1.391-3.593s8.335-3.522 8.905-6.531c-5.308-.144-6.109-3.841-6.109-3.841l4.386-2.615c-6.454-1.148-7.575-4.159-7.575-4.159 5.999-1.291 11.733-6.114 11.733-6.114l-4.56-2.264c.604-.197 6.954-3.956 8.961-8.399 0 0-1.007-.38-2.484-.38h-2.457s.736-3.425 2.266-5.546c4.453-6.2 8.219-6.119 8.219-6.119s-2.293-3.059-6.013-3.903c0 0 1.397-1.719 2.645-2.54 1.393-.913 3.368-1.97 3.368-1.97l-3.248-1.722s4.715-5.324 6.246-9.355c2.036-5.369.663-13.169.663-13.169-13.507 16.929-26.664 26.292-36.284 31.428Z" style="fill: rgb(26, 67, 131); fill-rule: nonzero;" transform="translate(-220.475 -51.946) scale(4.16667)"></path><path d="M351.333 180.504c.737-4.476 1.686-7.69.526-18.587-1.113-10.536-7.002-15.758-7.396-16.095-.391.337-6.276 5.559-7.397 16.095-1.162 10.897-.209 14.111.523 18.587.738 4.481 3.696 13.885 4.112 17.225.933 7.46 2.784 12.134 2.784 12.134s1.643-4.165 2.738-12.134c.455-3.336 3.374-12.744 4.11-17.225Zm4.395-31.098c.133.565.324 1.345.967 3.119.629 1.763 1.904 4.494 1.904 4.494s.963-1.411 1.393-4.176c.296-1.91-.037-4.115-.897-5.573-1.206-2.066-4.11-3.349-3.367 2.136Zm-22.959 0c-.137.565-.326 1.345-.966 3.119-.632 1.763-1.909 4.494-1.909 4.494s-.956-1.411-1.387-4.176c-.295-1.91.036-4.115.893-5.573 1.213-2.066 4.112-3.349 3.369 2.136Zm-54.037-17.591s4.344 1.057 6.906.728c0 0 2.58 8.466-6.168 15.204-8.75 6.737-24.092 4.733-35.276-5.019-11.181-9.752-15.95-20.411-17.148-31.075-1.154-10.18 3.273-19.935 5.131-22.235 0 0 2.535 4.207 5.993 9.4 0 0-3.536 12.171 2.298 24.551 4.729 10.036 12.19 17.249 24.805 17.827 12.623.566 13.459-9.381 13.459-9.381Zm123.832 0s-4.343 1.057-6.904.728c0 0-2.582 8.466 6.162 15.204 8.756 6.737 24.098 4.733 35.281-5.019 11.178-9.752 15.952-20.411 17.149-31.075 1.142-10.18-3.273-19.935-5.135-22.235 0 0-2.535 4.207-5.991 9.4 0 0 3.533 12.171-2.291 24.551-4.737 10.036-12.193 17.249-24.814 17.827-12.623.566-13.457-9.381-13.457-9.381Z" style="fill: rgb(255, 255, 255);" transform="translate(-220.475 -51.946) scale(4.16667)"></path><path d="M251.73 111.682c-2.174 2.179-.957 6.924 2.721 10.606 3.675 3.673 8.417 4.886 10.593 2.712.034-.033.055-.062.083-.093l-13.303-13.305c-.032.031-.066.053-.094.08Zm175.429.643c2.176 2.176.958 6.923-2.72 10.6-3.673 3.676-8.421 4.891-10.599 2.712-.027-.024-.054-.058-.083-.087l13.303-13.304c.034.026.067.052.099.079Zm-102.968 74.278c6.715 13.763 14.049 29.614 18.158 41.093l2.208 6.164 1.564-6.557c2.972-12.461 11.987-30.279 20.127-44.779-8.881 12.115-18.19 26.267-21.707 36.553-4.698-9.151-12.666-21.36-20.35-32.474Z" style="fill: rgb(255, 255, 255); fill-rule: nonzero;" transform="translate(-220.475 -51.946) scale(4.16667)"></path></svg>