<?xml version="1.0" encoding="UTF-8" standalone="no"?>
<!DOCTYPE svg PUBLIC "-//W3C//DTD SVG 1.1//EN" "http://www.w3.org/Graphics/SVG/1.1/DTD/svg11.dtd">
<svg width="100%" height="100%" viewBox="0 0 800 600" version="1.1" xmlns="http://www.w3.org/2000/svg" xmlns:xlink="http://www.w3.org/1999/xlink" xml:space="preserve" xmlns:serif="http://www.serif.com/" style="fill-rule:evenodd;clip-rule:evenodd;stroke-linejoin:round;stroke-miterlimit:2;">
    <g id="path3056" transform="matrix(88.2013,0,0,88.2013,-242.384,4.88261)">
        <path d="M8.969,6.681C9.211,6.631 9.419,6.521 9.611,6.341C9.841,6.125 9.964,5.929 10.267,5.288C10.362,5.088 10.474,4.865 10.516,4.793L10.593,4.662L10.733,4.615C10.811,4.59 11.016,4.535 11.189,4.494C11.363,4.453 11.507,4.417 11.51,4.414C11.514,4.411 11.524,4.262 11.534,4.083C11.56,3.579 11.521,3.044 11.426,2.641C11.177,1.582 10.561,0.888 9.46,0.427C9.153,0.298 9.06,0.269 8.894,0.251C8.701,0.229 8.654,0.209 8.563,0.111C8.48,0.021 8.431,0 8.303,0C8.215,-0 8.059,0.025 8.04,0.042C8.033,0.048 8.023,0.09 8.018,0.135L8.009,0.216L7.831,0.226C7.013,0.271 6.408,0.426 5.966,0.701C5.532,0.972 5.273,1.302 5.05,1.867C4.978,2.049 4.949,2.137 4.752,2.765C4.701,2.926 4.624,3.146 4.581,3.255C4.469,3.535 4.442,3.644 4.442,3.804C4.441,3.993 4.417,4.037 4.18,4.268C4.076,4.369 3.818,4.641 3.607,4.871C3.397,5.101 3.126,5.384 3.007,5.499C2.808,5.692 2.787,5.717 2.765,5.79C2.743,5.862 2.742,5.955 2.765,5.975C2.769,5.979 2.804,5.971 2.843,5.957C2.895,5.939 2.954,5.894 3.066,5.789C3.198,5.665 3.234,5.64 3.329,5.602C3.621,5.488 4.152,5.428 4.582,5.463C5.3,5.52 5.895,5.704 7.049,6.226C7.618,6.484 7.889,6.585 8.208,6.657C8.41,6.702 8.806,6.715 8.969,6.681L8.969,6.681Z" style="fill:rgb(6,22,51);fill-rule:nonzero;stroke:white;stroke-width:0.18px;"/>
    </g>
    <g id="Ebene-1" serif:id="Ebene 1" transform="matrix(0.597801,0,0,0.597801,250.55,83.1429)">
        <g id="text835">
            <path id="path843" d="M411.416,364.437C411.416,312.237 390.335,271.883 348.175,243.375C383.911,220.487 401.779,186.558 401.779,141.586C401.779,104.645 390.335,74.932 367.448,52.446C344.962,29.96 315.249,18.718 278.308,18.718C240.564,18.718 209.646,34.578 185.554,66.299C174.713,32.972 156.242,16.308 130.143,16.308C126.127,16.308 121.911,17.111 117.494,18.718C113.479,19.922 109.665,21.93 106.051,24.741C102.437,27.15 99.426,30.161 97.016,33.775C95.009,36.987 94.005,40.4 94.005,44.014C94.005,60.878 102.035,69.311 118.097,69.311C119.301,69.311 121.309,68.909 124.12,68.106C126.93,67.303 129.741,66.5 132.552,65.697C135.363,64.492 138.173,63.488 140.984,62.685C143.795,61.882 145.802,61.481 147.007,61.481C157.045,61.481 162.065,72.121 162.065,93.403L162.065,392.745C162.065,420.852 157.648,434.905 148.814,434.905C146.003,434.905 140.783,433.099 133.154,429.485C125.124,425.871 119.301,424.064 115.688,424.064C97.619,424.064 88.584,430.89 88.584,444.542C88.584,464.217 102.236,474.055 129.54,474.055C150.019,474.055 167.887,462.611 183.145,439.724C196.395,458.997 213.26,471.646 233.738,477.669C245.784,481.684 264.656,483.692 290.354,483.692C318.06,483.692 344.159,473.854 368.653,454.179C397.161,430.489 411.416,400.574 411.416,364.437ZM351.788,124.722C351.788,192.581 335.727,226.51 303.605,226.51L206.635,226.51L207.839,107.255C208.642,71.519 233.336,53.651 281.922,53.651C302.801,53.651 317.859,56.462 327.094,62.083C343.557,72.523 351.788,93.403 351.788,124.722ZM357.209,353.595C357.209,380.096 352.391,401.378 342.754,417.439C330.708,437.917 312.438,448.156 287.945,448.156C260.239,448.156 240.564,444.743 228.92,437.917C212.457,428.682 204.627,411.014 205.43,384.915L206.635,254.818L308.423,262.648C340.947,265.057 357.209,295.373 357.209,353.595Z" style="fill:white;fill-rule:nonzero;"/>
        </g>
    </g>
</svg>
