<?xml version="1.0" encoding="utf-8"?>
<!-- Generator: Adobe Illustrator 24.2.1, SVG Export Plug-In . SVG Version: 6.00 Build 0)  -->
<svg version="1.1" id="Ebene_2_Kopie" xmlns="http://www.w3.org/2000/svg" xmlns:xlink="http://www.w3.org/1999/xlink" x="0px"
	 y="0px" viewBox="0 0 595.28 595.28" style="enable-background:new 0 0 595.28 595.28;" xml:space="preserve">
<style type="text/css">
	.st0{fill:#CEB787;}
	.st1{fill:#FFFFFF;}
	.st2{fill:#BA1829;}
	.st3{fill:#16223A;}
	.st4{fill:#162640;}
</style>
<g>
	<path class="st0" d="M199.27,221.79l41.92-27.83l22.65-34.14l52.73-55.44l10.65-8.45v15.55l24.85-19.94l20.96-22.99l4.73,17.92
		l25.69-8.11l-6.42,16.23l-13.18,46.58l2.03,15.96l27.72,14.54l40.23,28.06c0,0,28.39,39.72,29.07,40.48
		c0.68,0.76,4.39,11.92,4.39,11.92h-13l8.95,38.54l15.13,31.77l8.2,53.75l-28.06,5.07l-62.2,29.75l-66.81,58.82l-25.98,42.59
		l-15.04,19.94l-18.25-31.1l-24.34-59.15l-10.48-66.25l-5.41-38.87l-7.44-27.04L226.99,293l9.72-35.6l-22.23-11.72l-17.58-21.97"/>
	<path class="st1" d="M402.09,252.78c-2.7-5.07-11.49-16.9-11.49-16.9s15.21-3.38,30.42,8.45c-6.42-17.92-26.7-28.99-26.7-28.99
		s21.63-4.5,38.2,4.31c-19.01-26.47-45.69-36.78-73.97-38.02c1.87-7.69,8.39-34.13,10.98-40.47c-8.45,0.68-20.96,4.39-23.66,9.46
		c-2.18,4.08-8.07,24.14-10.29,31.82c-1.81,0.19-3.61,0.42-5.41,0.67c2.54-10.3,7.81-31.26,10.08-36.81
		c-8.45,0.68-20.96,4.39-23.66,9.46c-2.21,4.14-8.24,24.69-10.38,32.13c-2.38,0.61-4.75,1.26-7.1,1.94
		c2.52-10.02,7.73-30.11,10.73-37.1c-9.46,1.69-18.59,6.08-23.32,11.83c-3.65,4.43-11.91,25.52-15.51,34.96
		c-26.88,10.73-48.23,23.3-56.49,28.87c0.8,6.59,9.46,11.81,9.46,11.81s10.14,6.17,24.34,9.89c-2.03,6.08-3.38,16.23-0.68,36.35
		c33.13,26.02,45.3,122.58,96.34,146.52c-6.76-8.11,5.53-31.77-3.04-57.13c14.2,9.46,49.69,12.17,70.99,10.82
		c12.51-16.23,7.44-59.15,0.34-84.17c5.75,2.03,11.49,7.44,18.59,15.55c-6.42-31.44-38.54-65.24-38.54-65.24
		S397.91,251.97,402.09,252.78z"/>
	<path class="st2" d="M425.16,183.37c12.32,9.99,33.01,40.09,37.74,50.23c-3.55-1.69-11.07-0.09-11.07-0.09
		c10.82,22.65,31.54,82.1,28.92,140.6l14.29,3.74l11.49-1.69l-21.3-98.03l-11.83-28.06l13.86,2.03l-18.25-36.51l-28.73-28.73
		L425.16,183.37z"/>
	<polygon class="st2" points="192.34,226.75 145.19,240.44 104.62,260.98 110.96,270.61 140.88,270.61 177.64,274.16 228.85,290.64 
		236.71,257.4 215.92,247.29 196.4,225.48 	"/>
	<path class="st3" d="M478.82,255.82c0,0,15.89,6.02,21.3,13.46c-2.86-10.22-31.31-88.83-104.41-109.15
		c-0.04-0.01-0.08-0.03-0.12-0.04c-14.5-4.93,2.78-80.72,25.09-101c-6.08,0-22.99,5.41-38.54,20.28c2.7-6.08,1.35-20.96-6.76-38.54
		c0,0-17.58,41.24-39.89,60.17c0,0,8.11-15.55-3.38-29.07c-1.35,17.58-75.04,73.01-92.37,119.44c0,0,0,0.01,0,0.01
		c-15.87,8.94-29.93,17.79-47.6,30.71C120,238.41,80.62,272.72,80.62,272.72s144-8.11,161.58,46.65s-2.7,124.68,71.66,235.07
		c27.04-107.97,141.3-172.87,200.79-173.55C510.26,318.53,478.82,255.82,478.82,255.82z M133.02,266.81c0,0,58.56-7.35,92.54-6.34
		c-9.13-3.8-75.8-9.89-112.06,0c18.5-11.85,44.07-20.66,80.58-31.82c0,0,0.22-0.07,0.63-0.27c3.58,5.82,15.95,23.69,37.43,31.87
		c-2.77,6.1-5.23,20.25-6.18,26.17c-0.05-0.03-0.11-0.07-0.16-0.1C208.82,276.44,156.09,265.54,133.02,266.81z M308.96,520.84
		c-39.55-43.61-50.2-141.72-53.24-170.11c-2.66-24.81-10.54-47.87-23.81-59.89c1.46-8.91,4.44-24.46,8.6-33.66
		c-8.11-4.31-27.84-10.45-39.91-32.73c10.48-7,31.22-20.86,43.71-29.13c20.28-46.14,66.93-73.27,78.85-94.31
		c0.54,4.4-0.25,10.01-5.07,20.79c15.72-11.92,42.34-26.37,51.97-45.63c1.9,2.41,3.36,12.17,1.33,19.71
		c7.99-7.16,13.82-11.22,23.77-14.89c-8.37,7.61-16.73,48.93-16.48,79.61l13.02,4.02c43.61,16.59,79.08,61.16,87.63,82.17
		c0,0-6.08-2.03-13.18-0.76c15.72,38.03,26.54,76.39,32.2,125.24C448.91,373.79,342.17,437.68,308.96,520.84z"/>
	<polygon class="st3" points="374.71,275.43 388.23,282.19 390.6,322.41 368.29,287.93 	"/>
	<polygon class="st3" points="350.37,321.74 363.89,328.5 366.26,368.72 343.95,334.24 	"/>
	<polygon class="st3" points="300.68,307.88 314.2,314.64 316.57,354.86 294.26,320.38 	"/>
	<path class="st0" d="M231.3,242.13c6.77,2.76,22.9,0.84,32.36-9.64c9.46-10.48,15.21-19.94,28.56-21.97
		c18.24-2.77,40.06,21.04,76.06,17.86c0,0-34.82,4.12-45.8,14.93c-3.21-12.85-9.63-27.04-24.85-25.69
		c-15.21,1.35-6.22,31.02-4.73,39.78c-4.39-12.4-47.24-9.14-46.78,11.88c0.88,12.26,7.94,23.03,10.29,26.2l-11.85,2.16l-2.7-17.03
		l0.34-22.55"/>
	<circle class="st4" cx="297.64" cy="240.19" r="24.85"/>
	<circle class="st1" cx="305.41" cy="228.38" r="6.59"/>
	<path class="st0" d="M218.98,225.48c0,0,3.75,20.55,25.99,19.19l3.31,5.4l-14.65-1.35l-14.65-8.54l-9.91-14.7"/>
</g>
</svg>
