<?xml version="1.0" encoding="UTF-8" standalone="no"?>
<!DOCTYPE svg PUBLIC "-//W3C//DTD SVG 1.1//EN" "http://www.w3.org/Graphics/SVG/1.1/DTD/svg11.dtd">
<svg width="100%" height="100%" viewBox="0 0 40 40" version="1.1" xmlns="http://www.w3.org/2000/svg" xmlns:xlink="http://www.w3.org/1999/xlink" xml:space="preserve" xmlns:serif="http://www.serif.com/" style="fill-rule:evenodd;clip-rule:evenodd;stroke-linecap:round;stroke-linejoin:round;">
    <g transform="matrix(0.694945,0.719063,-0.719063,0.694945,17.4873,-14.248)">
        <rect x="25.536" y="13.486" width="1.715" height="16.734" style="fill:white;"/>
    </g>
    <path d="M26,14L36.8,14C37.463,14 38,14.537 38,15.2L38,36.8C38,37.463 37.463,38 36.8,38L15.2,38C14.537,38 14,37.463 14,36.8L14,26" style="fill:white;fill-rule:nonzero;"/>
    <path d="M26,14L36.8,14C37.463,14 38,14.537 38,15.2L38,36.8C38,37.463 37.463,38 36.8,38L15.2,38C14.537,38 14,37.463 14,36.8L14,26" style="fill:none;fill-rule:nonzero;stroke:rgb(6,22,51);stroke-width:2px;"/>
    <path d="M26,14L26,3.2C26,2.537 25.463,2 24.8,2L3.2,2C2.537,2 2,2.537 2,3.2L2,24.8C2,25.463 2.537,26 3.2,26L14,26" style="fill:white;fill-rule:nonzero;"/>
    <path d="M26,14L26,3.2C26,2.537 25.463,2 24.8,2L3.2,2C2.537,2 2,2.537 2,3.2L2,24.8C2,25.463 2.537,26 3.2,26L14,26" style="fill:none;fill-rule:nonzero;stroke:rgb(6,22,51);stroke-width:2px;"/>
    <g transform="matrix(1.44274,0,0,1.44274,4.05561,-27.8673)">
        <path d="M3.353,33.702L8.009,33.702C9.353,33.702 10.433,32.49 10.433,31.002L10.433,26.19C10.433,24.702 9.353,23.49 8.009,23.49L3.353,23.49L3.353,33.702ZM5.225,31.818L5.225,25.362L7.553,25.362C8.117,25.362 8.573,25.878 8.573,26.49L8.573,30.69C8.573,31.314 8.117,31.818 7.553,31.818L5.225,31.818Z" style="fill:rgb(169,0,36);fill-rule:nonzero;"/>
    </g>
    <g transform="matrix(1.44247,0,0,1.44247,17.0793,-13.967)">
        <path d="M7.493,23.49L3.113,23.49L3.113,33.702L4.913,33.702L4.913,29.478L7.493,29.478C9.041,29.478 10.265,28.23 10.265,26.706L10.265,26.262C10.265,24.738 9.041,23.49 7.493,23.49ZM7.193,25.278C8.033,25.278 8.429,25.77 8.429,26.49C8.429,27.234 8.045,27.69 7.193,27.69L4.913,27.69L4.913,25.278L7.193,25.278Z" style="fill:rgb(169,0,36);fill-rule:nonzero;"/>
    </g>
</svg>
