<?xml version="1.0" encoding="UTF-8" standalone="no"?>
<!-- Created with Inkscape (http://www.inkscape.org/) -->

<svg
   width="512"
   height="512"
   viewBox="0 0 135.46666 135.46667"
   version="1.1"
   id="svg1"
   inkscape:version="1.3.2 (091e20ef0f, 2023-11-25, custom)"
   sodipodi:docname="icon.svg"
   inkscape:export-filename="touch-icon.png"
   inkscape:export-xdpi="36"
   inkscape:export-ydpi="36"
   xmlns:inkscape="http://www.inkscape.org/namespaces/inkscape"
   xmlns:sodipodi="http://sodipodi.sourceforge.net/DTD/sodipodi-0.dtd"
   xmlns:xlink="http://www.w3.org/1999/xlink"
   xmlns="http://www.w3.org/2000/svg"
   xmlns:svg="http://www.w3.org/2000/svg"
   xmlns:serif="http://www.serif.com/">
  <sodipodi:namedview
     id="namedview1"
     pagecolor="#505050"
     bordercolor="#ffffff"
     borderopacity="1"
     inkscape:showpageshadow="0"
     inkscape:pageopacity="0"
     inkscape:pagecheckerboard="1"
     inkscape:deskcolor="#d1d1d1"
     inkscape:document-units="mm"
     inkscape:zoom="0.50268269"
     inkscape:cx="587.84598"
     inkscape:cy="316.30291"
     inkscape:window-width="1864"
     inkscape:window-height="1011"
     inkscape:window-x="0"
     inkscape:window-y="0"
     inkscape:window-maximized="1"
     inkscape:current-layer="layer1" />
  <defs
     id="defs1">
    <linearGradient
       id="linearGradient1"
       inkscape:collect="always">
      <stop
         style="stop-color:#ba0c2f;stop-opacity:1;"
         offset="0"
         id="stop1" />
      <stop
         style="stop-color:#041e42;stop-opacity:1;"
         offset="1"
         id="stop2" />
    </linearGradient>
    <linearGradient
       inkscape:collect="always"
       xlink:href="#linearGradient1"
       id="linearGradient2"
       x1="29.105639"
       y1="110.26213"
       x2="120.22124"
       y2="40.289421"
       gradientUnits="userSpaceOnUse"
       spreadMethod="pad" />
  </defs>
  <g
     inkscape:label="Ebene 1"
     inkscape:groupmode="layer"
     id="layer1"
     transform="translate(1.7118407,1.1377752)">
    <rect
       style="fill:url(#linearGradient2);fill-opacity:1;stroke-width:4.721;stroke-dasharray:none"
       id="rect1"
       width="137.08986"
       height="137.2166"
       x="-2.624846"
       y="-1.9101223"
       inkscape:highlight-color="#db924b" />
    <g
       transform="matrix(0.28464706,0,0,0.28464706,-12.987685,-18.023747)"
       id="g16"
       style="clip-rule:evenodd;fill-rule:evenodd;stroke-linejoin:round;stroke-miterlimit:2">
      <g
         id="Ebene-2-Kopie"
         serif:id="Ebene 2 Kopie">
        <g
           id="g15">
          <g
             transform="translate(323.548,457.685)"
             id="g2">
            <path
               d="m 0,-320.093 h -0.104 c -2.766,0.042 -5.249,1.708 -6.334,4.252 -0.068,0.157 -4.644,10.772 -11.281,20.727 -0.727,-1.346 -1.63,-2.68 -2.734,-3.979 -1.354,-1.592 -3.317,-2.467 -5.335,-2.467 -0.721,0 -1.449,0.112 -2.16,0.342 -2.614,0.849 -4.481,3.144 -4.793,5.857 -1.063,3.193 -10.246,12.77 -16.968,19.781 -13.286,13.855 -29.667,30.937 -36.708,47.327 -9.205,5.269 -16.888,10.25 -25.751,16.685 -43.312,10.118 -67.097,30.521 -68.099,31.394 -2.255,1.965 -3.013,5.146 -1.885,7.917 1.077,2.647 3.649,4.361 6.481,4.361 0.131,0 0.263,-0.003 0.396,-0.011 0.042,-0.002 4.407,-0.241 11.132,-0.241 34.16,0 72.616,6.092 78.104,23.192 2.955,9.205 4,19.396 5.211,31.196 2.898,28.24 6.505,63.386 38.357,110.67 1.315,1.952 3.503,3.09 5.804,3.09 0.402,0 0.807,-0.035 1.211,-0.106 2.723,-0.478 4.91,-2.512 5.581,-5.194 6.768,-27.021 24.529,-52.524 50.014,-71.813 20.861,-15.79 45.566,-26.121 62.939,-26.318 1.928,-0.022 3.762,-0.838 5.068,-2.256 1.307,-1.418 1.97,-3.312 1.835,-5.236 -1.57,-22.287 -8.58,-44.353 -14.29,-59.156 0.577,-0.114 1.146,-0.302 1.696,-0.568 3.049,-1.476 4.603,-4.925 3.689,-8.188 -0.042,-0.152 -4.395,-15.401 -16.442,-32.424 -13.011,-18.387 -29.77,-31.099 -48.578,-36.877 -0.491,-2.977 -0.291,-10.773 3.032,-22.739 3.315,-11.939 8.267,-22.208 12.615,-26.16 2.14,-1.946 2.863,-5.006 1.82,-7.704 -1.043,-2.697 -3.637,-4.476 -6.529,-4.476 -3.413,0 -9.535,1.561 -16.344,5.445 -0.906,-3.882 -2.348,-8.038 -4.295,-12.257 -1.145,-2.481 -3.628,-4.066 -6.355,-4.066 m -0.001,7 c 4.835,10.476 5.641,19.339 4.029,22.965 9.267,-8.863 19.34,-12.087 22.966,-12.087 -13.296,12.087 -23.592,57.254 -14.951,60.193 0.023,0.008 0.045,0.016 0.068,0.024 43.564,12.113 60.519,58.957 62.225,65.051 -3.224,-4.432 -12.691,-8.021 -12.691,-8.021 0,0 18.735,37.369 21.353,74.538 -35.455,0.402 -103.547,39.082 -119.664,103.429 -44.319,-65.792 -32.232,-107.459 -42.708,-140.094 -8.082,-25.178 -61.002,-28.053 -84.769,-28.053 -7.039,0 -11.525,0.252 -11.525,0.252 0,0 23.469,-20.447 66.465,-30.172 10.529,-7.704 18.91,-12.978 28.367,-18.304 0.001,-10e-4 0.003,-0.006 0.003,-0.006 10.323,-27.667 54.24,-60.706 55.046,-71.181 6.85,8.058 2.015,17.324 2.015,17.324 13.295,-11.281 23.771,-35.858 23.771,-35.858"
               style="fill:#ffffff;fill-rule:nonzero"
               id="path1-5" />
          </g>
          <g
             transform="translate(218.589,346.182)"
             id="g3">
            <path
               d="m 0,-93.747 24.98,-16.584 13.498,-20.347 31.427,-33.039 6.345,-5.036 v 9.267 l 14.807,-11.886 12.49,-13.699 2.821,10.678 15.31,-4.835 -3.827,9.669 -7.856,27.759 1.208,9.51 16.519,8.663 23.973,16.72 c 0,0 16.923,23.671 17.325,24.124 0.403,0.454 2.619,7.102 2.619,7.102 h -7.75 l 5.333,22.966 9.015,18.936 4.885,32.032 L 166.401,1.274 129.333,19.002 89.516,54.055 74.035,79.439 65.07,91.324 54.191,72.791 39.687,37.536 33.441,-1.949 30.218,-25.116 25.786,-41.232 16.52,-51.305 22.311,-72.521 9.065,-79.508 -1.41,-92.603"
               style="fill:#ceb787;fill-rule:nonzero"
               id="path2-3" />
          </g>
          <g
             transform="translate(339.462,311.758)"
             id="g4">
            <path
               d="m 0,-40.854 c -1.611,-3.022 -6.85,-10.073 -6.85,-10.073 0,0 9.066,-2.014 18.131,5.036 -3.827,-10.676 -15.915,-17.274 -15.915,-17.274 0,0 12.894,-2.683 22.765,2.568 C 6.8,-76.37 -9.099,-82.513 -25.955,-83.258 c 1.116,-4.585 4.998,-20.342 6.543,-24.117 -5.037,0.402 -12.49,2.618 -14.103,5.64 -1.297,2.432 -4.811,14.388 -6.133,18.962 -1.076,0.116 -2.152,0.25 -3.227,0.398 1.511,-6.136 4.656,-18.631 6.009,-21.937 -5.036,0.403 -12.49,2.619 -14.102,5.641 -1.315,2.465 -4.908,14.716 -6.187,19.145 -1.421,0.365 -2.833,0.751 -4.234,1.154 1.5,-5.968 4.605,-17.943 6.392,-22.112 -5.641,1.007 -11.08,3.626 -13.9,7.05 -2.174,2.641 -7.1,15.211 -9.243,20.835 -16.019,6.394 -28.744,13.889 -33.667,17.204 0.478,3.929 5.641,7.037 5.641,7.037 0,0 6.043,3.676 14.504,5.892 -1.208,3.627 -2.014,9.67 -0.402,21.666 19.746,15.509 26.995,73.055 57.414,87.321 -4.029,-4.835 3.294,-18.937 -1.813,-34.046 8.461,5.641 29.613,7.253 42.306,6.447 7.453,-9.67 4.431,-35.255 0.201,-50.162 3.425,1.208 6.85,4.432 11.08,9.266 -3.828,-18.734 -22.966,-38.88 -22.966,-38.88 0,0 3.351,-0.484 5.842,0"
               style="fill:#ffffff;fill-rule:nonzero"
               id="path3-5" />
          </g>
          <g
             transform="translate(353.212,345.442)"
             id="g5">
            <path
               d="m 0,-115.905 c 7.34,5.956 19.673,23.891 22.493,29.935 -2.115,-1.008 -6.595,-0.053 -6.595,-0.053 6.447,13.497 18.795,48.927 17.238,83.793 L 41.65,0 48.499,-1.007 35.808,-59.429 28.757,-76.15 l 8.26,1.209 -10.879,-21.757 -17.123,-17.124 z"
               style="fill:#ba0c2f;fill-rule:nonzero"
               id="path4-6" />
          </g>
          <g
             transform="translate(214.46,292.712)"
             id="g6">
            <path
               d="m 0,-37.32 -28.103,8.159 -24.174,12.238 3.777,5.742 h 17.829 l 21.907,2.115 30.521,9.821 4.683,-19.806 -12.389,-6.03 -11.634,-12.994 z"
               style="fill:#ba0c2f;fill-rule:nonzero"
               id="path5-2" />
          </g>
          <g
             transform="translate(283.961,164.619)"
             id="g7">
            <path
               d="m 0,266.038 c -23.57,-25.987 -29.916,-84.459 -31.729,-101.382 -1.584,-14.783 -6.282,-28.527 -14.193,-35.694 0.873,-5.309 2.646,-14.579 5.128,-20.058 -4.835,-2.569 -16.593,-6.23 -23.784,-19.508 6.245,-4.175 18.604,-12.431 26.05,-17.358 C -26.441,44.539 1.36,28.372 8.461,15.832 8.782,18.457 8.31,21.8 5.439,28.222 14.807,21.121 30.671,12.508 36.413,1.025 37.546,2.461 38.415,8.278 37.207,12.772 41.965,8.504 45.441,6.087 51.371,3.896 46.385,8.429 41.399,33.057 41.55,51.338 l 7.76,2.399 c 25.993,9.888 47.131,36.448 52.223,48.972 0,0 -3.626,-1.209 -7.857,-0.453 9.367,22.663 15.815,45.529 19.189,74.639 C 83.402,178.406 19.792,216.48 0,266.038 M -104.857,114.645 c 0,0 34.902,-4.381 55.148,-3.777 -5.439,-2.266 -45.176,-5.893 -66.782,0 11.023,-7.065 26.267,-12.313 48.024,-18.961 0,0 0.129,-0.043 0.377,-0.162 2.132,3.468 9.507,14.118 22.31,18.995 -1.651,3.636 -3.117,12.067 -3.682,15.599 -0.032,-0.019 -0.063,-0.041 -0.096,-0.06 -10.123,-5.892 -41.549,-12.389 -55.299,-11.634 m 206.088,-6.547 c 0,0 9.468,3.589 12.691,8.022 -1.706,-6.094 -18.661,-52.939 -62.224,-65.051 -0.024,-0.008 -0.045,-0.016 -0.069,-0.025 -8.64,-2.938 1.656,-48.105 14.952,-60.192 -3.626,0 -13.7,3.223 -22.966,12.087 1.611,-3.626 0.805,-12.49 -4.03,-22.966 0,0 -10.475,24.578 -23.771,35.859 0,0 4.835,-9.267 -2.014,-17.325 -0.806,10.476 -44.723,43.514 -55.047,71.181 0,0 -0.002,0.006 -0.003,0.007 -9.457,5.326 -17.837,10.599 -28.367,18.304 -42.996,9.724 -66.465,30.172 -66.465,30.172 0,0 85.819,-4.835 96.295,27.801 10.475,32.635 -1.612,74.302 42.708,140.093 16.117,-64.347 84.208,-103.026 119.663,-103.429 -2.618,-37.168 -21.353,-74.538 -21.353,-74.538"
               style="fill:#041e42;fill-rule:nonzero"
               id="path6-9" />
          </g>
          <g
             transform="matrix(0.894427,0.447214,0.447214,-0.894427,329.704,284.618)"
             id="g8">
            <path
               d="M -5.964,-2.739 H 3.045 L 15.028,-23.551 -6.054,-11.118 Z"
               style="fill:#041e42;fill-rule:nonzero"
               id="path7-1" />
          </g>
          <g
             transform="matrix(0.894427,0.447214,0.447214,-0.894427,315.199,312.217)"
             id="g9">
            <path
               d="M -5.964,-2.739 H 3.045 L 15.029,-23.551 -6.054,-11.118 Z"
               style="fill:#041e42;fill-rule:nonzero"
               id="path8-2" />
          </g>
          <g
             transform="matrix(0.894427,0.447214,0.447214,-0.894427,285.585,303.958)"
             id="g10">
            <path
               d="M -5.964,-2.739 H 3.045 L 15.028,-23.551 -6.054,-11.118 Z"
               style="fill:#041e42;fill-rule:nonzero"
               id="path9-7" />
          </g>
          <g
             transform="translate(237.68,277.15)"
             id="g11">
            <path
               d="m 0,-12.591 c 4.035,1.646 13.646,0.502 19.287,-5.743 5.641,-6.245 9.066,-11.885 17.023,-13.094 10.869,-1.651 23.872,12.541 45.327,10.641 0,0 -20.75,2.453 -27.297,8.9 -1.914,-7.655 -5.741,-16.116 -14.807,-15.31 -9.065,0.805 -3.704,18.485 -2.82,23.708 -2.619,-7.391 -28.155,-5.45 -27.878,7.077 0.526,7.307 4.731,13.723 6.132,15.614 L 7.905,20.488 6.293,10.339 6.495,-3.099"
               style="fill:#ceb787;fill-rule:nonzero"
               id="path10-0" />
          </g>
          <g
             transform="matrix(0,-1,-1,0,277.212,248.592)"
             id="g12">
            <path
               d="m -14.807,-14.807 c -8.178,0 -14.807,6.629 -14.807,14.807 0,8.177 6.629,14.807 14.807,14.807 C -6.63,14.807 0,8.177 0,0 0,-8.178 -6.63,-14.807 -14.807,-14.807"
               style="fill:#041e42;fill-rule:nonzero"
               id="path11-9" />
          </g>
          <g
             transform="matrix(0,-1,-1,0,281.846,252.436)"
             id="g13">
            <path
               d="m -3.927,-3.929 c -2.171,0 -3.929,1.759 -3.929,3.928 0,2.17 1.758,3.928 3.929,3.928 2.169,0 3.928,-1.758 3.928,-3.928 0,-2.169 -1.759,-3.928 -3.928,-3.928"
               style="fill:#ffffff;fill-rule:nonzero"
               id="path12-3" />
          </g>
          <g
             transform="translate(230.335,269.292)"
             id="g14">
            <path
               d="m 0,-14.656 c 0,0 2.233,12.25 15.49,11.438 L 17.465,0 8.732,-0.806 0,-5.893 -5.904,-14.656"
               style="fill:#ceb787;fill-rule:nonzero"
               id="path13-6" />
          </g>
        </g>
      </g>
    </g>
  </g>
</svg>
