<svg id="Ebene_1" data-name="Ebene 1" xmlns="http://www.w3.org/2000/svg" xmlns:xlink="http://www.w3.org/1999/xlink" viewBox="0 0 553.73 553.73"><defs><style>.cls-1{fill:none;}.cls-2{clip-path:url(#clip-path);}.cls-3{fill:#ba1829;}.cls-4{fill:#152239;}.cls-5{fill:#fff;}.cls-6{fill:#ceb787;}.cls-7{fill:#16223a;}.cls-8{fill:#162640;}</style><clipPath id="clip-path" transform="translate(-20.77 -20.77)"><rect class="cls-1" width="595.28" height="595.28"/></clipPath></defs><title>01_Logo_Jaro</title><g class="cls-2"><path class="cls-3" d="M297.64,567.5A269.87,269.87,0,0,1,106.81,106.81,269.87,269.87,0,1,1,488.46,488.46a268.1,268.1,0,0,1-190.82,79" transform="translate(-20.77 -20.77)"/><path class="cls-4" d="M297.64,34.77A262.94,262.94,0,0,1,400,539.85,262.94,262.94,0,0,1,195.32,55.42,261.19,261.19,0,0,1,297.64,34.77m0-14c-152.91,0-276.87,124-276.87,276.87s124,276.87,276.87,276.87,276.87-124,276.87-276.87S450.55,20.77,297.64,20.77" transform="translate(-20.77 -20.77)"/><path class="cls-5" d="M467.08,128.2A239.63,239.63,0,0,0,58,297.64c0,1.33,0,2.65,0,4l30.63,30.13,31.44-27.91c-.07-2.06-.12-4.12-.12-6.2C120,199.69,199.69,120,297.64,120s177.63,79.68,177.63,177.63c0,2.17-.05,4.32-.13,6.47l31.13,27.63,31-30.44c0-1.22,0-2.44,0-3.66A238.06,238.06,0,0,0,467.08,128.2" transform="translate(-20.77 -20.77)"/><path class="cls-5" d="M297.64,475.27c-71.84,0-133.85-42.87-161.81-104.37L81.82,402a239.91,239.91,0,0,0,431.56.14l-54-31.13c-28,61.42-90,104.22-161.74,104.22" transform="translate(-20.77 -20.77)"/><path class="cls-5" d="M297.64,512.83a215.19,215.19,0,1,1,152.16-63,213.79,213.79,0,0,1-152.16,63m0-421.39c-113.7,0-206.19,92.5-206.19,206.19s92.5,206.19,206.19,206.19,206.19-92.5,206.19-206.19S411.33,91.45,297.64,91.45" transform="translate(-20.77 -20.77)"/><path class="cls-5" d="M297.64,527A229.37,229.37,0,0,1,135.45,135.45,229.37,229.37,0,1,1,459.82,459.82,227.87,227.87,0,0,1,297.64,527m0-449.73c-121.51,0-220.37,98.86-220.37,220.37S176.13,518,297.64,518,518,419.15,518,297.64,419.15,77.27,297.64,77.27" transform="translate(-20.77 -20.77)"/><path class="cls-5" d="M297.64,498.66c-110.84,0-201-90.18-201-201s90.18-201,201-201,201,90.18,201,201-90.18,201-201,201m0-393c-105.88,0-192,86.14-192,192s86.14,192,192,192,192-86.14,192-192-86.14-192-192-192" transform="translate(-20.77 -20.77)"/><path class="cls-5" d="M323.55,144.59c4.83,10.48,5.64,19.34,4,23,9.27-8.86,19.34-12.09,23-12.09-13.3,12.09-23.59,57.25-15,60.19l.07,0c43.56,12.11,60.52,59,62.23,65.05-3.22-4.43-12.69-8-12.69-8s18.73,37.37,21.35,74.54c-35.45.4-103.55,39.08-119.66,103.43-44.32-65.79-32.23-107.46-42.71-140.09-8.08-25.18-61-28.05-84.77-28.05-7,0-11.52.25-11.52.25s23.47-20.45,66.46-30.17a267.75,267.75,0,0,1,28.37-18.3h0c10.32-27.67,54.24-60.71,55-71.18,6.85,8.06,2,17.32,2,17.32,13.29-11.28,23.77-35.86,23.77-35.86m0-7h-.1a7,7,0,0,0-6.33,4.25,147.38,147.38,0,0,1-11.28,20.73,23.08,23.08,0,0,0-2.73-4,7,7,0,0,0-12.29,3.73c-1.06,3.19-10.25,12.77-17,19.78C260.55,196,244.17,213,237.13,229.43a269.69,269.69,0,0,0-25.75,16.69c-43.31,10.12-67.1,30.52-68.1,31.39a7,7,0,0,0,4.6,12.28h.4s4.41-.24,11.13-.24c34.16,0,72.62,6.09,78.1,23.19,3,9.21,4,19.4,5.21,31.2,2.9,28.24,6.51,63.39,38.36,110.67a7,7,0,0,0,12.6-2.21c6.77-27,24.53-52.52,50-71.81,20.86-15.79,45.57-26.12,62.94-26.32a7,7,0,0,0,6.9-7.49c-1.57-22.29-8.58-44.35-14.29-59.16a7,7,0,0,0,5.39-8.76c0-.15-4.39-15.4-16.44-32.42-13-18.39-29.77-31.1-48.58-36.88-.49-3-.29-10.77,3-22.74s8.27-22.21,12.61-26.16a7,7,0,0,0-4.71-12.18c-3.41,0-9.54,1.56-16.34,5.45a64.63,64.63,0,0,0-4.3-12.26,7,7,0,0,0-6.35-4.07" transform="translate(-20.77 -20.77)"/><path class="cls-6" d="M218.59,252.43l25-16.58,13.5-20.35,31.43-33,6.35-5v9.27l14.81-11.89,12.49-13.7L325,171.79,340.27,167l-3.83,9.67-7.86,27.76,1.21,9.51,16.52,8.66,24,16.72s16.92,23.67,17.33,24.12,2.62,7.1,2.62,7.1h-7.75l5.33,23,9,18.94,4.89,32-16.72,3-37.07,17.73-39.82,35.05-15.48,25.38-9,11.88L272.78,419l-14.5-35.25L252,344.23l-3.22-23.17L244.38,305l-9.27-10.07,5.79-21.22-13.25-7-10.47-13.1" transform="translate(-20.77 -20.77)"/><path class="cls-5" d="M339.46,270.9c-1.61-3-6.85-10.07-6.85-10.07s9.07-2,18.13,5c-3.83-10.68-15.91-17.27-15.91-17.27s12.89-2.68,22.76,2.57c-11.33-15.77-27.23-21.92-44.09-22.66,1.12-4.58,5-20.34,6.54-24.12-5,.4-12.49,2.62-14.1,5.64-1.3,2.43-4.81,14.39-6.13,19q-1.61.17-3.23.4c1.51-6.14,4.66-18.63,6-21.94-5,.4-12.49,2.62-14.1,5.64-1.32,2.46-4.91,14.72-6.19,19.14q-2.13.55-4.23,1.15c1.5-6,4.6-17.94,6.39-22.11-5.64,1-11.08,3.63-13.9,7-2.17,2.64-7.1,15.21-9.24,20.83a196.65,196.65,0,0,0-33.67,17.2c.48,3.93,5.64,7,5.64,7a60,60,0,0,0,14.5,5.89c-1.21,3.63-2,9.67-.4,21.67,19.75,15.51,27,73.05,57.41,87.32-4-4.83,3.29-18.94-1.81-34,8.46,5.64,29.61,7.25,42.31,6.45,7.45-9.67,4.43-35.25.2-50.16,3.43,1.21,6.85,4.43,11.08,9.27-3.83-18.73-23-38.88-23-38.88a21.21,21.21,0,0,1,5.84,0" transform="translate(-20.77 -20.77)"/><path class="cls-3" d="M353.21,229.54c7.34,6,19.67,23.89,22.49,29.94-2.11-1-6.6-.05-6.6-.05,6.45,13.5,18.8,48.93,17.24,83.79l8.51,2.23,6.85-1L389,286,382,269.29l8.26,1.21-10.88-21.76-17.12-17.12Z" transform="translate(-20.77 -20.77)"/><polygon class="cls-3" points="193.69 234.62 165.59 242.78 141.41 255.02 145.19 260.76 163.02 260.76 184.92 262.87 215.44 272.69 220.13 252.89 207.74 246.86 196.1 233.87 193.69 234.62"/><path class="cls-7" d="M385.19,272.72s9.47,3.59,12.69,8c-1.71-6.09-18.66-52.94-62.22-65.05l-.07,0c-8.64-2.94,1.66-48.11,15-60.19-3.63,0-13.7,3.22-23,12.09,1.61-3.63.8-12.49-4-23,0,0-10.48,24.58-23.77,35.86,0,0,4.83-9.27-2-17.33-.81,10.48-44.72,43.51-55,71.18h0a267.7,267.7,0,0,0-28.37,18.3c-43,9.72-66.46,30.17-66.46,30.17s85.82-4.83,96.29,27.8-1.61,74.3,42.71,140.09c16.12-64.35,84.21-103,119.66-103.43-2.62-37.17-21.35-74.54-21.35-74.54M179.1,279.26s34.9-4.38,55.15-3.78c-5.44-2.27-45.18-5.89-66.78,0,11-7.07,26.27-12.31,48-19a3.67,3.67,0,0,0,.38-.16c2.13,3.47,9.51,14.12,22.31,19-1.65,3.64-3.12,12.07-3.68,15.6l-.1-.06c-10.12-5.89-41.55-12.39-55.3-11.63M284,430.66c-23.57-26-29.92-84.46-31.73-101.38-1.58-14.78-6.28-28.53-14.19-35.69.87-5.31,2.65-14.58,5.13-20.06-4.84-2.57-16.59-6.23-23.78-19.51,6.24-4.17,18.6-12.43,26.05-17.36,12.09-27.5,39.89-43.67,47-56.21.32,2.63-.15,6-3,12.39,9.37-7.1,25.23-15.71,31-27.2,1.13,1.44,2,7.25.79,11.75,4.76-4.27,8.23-6.68,14.16-8.88-5,4.53-10,29.16-9.82,47.44l7.76,2.4c26,9.89,47.13,36.45,52.22,49a17.66,17.66,0,0,0-7.86-.45,268,268,0,0,1,19.19,74.64C367.36,343,303.75,381.1,284,430.66" transform="translate(-20.77 -20.77)"/><polygon class="cls-7" points="302.37 263.63 310.43 267.66 311.84 291.63 298.55 271.08 302.37 263.63"/><polygon class="cls-7" points="287.87 291.23 295.93 295.26 297.34 319.23 284.04 298.68 287.87 291.23"/><polygon class="cls-7" points="258.25 282.97 266.31 287 267.72 310.97 254.43 290.42 258.25 282.97"/><path class="cls-6" d="M237.68,264.56c4,1.65,13.65.5,19.29-5.74s9.07-11.89,17-13.09c10.87-1.65,23.87,12.54,45.33,10.64,0,0-20.75,2.45-27.3,8.9-1.91-7.65-5.74-16.12-14.81-15.31s-3.7,18.49-2.82,23.71c-2.62-7.39-28.15-5.45-27.88,7.08.53,7.31,4.73,13.72,6.13,15.61l-7.06,1.29L244,287.49l.2-13.44" transform="translate(-20.77 -20.77)"/><path class="cls-8" d="M292,263.4a14.81,14.81,0,1,1-14.81-14.81A14.81,14.81,0,0,1,292,263.4" transform="translate(-20.77 -20.77)"/><path class="cls-5" d="M285.77,256.36a3.93,3.93,0,1,1-3.93-3.93,3.93,3.93,0,0,1,3.93,3.93" transform="translate(-20.77 -20.77)"/><path class="cls-6" d="M230.34,254.64s2.23,12.25,15.49,11.44l2,3.22-8.73-.81-8.73-5.09-5.9-8.76" transform="translate(-20.77 -20.77)"/></g><path class="cls-4" d="M125.64,216.82,93.5,198.91l6.93-12.44q3-5.42,6.78-6.76a9.13,9.13,0,0,1,7.8.9,8.36,8.36,0,0,1,4.42,7.2,9,9,0,0,1,4.5-1.76,8.94,8.94,0,0,1,5.62,1.23,10.63,10.63,0,0,1,5.38,6.55q1.18,4.21-1.49,9ZM110,199.57l3-5.42a5.76,5.76,0,0,0,.84-3.72,3.82,3.82,0,0,0-2.12-2.75q-3.53-2-5.92,2.31l-3.08,5.53Zm13.69,7.63,3.65-6.55A5.52,5.52,0,0,0,128,197a4.06,4.06,0,0,0-2.25-3,4.75,4.75,0,0,0-3.65-.52,5.1,5.1,0,0,0-3.07,2.69l-3.56,6.4Z" transform="translate(-20.77 -20.77)"/><path class="cls-4" d="M142.24,188.47l-28.76-22.95L129,146.1l5,4L123.15,163.7l6.43,5.13,9.75-12.22,4.92,3.92-9.75,12.22,7.41,5.91,11.15-14,5,4Z" transform="translate(-20.77 -20.77)"/><path class="cls-4" d="M161.2,165.39,136.62,138,148,127.84q4.34-3.9,8.7-3.76a10.12,10.12,0,0,1,7.44,3.58,10.87,10.87,0,0,1,2.93,5.55,8.69,8.69,0,0,1-.5,4.82,8.46,8.46,0,0,1,3.3.35,13.63,13.63,0,0,1,3.46,2.21,32.13,32.13,0,0,0,10.07,4.9l-6.22,5.58a29.74,29.74,0,0,1-9.31-4.86,7.43,7.43,0,0,0-3-1.5,3.06,3.06,0,0,0-2.53.95L157.42,150l9.33,10.39Zm-8-20.09L158,141q4.28-3.84.8-7.72a4.43,4.43,0,0,0-3.51-1.62,6.38,6.38,0,0,0-4,1.88l-4.75,4.26Z" transform="translate(-20.77 -20.77)"/><path class="cls-4" d="M186.55,143.69l-19.91-30.94,6.27-4,16.46,25.57,13.6-8.75,3.45,5.36Z" transform="translate(-20.77 -20.77)"/><path class="cls-4" d="M210.43,129.25l-16.3-33,6.68-3.3,16.3,33Z" transform="translate(-20.77 -20.77)"/><path class="cls-4" d="M223.44,122.59,211.61,87.75l7.19-2.44,15,14.17,6,5.66.17-.06a74.78,74.78,0,0,1-4.13-9.94l-4.75-14,7.06-2.4,11.83,34.84L242.8,116,228,102.48l-6.24-6.09-.21.07a74.44,74.44,0,0,1,4.23,9.95l4.68,13.78Z" transform="translate(-20.77 -20.77)"/><path class="cls-4" d="M262.54,102.26l6.21-2.86a9.43,9.43,0,0,0,3.92,3.2,9.6,9.6,0,0,0,5.13.91,6.4,6.4,0,0,0,4-1.65A3.83,3.83,0,0,0,283,98.59a4,4,0,0,0-2.1-3.24,19.87,19.87,0,0,0-5.39-1.9,55.79,55.79,0,0,1-7.34-1.94q-5.62-2.35-6.21-8a9.14,9.14,0,0,1,2.92-7.92,15.14,15.14,0,0,1,9.22-3.87,14.83,14.83,0,0,1,8.71,1.46,14.25,14.25,0,0,1,5.75,5.52l-6,2.71a8.87,8.87,0,0,0-7.8-3.3,6.65,6.65,0,0,0-3.91,1.51,3.44,3.44,0,0,0-1.17,3A4.09,4.09,0,0,0,270,84a2.72,2.72,0,0,0,1,1.07q.7.47,1.21.78a7.18,7.18,0,0,0,1.69.64l1.77.47q.58.14,2.12.43t2.05.42a26.71,26.71,0,0,1,3.75,1.1,16.42,16.42,0,0,1,3.27,1.71,8.26,8.26,0,0,1,2.6,2.82,10.17,10.17,0,0,1,1.23,4,9.58,9.58,0,0,1-3,8.51,15.82,15.82,0,0,1-9.37,3.89,16.9,16.9,0,0,1-9.28-1.52A14.25,14.25,0,0,1,262.54,102.26Z" transform="translate(-20.77 -20.77)"/><path class="cls-4" d="M296.27,107.65l2.21-36.72,7.44.45L305,86.26h.13l13.68-14.12,9.33.56L312.8,88,326,109.45l-8.88-.54-9.34-16-3.4,3.4-.71,11.75Z" transform="translate(-20.77 -20.77)"/><path class="cls-4" d="M333.9,73.59l8.26,1.95,2.64,11.51q.32,1.37,1.19,5.91l.22.05q1.89-2.32,3.79-4.74l7.46-9.13,8.31,2L348.4,99.58,345,114l-7.26-1.71,3.4-14.43Z" transform="translate(-20.77 -20.77)"/><path class="cls-4" d="M360.26,118.38l14-34,6.89,2.84-11.58,28.12,15,6.16-2.43,5.9Z" transform="translate(-20.77 -20.77)"/><path class="cls-4" d="M383.22,127.61l30.46-24.38,6.75,4.2L412,145.52l-6.67-4.15,2.13-8.36-11-6.86-6.55,5.6Zm18-5.59L409,126.9l2.12-7.83q1.28-4.7,2.13-7.51l-.23-.14q-2.94,2.77-5.76,5.26Z" transform="translate(-20.77 -20.77)"/><path class="cls-4" d="M414.33,147.67l24.57-27.39,11.34,10.17q4.35,3.9,4.68,8.24a10.12,10.12,0,0,1-2.76,7.79A10.88,10.88,0,0,1,447,150a8.7,8.7,0,0,1-4.85,0,8.44,8.44,0,0,1,0,3.32,13.65,13.65,0,0,1-1.82,3.68,32.1,32.1,0,0,0-3.79,10.54L430.29,162a29.76,29.76,0,0,1,3.83-9.78,7.45,7.45,0,0,0,1.16-3.18,3.07,3.07,0,0,0-1.21-2.42l-4.85-4.35-9.33,10.4Zm19.11-10.14,4.78,4.29q4.28,3.84,7.76,0a4.42,4.42,0,0,0,1.23-3.66,6.38,6.38,0,0,0-2.31-3.82L440.16,130Z" transform="translate(-20.77 -20.77)"/><path class="cls-4" d="M438.71,170.37l28.92-22.74,4.61,5.86-11.72,9.22.08.11,19.64.84L486,171l-21.63-1.34-7.24,24.15-5.5-7,5.72-17.58-4.8-.29-9.25,7.28Z" transform="translate(-20.77 -20.77)"/><path class="cls-4" d="M464.52,190.15l5,4.62a9.44,9.44,0,0,0-1.44,4.86,9.61,9.61,0,0,0,1.14,5.08,6.4,6.4,0,0,0,3.06,3,3.83,3.83,0,0,0,3.48-.14A4,4,0,0,0,478,204.4a19.89,19.89,0,0,0-.33-5.71,55.66,55.66,0,0,1-1-7.52q0-6.09,5-8.83A9.14,9.14,0,0,1,490,182a15.13,15.13,0,0,1,7.13,7,14.83,14.83,0,0,1,2,8.6,14.26,14.26,0,0,1-2.87,7.43l-4.83-4.53a8.87,8.87,0,0,0,0-8.46,6.64,6.64,0,0,0-2.91-3,3.44,3.44,0,0,0-3.25.09,4.1,4.1,0,0,0-1.11.87,2.73,2.73,0,0,0-.61,1.33q-.16.83-.25,1.42a7.15,7.15,0,0,0,.07,1.81q.15,1.22.25,1.81t.42,2.13q.33,1.54.41,2.06a26.69,26.69,0,0,1,.44,3.88,16.48,16.48,0,0,1-.32,3.68,8.28,8.28,0,0,1-1.6,3.49,10.19,10.19,0,0,1-3.24,2.69,9.58,9.58,0,0,1-9,.5,15.82,15.82,0,0,1-7.21-7.14,16.9,16.9,0,0,1-2.19-9.15A14.24,14.24,0,0,1,464.52,190.15Z" transform="translate(-20.77 -20.77)"/><g class="cls-2"><path class="cls-4" d="M104.74,416.67l30.14-21.1L143,407.23q3.56,5.08,3.13,9.05A9.13,9.13,0,0,1,142,422.9a8.36,8.36,0,0,1-8.4.84,9,9,0,0,1-.38,4.82,8.94,8.94,0,0,1-3.55,4.52,10.63,10.63,0,0,1-8.24,2q-4.3-.77-7.44-5.26Zm9.5,2.45,4.3,6.15a5.52,5.52,0,0,0,3,2.18,4.06,4.06,0,0,0,3.66-.73,4.75,4.75,0,0,0,2.06-3.06,5.1,5.1,0,0,0-1.08-3.93l-4.2-6Zm12.84-9,3.56,5.08a5.76,5.76,0,0,0,3,2.38,3.81,3.81,0,0,0,3.4-.71q3.31-2.32.5-6.33l-3.63-5.19Z" transform="translate(-20.77 -20.77)"/><path class="cls-4" d="M123.51,443.11l35.44-16.32,5.54,5.7-17.35,34.95-5.48-5.64,4.08-7.6-9-9.31L129,448.75ZM142.3,442l6.45,6.64,3.95-7.09q2.38-4.25,3.88-6.77l-.19-.19q-3.53,2-6.85,3.71Z" transform="translate(-20.77 -20.77)"/><path class="cls-4" d="M155.2,463.12l6.49,2.13a9.45,9.45,0,0,0,.69,5,9.61,9.61,0,0,0,3.14,4.16,6.4,6.4,0,0,0,4,1.49,3.83,3.83,0,0,0,3.12-1.56,4,4,0,0,0,.67-3.8,19.91,19.91,0,0,0-2.65-5.06,55.92,55.92,0,0,1-4-6.42q-2.51-5.55.92-10.11a9.13,9.13,0,0,1,7.53-3.8,15.14,15.14,0,0,1,9.39,3.44,14.83,14.83,0,0,1,5.38,7,14.25,14.25,0,0,1,.45,8L184,461.43a8.87,8.87,0,0,0-3.46-7.72,6.65,6.65,0,0,0-3.89-1.55,3.44,3.44,0,0,0-2.93,1.42,4.1,4.1,0,0,0-.66,1.25,2.73,2.73,0,0,0,0,1.46q.2.82.36,1.39a7.2,7.2,0,0,0,.81,1.62q.64,1,1,1.55t1.26,1.76q.93,1.26,1.22,1.71a26.57,26.57,0,0,1,2,3.36,16.42,16.42,0,0,1,1.23,3.48,8.28,8.28,0,0,1,0,3.84,10.16,10.16,0,0,1-1.84,3.79,9.58,9.58,0,0,1-8,4.18,15.82,15.82,0,0,1-9.51-3.54,16.9,16.9,0,0,1-5.76-7.43,14.25,14.25,0,0,1-.57-8.87" transform="translate(-20.77 -20.77)"/><polygon class="cls-4" points="158.78 470.25 176.37 437.94 198.19 449.81 195.12 455.45 179.85 447.14 175.92 454.37 189.65 461.84 186.65 467.36 172.91 459.89 168.38 468.21 184.09 476.76 181.04 482.36 158.78 470.25"/><path class="cls-4" d="M221.95,500.88q1.85-6.34,10.39-9-1.84-4.42-1.1-7a7.7,7.7,0,0,1,4.44-5.26,12.88,12.88,0,0,1,13.87,3.86,11.46,11.46,0,0,1,2.41,6.09l-5.69.73q-1-4-3.89-4.79-3.32-1-4.09,1.66a3.65,3.65,0,0,0,0,1.54,17,17,0,0,0,.75,2.7q.6,1.72,1.13,3.09t1.69,4.22q1.16,2.84,1.83,4.54a29.5,29.5,0,0,0,2.61-4.62l5.93,2.95a28.49,28.49,0,0,1-3,5.05,23.28,23.28,0,0,1-3,3.42l3.93,9.48-8.32-2.43-1.14-2.81a14.64,14.64,0,0,1-9.79.51q-5.69-1.66-8-5.63a10.24,10.24,0,0,1-1-8.33m7.15,1.95a4.62,4.62,0,0,0,.38,3.83,5.28,5.28,0,0,0,3.21,2.32,7.7,7.7,0,0,0,5.83-.73l-4.25-10.6q-4.19,1.86-5.16,5.18" transform="translate(-20.77 -20.77)"/><path class="cls-4" d="M267.84,514l6.61-1.74a9.45,9.45,0,0,0,3.31,3.83,9.62,9.62,0,0,0,4.9,1.78,6.4,6.4,0,0,0,4.19-.95,3.83,3.83,0,0,0,1.76-3,4,4,0,0,0-1.51-3.55,20,20,0,0,0-5-2.8,55.84,55.84,0,0,1-6.89-3.18q-5.13-3.29-4.73-9a9.14,9.14,0,0,1,4.25-7.29,15.14,15.14,0,0,1,9.75-2.22,14.81,14.81,0,0,1,8.33,2.95,14.25,14.25,0,0,1,4.71,6.43l-6.42,1.62a8.87,8.87,0,0,0-7.11-4.6,6.65,6.65,0,0,0-4.11.82,3.44,3.44,0,0,0-1.68,2.79,4.11,4.11,0,0,0,.13,1.4,2.73,2.73,0,0,0,.79,1.23q.61.58,1.06,1a7.15,7.15,0,0,0,1.56.92l1.66.77q.55.24,2,.79t2,.77a26.6,26.6,0,0,1,3.5,1.73,16.48,16.48,0,0,1,2.93,2.25,8.28,8.28,0,0,1,2.07,3.23,10.19,10.19,0,0,1,.52,4.18,9.58,9.58,0,0,1-4.45,7.86,15.83,15.83,0,0,1-9.9,2.21,16.91,16.91,0,0,1-8.88-3.1,14.25,14.25,0,0,1-5.31-7.13" transform="translate(-20.77 -20.77)"/><path class="cls-4" d="M300.1,506.13q-.76-8.64,3.18-14.28a15.51,15.51,0,0,1,23.23-2q4.87,4.87,5.63,13.51T329,517.57a15.58,15.58,0,0,1-23.25,2q-4.85-4.85-5.61-13.49m7.7-.68q.52,6,3,9.16a7.24,7.24,0,0,0,12.26-1.1q1.89-3.62,1.37-9.52t-3-9.11A7.21,7.21,0,0,0,309.17,496q-1.89,3.64-1.37,9.5" transform="translate(-20.77 -20.77)"/><polygon class="cls-4" points="321.26 499.03 312.39 463.32 335.81 457.51 337.36 463.75 321.18 467.76 323.3 476.31 337.77 472.72 339.3 478.86 324.82 482.46 328.49 497.24 321.26 499.03"/><polygon class="cls-4" points="339.11 463.21 336.64 457.27 362.44 446.55 364.91 452.48 355.45 456.41 367.11 484.45 360.27 487.3 348.61 459.26 339.11 463.21"/><path class="cls-4" d="M403.74,498,384.66,466.5l12.17-7.39q5.3-3.21,9.24-2.53a9.13,9.13,0,0,1,6.34,4.64,8.36,8.36,0,0,1,.29,8.44,9,9,0,0,1,4.78.7,8.94,8.94,0,0,1,4.27,3.84,10.63,10.63,0,0,1,1.44,8.35q-1.05,4.24-5.74,7.08Zm-5.06-22.73L404,472a5.76,5.76,0,0,0,2.57-2.82,3.82,3.82,0,0,0-.48-3.44q-2.1-3.46-6.28-.92l-5.41,3.28Zm8.13,13.4,6.41-3.89a5.51,5.51,0,0,0,2.37-2.8,4.06,4.06,0,0,0-.48-3.7,4.76,4.76,0,0,0-2.92-2.25,5.1,5.1,0,0,0-4,.82l-6.26,3.8Z" transform="translate(-20.77 -20.77)"/><path class="cls-4" d="M431.35,481l-14-36.43,6.05-5.16L457.17,459l-6,5.1-7.31-4.57L434,467.92l3.35,7.95Zm.14-18.82,7-6-6.82-4.4q-4.09-2.65-6.51-4.31l-.21.17q1.75,3.65,3.26,7.08Z" transform="translate(-20.77 -20.77)"/><polygon class="cls-4" points="440.66 433.3 412.94 409.11 417.84 403.49 440.76 423.49 451.39 411.3 456.2 415.49 440.66 433.3"/><polygon class="cls-4" points="460.19 409.91 429.48 389.64 433.59 383.42 458.98 400.17 467.88 386.67 473.21 390.18 460.19 409.91"/><path class="cls-6" d="M71,271.41a230.39,230.39,0,0,0-1.5,26.23l19.43,19.43,19.43-19.43h.14a191.23,191.23,0,0,1,1.39-23Z" transform="translate(-20.77 -20.77)"/><path class="cls-6" d="M485.66,277.08a191.79,191.79,0,0,1,1.11,20.56l20,19.59,19-19.59a231,231,0,0,0-1.22-23.76Z" transform="translate(-20.77 -20.77)"/></g></svg>