<?xml version="1.0" encoding="UTF-8" standalone="no"?>
<svg
   xmlns:dc="http://purl.org/dc/elements/1.1/"
   xmlns:cc="http://creativecommons.org/ns#"
   xmlns:rdf="http://www.w3.org/1999/02/22-rdf-syntax-ns#"
   xmlns:svg="http://www.w3.org/2000/svg"
   xmlns="http://www.w3.org/2000/svg"
   xmlns:sodipodi="http://sodipodi.sourceforge.net/DTD/sodipodi-0.dtd"
   xmlns:inkscape="http://www.inkscape.org/namespaces/inkscape"
   width="78.129776"
   height="92.74839"
   viewBox="0 0 75.129776 89.74839"
   version="1.1"
   id="svg2"
   inkscape:version="0.91 r13725"
   sodipodi:docname="TiB_Logo.svg">
  <metadata
     id="metadata21">
    <rdf:RDF>
      <cc:Work
         rdf:about="">
        <dc:format>image/svg+xml</dc:format>
        <dc:type
           rdf:resource="http://purl.org/dc/dcmitype/StillImage" />
        <dc:title>TiB_Logo</dc:title>
      </cc:Work>
    </rdf:RDF>
  </metadata>
  <sodipodi:namedview
     pagecolor="#ffffff"
     bordercolor="#666666"
     borderopacity="1"
     objecttolerance="10"
     gridtolerance="10"
     guidetolerance="10"
     inkscape:pageopacity="0"
     inkscape:pageshadow="2"
     inkscape:window-width="1337"
     inkscape:window-height="1002"
     id="namedview19"
     showgrid="false"
     showguides="true"
     inkscape:guide-bbox="true"
     fit-margin-top="0"
     fit-margin-left="0"
     fit-margin-right="0"
     fit-margin-bottom="0"
     inkscape:zoom="10.976744"
     inkscape:cx="42.532382"
     inkscape:cy="31.423934"
     inkscape:window-x="527"
     inkscape:window-y="24"
     inkscape:window-maximized="0"
     inkscape:current-layer="Menu">
    <sodipodi:guide
       position="37.557549,2.8435689"
       orientation="1,0"
       id="guide4181" />
  </sodipodi:namedview>
  <!-- Generator: Sketch 41.2 (35397) - http://www.bohemiancoding.com/sketch -->
  <title
     id="title4">TiB_Logo</title>
  <desc
     id="desc6">Created with Sketch.</desc>
  <defs
     id="defs8" />
  <g
     id="TiB-1024-invision"
     style="fill:none;fill-rule:evenodd;stroke:none;stroke-width:1"
     transform="translate(1.346229,2.0804628)">
    <g
       id="Menu"
       transform="translate(-31,-11)">
      <path
         style="fill:none;stroke:none"
         inkscape:connector-curvature="0"
         id="Fill-1-3"
         d="m 104.78355,22.008066 0,54.222524 -37.564895,22.437339 -37.564884,-22.437339 0,-54.222524 c 0,0 14.275199,-13.0885288 37.564884,-13.0885288 10.368016,0 24.612155,2.2589098 37.564895,13.0885288" />
      <path
         style="fill:#cf232a"
         inkscape:connector-curvature="0"
         id="Fill-1"
         d="m 102.84387,23.633488 0,51.420338 -35.62355,21.277791 -35.623555,-21.277791 0,-51.420338 c 0,0 13.537466,-12.412121 35.623555,-12.412121 9.832204,0 23.340206,2.14217 35.62355,12.412121" />
      <path
         style="fill:#ffffff"
         inkscape:connector-curvature="0"
         id="Fill-3"
         d="m 60.971557,19.407262 0,4.156929 0.424485,0 0,-5.233972 -0.304782,0 c -0.135356,0.542646 -0.392257,0.725973 -1.065355,0.758055 l 0,0.318988 0.945652,0 z m 2.079146,2.760898 c 0,0.861634 0.61693,1.459279 1.514701,1.459279 0.897771,0 1.514701,-0.597645 1.514701,-1.459279 0,-0.606811 -0.264267,-1.053211 -0.793722,-1.332784 0.425405,-0.207159 0.649157,-0.598561 0.649157,-1.132958 0,-0.790137 -0.592989,-1.388698 -1.370136,-1.388698 -0.777148,0 -1.370137,0.598561 -1.370137,1.388698 0,0.534397 0.224673,0.925799 0.649158,1.132958 -0.529455,0.279573 -0.793722,0.71864 -0.793722,1.332784 l 0,0 z m 2.420759,-2.481325 c 0,0.582062 -0.369237,0.989047 -0.906058,0.989047 -0.536821,0 -0.906059,-0.406985 -0.906059,-0.989047 0,-0.591228 0.369238,-0.989963 0.906059,-0.997296 0.536821,0 0.906058,0.406068 0.906058,0.997296 l 0,0 z m 0.144564,2.456576 c 0,0.662725 -0.425405,1.109125 -1.050622,1.109125 -0.625217,0 -1.049702,-0.4464 -1.049702,-1.109125 0,-0.661809 0.416198,-1.100876 1.049702,-1.100876 0.632583,0 1.050622,0.439067 1.050622,1.100876 l 0,0 z m 3.942826,-3.813192 -0.417118,0 -2.155571,3.5822 0,0.335488 2.13163,0 0,1.363949 0.449346,0 0,-1.363949 0.889484,0 0,-0.406985 -0.897771,0 0,-3.510703 z m -2.124264,3.510703 1.715433,-2.864477 -0.01657,2.864477 -1.698859,0 z m 3.951113,0.327238 c 0,0.861634 0.61693,1.459279 1.514701,1.459279 0.897771,0 1.514701,-0.597645 1.514701,-1.459279 0,-0.606811 -0.264267,-1.053211 -0.792801,-1.332784 0.424485,-0.207159 0.649158,-0.598561 0.649158,-1.132958 0,-0.790137 -0.59391,-1.388698 -1.371058,-1.388698 -0.777147,0 -1.370137,0.598561 -1.370137,1.388698 0,0.534397 0.224673,0.925799 0.649158,1.132958 -0.529455,0.279573 -0.793722,0.71864 -0.793722,1.332784 l 0,0 z m 2.420759,-2.481325 c 0,0.582062 -0.369237,0.989047 -0.906058,0.989047 -0.536821,0 -0.905137,-0.406985 -0.905137,-0.989047 0,-0.591228 0.368316,-0.989963 0.905137,-0.997296 0.536821,0 0.906058,0.406068 0.906058,0.997296 l 0,0 z m 0.143644,2.456576 c 0,0.662725 -0.424485,1.109125 -1.049702,1.109125 -0.625217,0 -1.049701,-0.4464 -1.049701,-1.109125 0,-0.661809 0.417118,-1.100876 1.049701,-1.100876 0.633504,0 1.049702,0.439067 1.049702,1.100876 l 0,0 z" />
      <path
         style="fill:#ffffff"
         inkscape:connector-curvature="0"
         id="Fill-5"
         d="m 54.5379,82.151128 1.46774,0 c 1.243988,0 1.584681,-0.03208 2.063492,-0.17966 0.755049,-0.243824 1.255038,-0.964297 1.255038,-1.821349 0,-0.953298 -0.499989,-1.52436 -1.542324,-1.779183 0.797404,-0.242908 1.159275,-0.719557 1.159275,-1.513361 0,-0.762638 -0.404227,-1.355699 -1.095741,-1.588524 -0.383049,-0.137495 -0.797405,-0.17966 -1.690572,-0.17966 l -1.616908,0 0,7.061737 z m 1.074562,-6.161604 0.563524,0 c 1.286345,0 1.680444,0.232825 1.680444,0.994547 0,0.762638 -0.436455,1.048627 -1.616909,1.048627 l -0.627059,0 0,-2.043174 z m 0,2.921308 0.680465,0 c 0.701642,0 0.935523,0.02108 1.233859,0.127412 0.414356,0.148495 0.659287,0.539897 0.659287,1.048628 0,0.475732 -0.202574,0.857051 -0.532217,1.005546 -0.276238,0.126495 -0.573653,0.158577 -1.382107,0.158577 l -0.659287,0 0,-2.340163 z m 9.230928,0.730556 c 0,-1.629772 -0.839761,-2.657317 -2.180432,-2.657317 -1.403286,0 -2.318551,1.080709 -2.318551,2.710482 0,1.577525 0.925394,2.59407 2.361828,2.59407 1.031286,0 1.754106,-0.518814 2.031264,-1.450113 l -0.936444,-0.06416 c -0.222831,0.455567 -0.552474,0.657226 -1.073642,0.657226 -0.819504,0 -1.287266,-0.550896 -1.329622,-1.567442 l 3.445599,0 0,-0.222742 z m -3.414292,-0.549979 c 0.170346,-0.857968 0.564445,-1.270453 1.212682,-1.270453 0.659286,0 1.042335,0.423484 1.138097,1.270453 l -2.350779,0 z m 4.786271,-0.667309 0.01105,0.328155 0,3.398873 1.041415,0 0,-2.297081 c 0,-1.26037 0.37292,-1.916679 1.096661,-1.916679 0.24401,0 0.435535,0.06325 0.73295,0.232825 l 0,-1.058711 c -0.212703,-0.07425 -0.350821,-0.09533 -0.499989,-0.09533 -0.573653,0 -0.999058,0.370319 -1.382107,1.175123 0.01013,-0.126496 0.01013,-0.232825 0.01013,-0.296073 0,-0.254824 -0.02118,-0.518814 -0.07458,-0.772721 l -0.999058,0 c 0.05248,0.391402 0.06354,0.517897 0.06354,1.301618 l 0,0 z m 3.977816,3.727028 1.063513,0 0,-7.103902 -1.063513,0 0,7.103902 z m 2.786313,0 1.063513,0 0,-5.028646 -1.063513,0 0,5.028646 z m -0.12799,-6.511758 c 0,0.38132 0.266109,0.646226 0.659286,0.646226 0.394099,0 0.660207,-0.264906 0.660207,-0.656308 0,-0.391402 -0.266108,-0.656309 -0.649157,-0.656309 -0.393178,0 -0.670336,0.285989 -0.670336,0.666391 l 0,0 z m 2.904174,2.848895 0,0.401485 0,3.261378 1.052464,0 0,-2.6784 c 0,-1.016546 0.383049,-1.53536 1.138098,-1.53536 0.691514,0 0.904216,0.349237 0.904216,1.492278 l 0,2.721482 1.052464,0 0,-2.890142 c 0,-0.943215 -0.03131,-1.132958 -0.201653,-1.482195 -0.24493,-0.466566 -0.798325,-0.762638 -1.446562,-0.762638 -0.649158,0 -1.159276,0.264906 -1.521147,0.793803 0,-0.338237 -0.02118,-0.465649 -0.09576,-0.687474 l -1.010107,0 c 0.11694,0.44365 0.127989,0.603144 0.127989,1.365783 l 0,0 z" />
      <path
         style="fill:#ffffff"
         inkscape:connector-curvature="0"
         id="Fill-7"
         d="m 44.920239,30.726025 30.280207,0 -8.920622,7.091986 -30.265473,-0.0037 8.905888,-7.088319 z m 1.774364,37.229031 0,-21.277792 7.124159,-7.078236 0,21.263125 -7.124159,7.092903 z m 17.804412,-5.298136 0,-19.490358 -7.12508,7.091986 0,19.490358 7.12508,-7.091986 z m 7.96484,-9.511896 -1.167563,1.198955 5.795458,5.454881 4.421637,-4.094598 -1.924452,-1.927678 0,-19.057708 -7.12508,6.858245 0,11.567903 z m 7.506287,-18.73322 2.755006,-5.829783 6.911456,6.956325 -4.626974,4.299006 -5.039488,-5.425548 z M 66.279824,59.110469 c 0,0 3.81944,8.161696 14.20504,8.263442 C 86.552876,67.433492 94.881429,62.972242 94.7783,52.428217 94.676092,41.885109 87.217687,38.840973 87.217687,38.840973 l -4.833231,5.167057 c 5.132488,1.703104 6.326753,6.270684 6.429882,8.727259 0.103128,2.457492 -1.747661,9.4184 -9.049532,8.906002 -7.300951,-0.511481 -8.945483,-6.960908 -8.945483,-6.960908 l -4.539499,4.430086 z" />
    </g>
  </g>
</svg>
